<?xml version="1.0" encoding="iso-8859-1"?>
<!-- Generator: Adobe Illustrator 13.0.2, SVG Export Plug-In . SVG Version: 6.00 Build 14948)  -->
<!DOCTYPE svg PUBLIC "-//W3C//DTD SVG 1.1//EN" "http://www.w3.org/Graphics/SVG/1.1/DTD/svg11.dtd">
<svg version="1.1" id="Layer_1_xA0_Image_1_" xmlns="http://www.w3.org/2000/svg" xmlns:xlink="http://www.w3.org/1999/xlink"
	 x="0px" y="0px" width="517.761px" height="245.291px" viewBox="0 0 517.761 245.291"
	 style="enable-background:new 0 0 517.761 245.291;" xml:space="preserve">
<g>
	<path style="fill-rule:evenodd;clip-rule:evenodd;" d="M506.291,0.019c3.016,0.05,6.367-0.235,8.76,0.438
		c-1.762,1.383-2.112,3.121-0.438,4.817c-1.091,0.661-2.148,1.355-3.504,1.752c0.404,2.221,0.361,3.049-0.875,4.38
		c-1.397,0.375-1.355-0.689-2.19-0.876c-1.46,0.73-1.262,3.118-3.941,2.627c0.162-2.79-0.866-4.389-1.752-6.131
		c2.052-1.16,4.294-2.13,7.008-2.628C508.235,3.038,506.314,2.477,506.291,0.019z"/>
	<path style="fill-rule:evenodd;clip-rule:evenodd;" d="M515.926,0.019c0.584,0,1.168,0,1.752,0
		c0.441,1.317-0.977,0.776-1.752,0.876C515.926,0.603,515.926,0.311,515.926,0.019z"/>
	<path style="fill-rule:evenodd;clip-rule:evenodd;" d="M141.025,4.836c-0.064,0.958-1.104,0.94-2.19,0.876
		c0.005,1.602,0.866,2.347,1.752,3.066c-0.454,1.098-1.986,1.385-0.438,2.19c-1.292,1.575-3.638,4.117-5.255,3.941
		c0.474-1.277,1.855-1.648,1.752-3.503c-0.321-0.409-0.796-0.664-1.314-0.876c-0.625,0.835-1.018,1.901-1.314,3.065
		c-1.568-0.184-2.107-1.396-2.19-3.065c-0.947,0.367-1.494,1.134-3.066,0.876c-0.228-0.648-0.648-1.104-0.876-1.752
		C129.17,5.41,136.649,1.772,141.025,4.836z"/>
	<path style="fill-rule:evenodd;clip-rule:evenodd;" d="M480.888,4.836c-3.561,4.469-13.503,2.555-18.832,5.256
		c-4.896,1.235-11.213,1.05-14.891,3.503c-2.875,0.629-6.984,0.024-7.884,2.628c1.454,0.882,4.275,0.396,5.693,1.314
		c-0.047,2.435-3.506,1.458-3.941,3.504c-1.2,1.044,1.729,1.931,0.438,3.065c-1.473,1.153-3.641,0.075-4.379-0.876
		c-1.824,0.172-2.557,1.92-4.38,0.876c-0.469-1.636,1.087-1.248,0.876-2.627c-0.747-0.859-3.073-0.14-3.504-1.314
		c0.921-2.875,5.791-1.801,7.445-3.942c-4.971-1.568-6.832,0.836-10.949,1.752c-2.731,0.607-5.115,3.609-8.321,3.066
		c-2.466,1.622-5.583,2.592-8.321,3.941c-1.309,2.052-3.725,2.941-6.132,4.818c-2.348,1.831-3.633,4.336-6.569,5.255
		c-1.035,0.324-1.494,1.838-2.189,2.19c-1.808,0.915-4.062,0.667-5.694,1.752c-2.295,1.526-2.692,4.519-4.817,6.131
		c-4.591,3.483-10.384,5.794-14.453,9.635c-6.079,1.975-11.52,2.115-16.643,5.256c-0.876,0-1.752,0-2.628,0
		c-7.301,3.098-18.909,3.113-28.468,2.628c0.212,1.208,1.547,7.677-2.189,7.445c-1.231,0.063-1.264-1.073-1.314-2.19
		c-1.938,1.275-2.314,4.109-4.817,4.818c-0.862-1.566,0.203-2.337,0-4.38c0.197-1.219-2.388,0.343-2.19-0.876
		c1.661-2.135,4.623-2.968,5.694-5.693c-4.481-0.336-7.474-2.162-10.949-3.504c-3.214,3.681-12.771,4.363-15.329-0.438
		c-2.368,0.476-6.112-0.689-8.321-1.752c0.645-1.544,2.317-2.062,4.38-2.189c1.11-1.07-0.924-0.934-0.438-2.628
		c2.871-0.066,4.032,1.077,7.008,1.752c-0.872,1.026-1.009,2.787-0.876,4.817c3.097,2.452,9.296,2.867,11.825-0.438
		c-4.479-3.565-9.29-9.13-6.132-16.643c-0.329-1.423-1.584-1.92-2.628-2.628c0.052,2.228-2.362,2.907-2.189,5.256
		c-3.267-1.825-5.261,1.069-7.445,1.751c0.02-1.731,0.964-2.54,1.313-3.941c-4.679,0.139-6.548,3.087-7.883,6.569
		c-1.634,0.465-0.693-1.643-2.19-1.314c-2.203-0.159-0.898,3.189-3.504,2.628c0.43-3.59-1.57-3.735-2.628-6.569
		c1.614-1.452,5.496-0.636,6.132-3.066c2.068-0.024,2.405,1.683,3.941,2.19c2.193,0.148,3.063-1.025,5.256-0.876
		c0.393-1.414-1.429-0.616-1.752-1.314c2.997-3.515,6.797-2.512,11.388-3.066c-0.486-2.288-2.128-3.42-3.942-4.379
		c-1.958,0.085-2.486,1.601-3.941,2.189c-1.414,0.392-0.615-1.428-1.313-1.751c-1.609-0.143-3.878,0.374-4.818-0.438
		c0.987-1.495,2.773-2.191,3.942-3.504c-3.269-0.145-7.428,2.458-8.321,6.131c-0.894,0.88-0.859-0.193-1.752-0.438
		c-2.434,0.487-1.875,3.965-3.942,4.818c-1.419-3.493,1.221-6.576,3.504-8.759c2.582-0.484,5.942-0.189,7.445-1.752
		c0.135-1.01-1.265-0.487-1.313-1.314c-2.45,0.879-4.747,0.681-7.008,1.752c-0.61,0.289-1.535,1.276-1.752,1.314
		c-1.129,0.196-3.196-2.302-3.941,0c-1.189,0.313,0.313-2.065-0.876-1.752c-3.488,0.161-2.917,4.382-6.132,4.818
		c0.364-3.138-4.78-0.767-5.693-2.628c0.295-1.895,2.408-1.972,4.38-2.19c1.194-1.188-1.133-1.09-0.876-2.628
		c2.792-0.019,3.928,1.62,5.693,2.628c2.73-1.211,5.861-2.022,8.321-3.504c-1.468-2.587-5.445-0.042-6.131-3.503
		c4.512-3.146,8.589-0.444,10.073,3.941c2.627,0.584,5.37,1.054,7.445,2.19c1.208-0.105,1.336-1.292,1.752-2.19
		c1.583,0.461,2.425,1.663,3.503,2.628c1.875-0.754,4.184-1.073,7.008-0.876c0.479-1.939-0.742-2.178-0.876-3.504
		c4.196-0.717,3.851,2.435,7.445,1.314c-0.715,3.635,2.025,3.815,2.628,6.132c-4.12,0.616-5.544-1.463-9.197-1.314
		c-0.935,0.205-0.834-0.626-0.876-1.314c-4.615,2.341,1.624,4.929,0.876,8.759c0.562,1.19,2.243,1.261,2.628,2.628
		c-2.889,6.914,0.029,15.263,7.884,15.329c0.169,0.308-0.212,1.039,0,1.314c1.781,2.315,9.728,5.352,13.577,4.818
		c3.209-0.445,5.298-3.324,7.007-5.256c2.226,0.328,3.359-0.437,3.941-1.751c0.507,1.976,3.194,1.77,3.504,3.941
		c2.932-1.066,7.727-1.36,9.636,0.876c3.239,0.466,3.867-1.68,7.008-1.314c1.375,0.207,1.156-1.179,2.189-1.314
		c7.024-1.443,13.646-3.288,18.833-6.569c3.736-2.541,6.86-5.695,10.948-7.883c0.802-2.557,2.351-4.365,3.942-6.132
		c7.958-0.572,13.396-8.224,19.271-12.263c1.836-1.263,3.855-1.751,5.693-2.627c1.498-0.714,3.006-2.132,4.817-2.628
		c2.953-0.808,5.55-0.637,7.884-3.066c-5.822-2.266-11.448,2.321-17.519,2.628c-2.364,2.46-6.658,4.646-10.512,7.007
		c-1.144,0.702-1.925,2.053-3.065,2.628c-1.277,0.644-3.305,0.782-4.817,1.314c-2.657,0.935-9.21,1.577-13.577,0.876
		c-1.763-0.283-4.647-0.748-5.693-1.314c-2.19-1.184-2.998-5.932-6.57-3.942c-0.442,2.049,1.757,1.455,1.314,3.504
		c-0.954,1.381-3.931,0.741-6.132,0.876c-0.752,0.562-0.543,2.085-1.752,2.19c-3.554-0.709-7-4.855-10.949-4.38
		c-1.786,0.215-2.229,1.941-4.38,2.19c-1.864-0.909-4.445-1.103-6.131-2.19c0.691-1.79,2.819-2.144,3.065-4.379
		c5.328,0.803,8.606,3.656,14.015,4.379c1.986-1.226,3.966-2.458,6.57-3.066c-0.81-2.211-2.881-0.3-4.38-0.438
		c-1.197-0.109-2.434-1.069-3.941-1.313c-1.636-0.266-3.499,0.275-4.818,0c-4.062-0.849-7.956-2.971-10.511-4.818
		c-1.999,0.221-2.482-0.761-3.942,0c-1.413,0.392-0.615-1.428-1.313-1.752c-1.239-0.075-3.005,0.377-3.065-0.876
		c1.344-1.757,2.809-1.907,2.628-4.379c2.562-0.081,3.855,1.107,5.255,2.19c1.266-0.741,3.3-1.277,4.38,0
		c-0.627,1.563-2.657,1.722-3.065,3.503c-0.098,1.849,2.275,1.228,3.065,2.19c1.452-0.154,0.688-2.524,0.876-3.942
		c3.535-3.489,9.739-8.431,15.767-6.569c0.207,1.375-1.179,1.157-1.313,2.19c0.272,1.188,1.83,1.09,1.752,2.628
		c-2.195,0.286-3.484,1.479-5.256,2.189c-0.607-0.56-0.268-2.068-0.876-2.627c-3.833,0.984-9.754-0.119-8.76,5.693
		c1.604,1.024,3.165,2.091,4.818,3.066c1.309-0.153,3.677-1.219,4.817-0.876c1.354,0.406,1.234,1.488,2.628,1.752
		c4.163,0.789,8.241,0.416,11.387,0.876c0.595-1.909-1.043-1.585-1.313-2.628c0.632-1.704,1.968-2.704,2.628-4.38
		c3.98,0.413,5.317-3.937,9.635-1.752c-1.276,2.561-0.35,2.555,0.876,4.38c-2.041,1.316-6.08,0.635-6.569,3.504
		c-1.205-0.254-1.829-1.09-3.065-1.314c-0.354,0.083-0.437,0.439-0.876,0.438c0.122,3.089,3.16,3.263,3.941,5.693
		c10.671,4.182,24.014,0.695,31.096-6.569c-0.753-2.78-3.652-0.929-6.569-1.752c-0.3-2.197,1.054-2.742,2.628-3.066
		c-0.174-2.655,1.866-3.097,3.065-4.379c1.93,1.136,5.254,0.877,7.008,2.189c-1.056,2.302-4.352,2.364-5.693,4.38
		c-0.393,1.414,1.428,0.615,1.752,1.314c2.804-2.312,5.87-2.765,11.387-3.942c4.191-0.894,7.225-3.116,11.388-0.438
		c3.465-1.49,6.073,0.3,9.197-1.314c0.49-1.379,0.039-0.991,0-2.627c-0.113-0.91-1.925-0.12-2.19-0.876
		c0.34-0.39,0.471-0.989,0.438-1.752c-1.624-1.293-2.719-1.159-5.256-0.876c-1.087,0.559,1.888,0.699,1.313,2.19
		c-1.285,0.081-2.97,0.692-5.255,0.876c-0.729,1.375,1.629,1.79,0.438,2.19c-2.806-0.652-4.017-2.439-7.008-0.876
		c-0.879-0.893,0.193-0.859,0.438-1.752c-0.518-0.504-1.548-0.496-2.628-0.438c0.808-2.012,0.387-3.059,1.313-4.38
		c2.815,0.251,5.739,0.393,7.446,1.752c2.869-1.795,8.085-1.64,10.511,0.438c1.842,0.09,1.84-1.664,3.504-1.752
		c1.377-0.063,1.505,1.124,1.752,2.19c1.815,0.119,1.706-0.575,3.065,0c0.546,1.86-1.457,1.171-1.752,2.19
		c0.997,0.755,2.567,0.937,4.38,0.876c0.441-1.317-0.976-0.776-1.752-0.876c2.171-4.928,9.868-4.269,13.577-1.752
		c3.07-1.164,6.557-1.911,10.512-2.19C473.077,3.381,477.735,2.913,480.888,4.836z M427.018,8.34
		C425.543,7.01,425.691,9.959,427.018,8.34L427.018,8.34z M347.308,10.092c-0.093,1.302,1.562,1.544,2.19,0.876
		C349.805,9.451,347.962,9.397,347.308,10.092z M439.282,11.844c1.522,2.354,3.631-0.991,6.132-0.438
		C444.527,9.353,440.083,10.141,439.282,11.844z M360.885,24.544c0.776-0.1,2.193,0.441,1.752-0.876
		C361.639,23.546,360.991,23.774,360.885,24.544z M331.98,60.458c-2.503,0.277-5.059-0.97-7.008,0.876
		c2.201,0.899,4.434,0.109,6.569,0c4.492-0.23,8.982-0.14,12.701-1.752C340.111,57.132,335.691,60.047,331.98,60.458z"/>
	<path style="fill-rule:evenodd;clip-rule:evenodd;" d="M125.259,8.778c-1.701-3.143,2.633-3.697,4.379-4.818
		c0.745-0.161,0.827,0.342,0.876,0.876C128.411,5.798,128.072,8.525,125.259,8.778z"/>
	<path style="fill-rule:evenodd;clip-rule:evenodd;" d="M346.432,5.712c0.119,1.816-0.575,1.707,0,3.066
		c-1.799,0.828-3.69,1.565-6.131,1.752c-0.376-1.397,0.688-1.354,0.876-2.19c-1.096-0.802-3.604-0.191-3.504-2.19
		C340.647,6.228,343.043,4.669,346.432,5.712z"/>
	<path style="fill-rule:evenodd;clip-rule:evenodd;" d="M233.875,10.53c-1.163,0.004-2.501-0.166-3.065,0.438
		c0.801,1.097,3.683,0.112,3.503,2.189c0.426,1.74-2.447,0.18-2.19,1.752c0.775,1.269,3.234,0.854,3.066,3.066
		c-5.057,1.261-3.966-3.625-7.445-3.942c-0.27,1.876,1.426,1.786,1.314,3.504c-1.879,0.127-2.894-0.61-3.942-1.314
		c0,1.022,0,2.044,0,3.066c-3.009-1.509-7.491-6.589-4.379-10.073c2.202,0.815,2.616,0.815,4.817,0
		c-0.543,1.187-1.69,1.09-0.876,2.628C227.563,11.591,231.777,6.076,233.875,10.53z"/>
	<path style="fill-rule:evenodd;clip-rule:evenodd;" d="M215.042,50.823c-3.302-0.237-3.683,2.448-7.445,1.752
		C207.659,50.05,213.712,47.861,215.042,50.823z"/>
	<path style="fill-rule:evenodd;clip-rule:evenodd;" d="M413.442,60.02c-0.568,2.509-2.609,4.336-5.256,3.504
		c-1.57-1.95-2.003-6.586,0.438-7.884c0.51-0.071,0.779,0.097,0.876,0.438C408.28,59.59,410.54,61.745,413.442,60.02z"/>
	<path style="fill-rule:evenodd;clip-rule:evenodd;" d="M400.741,77.101c0.421,2.319-0.825,2.971-2.19,3.504
		c-0.236,1.551,1.552,1.077,1.314,2.628c-4.278,0.215-4.698-2.755-9.197-1.314c-1.18-1.173,0.558-1.666,0.876-2.628
		c-5.095,0.13-10.375,0.448-12.264-2.628c-1.425,0.508-4.766,0.822-6.131,0c-0.521-1.835,1.846-0.782,2.189-1.751
		c-0.306-1.738-3.122-0.966-3.504-2.628c-0.159-1.473,1.898-0.73,2.628-1.314c0.397-0.916,1.293-1.335,2.628-1.314
		c3.02,1.406,4.145,3.761,7.445,3.942c0.034,1.64-1.888,1.324-1.313,3.503c2.514,2.243,5.106-0.732,8.321-0.438
		c0.965-0.925-0.562-1.294-0.438-2.627C395.309,70.945,397.168,76.746,400.741,77.101z"/>
	<path style="fill-rule:evenodd;clip-rule:evenodd;" d="M76.644,97.685c0.745-0.161,0.827,0.342,0.876,0.876
		c-0.373-0.081-0.413,0.171-0.438,0.438C76.569,98.928,76.713,98.201,76.644,97.685z"/>
	<path style="fill-rule:evenodd;clip-rule:evenodd;" d="M461.18,118.27c1.525,2.125,2.413,4.886,5.693,5.256
		c2.999-0.775,5.281-4.991,8.76-2.628c-0.871,2.487-5.325,1.391-6.132,3.942c0.231,3.271,2.939,4.067,5.693,4.817
		c0.606,1.52-2.37,2.752-2.628,4.817c1.102,0.358,0.922,1.998,0.876,3.504c-1.869,1.78-7.269,0.031-7.445,3.504
		c1.377,1.248,1.849-1.064,3.504-0.876c0.7,1.489,2.728,1.652,3.941,2.628c0.24,1.747,0.24,1.319,0,3.065
		c1.359,1.82,4.304,1.956,7.008,1.314c1.86,2.957,4.633,5.003,7.445,7.008c0.218,1.13-1.047,4.075-1.752,5.693
		c-2.271-0.502-1.4-4.147-2.628-5.693c-2.868,0.257-3.668,1.319-6.131,0c-1.084,0.422,0.604,1.682,0,3.065
		c-3.449,0.931-4.461,4.299-6.57,6.569c-2.896,0.414-3.548-1.415-6.569-0.876c0.125,1.773,0.752,3.044,0.876,4.817
		c7.975,1.661,16.287,2.984,18.395,10.512c-0.678,1.365-1.669,2.419-2.628,3.504c-0.284,6.869-4.639,9.667-4.817,16.643
		c2.084,0.501,1.19,1.377,2.19,2.628c1.989-0.201,4.142-2.079,6.131-0.876c-1.012,7.2-10.196,5.747-16.204,6.132
		c-1.694-1.813-0.223-4.612,0-7.008c4.905-1.099,4.185-6.821,4.379-11.825c0.138-3.527,2.255-5.082,3.066-7.884
		c-2.669-0.757-7.438-2.468-11.825-1.313c2.581,4.134,3.313,10.117,7.007,13.139c-4.009,7.963-10.828,13.113-16.204,19.709
		c0.049,1.119,1.466,0.869,2.628,0.876c-0.53,1.857-0.53,3.836,0,5.693c1.642,0.693,4.416,0.256,4.379,2.628
		c-6.312,4.131-9.571-4.616-16.204-4.38c0.071-0.509-0.097-0.779-0.438-0.876c0.191-2.437,1.445-3.81,2.628-5.256
		c1.304,0.581,2.223,0.449,3.065-0.438c2.556-3.723,4.526-8.029,6.57-12.264c2.331-1.464,5.314-2.275,5.255-6.131
		c-4.467-1.372-4.382-7.297-10.511-7.008c-1.301-2.057-3.697-3.019-4.817-5.256c-1.46,0-2.92,0-4.38,0
		c-0.48-1.179-0.083-2.246,0.438-3.504c-0.321-1.576-3.453-0.343-3.941-1.751c2.251-5.439,8.854-7.84,10.949-14.016
		c0.711-2.097,0.216-4.479,0.876-6.569c0.644-2.039,2.234-4.088,3.065-6.132c0.92-2.261,1.002-4.545,2.628-6.131
		c-0.421-1.477-2.117-1.679-3.504-2.19c-0.742,1.171,0.689,3.196,0.876,4.818c-2.374,7.547-14.979,5.746-16.643-1.314
		c-1.288-5.466,2.232-8.402,7.445-8.76c-2.646-3.192-7.864-3.814-10.511-7.007c-1.022,0-2.044,0-3.066,0
		c-1.501-3.233-6.62-2.932-10.511-2.628c0.019-0.749-0.325-1.134-0.876-1.314c-0.029-2.824,4.582-2.605,5.693-0.876
		c9.966,0.838,14.636,6.971,21.898,10.511c0.832-1.72-2.48-5.808,0-7.883c1.212,2.598,4.8,4.922,2.628,8.322
		c1.563,1.135,2.823-1.062,4.817-0.876c0.023,2.066-1.85,2.237-2.628,3.503c0.049,0.828,1.448,0.305,1.314,1.314
		c1.766-0.57,2.919-1.753,3.065-3.941c0.398-2.15-1.836-1.669-1.752-3.504C456.817,124.461,457.783,121.505,461.18,118.27z
		 M455.924,137.102c0.76,1.285,2.054,2.034,3.941,2.19c0.093-0.491,0.486-0.683,0.876-0.876
		C461.006,134.545,456.603,133.252,455.924,137.102z"/>
	<path style="fill-rule:evenodd;clip-rule:evenodd;" d="M329.79,170.826c1.086-0.319-1.445-1.317,0-2.189
		c2.174-0.422,2.336,1.168,3.941,1.313c2.681-0.239,3.488-2.352,6.132-2.628c1.404-0.382,1.37,0.675,1.752,1.314
		c2.502,0.179,4.424-2.108,6.132-1.314c1.015,3.293-2.716,5-5.256,6.132c-0.191,3.293,3.853,0.863,5.256,1.752
		c-2.43,3.696-8.305-0.495-9.636,3.941c-1.107,3.692,2.128,4.329,3.066,6.57c1.054,2.518,0.488,4.865,0.876,7.883
		c2.896,2.214,10.23-0.012,10.511,4.817c1.671,0.374,2.786,1.303,4.38,1.752c0.113,2.011,0.466,2.116,0,3.942
		c-4.673,0.95-5.432-4.679-8.321-5.694c-2.695-0.946-4.688,0.644-8.321,1.314c-1.628,0.167-1.146-1.774-3.066-1.314
		c-2.076,3.495,2.396,9.889-3.065,10.949c-3.037-1.927-0.478-4.446-0.876-8.321c-4.152,0.228-4.98,3.779-10.512,2.628
		c1.992,4.972-0.129,8.168-0.875,13.577c1.169,2.075,3.579,0.775,6.131,0.876c0.384,1.222,1.049,2.163,1.314,3.504
		c-4.924,1.639-8.51-1.239-12.264-3.066c1.071-2.14,2.084-4.339,2.19-7.445c-1.483-1.144-3.331-1.925-5.694-2.189
		c-2.23,0.835-2.802,3.329-3.941,5.256c-1.967,0.515-3.71,1.254-4.817,2.628c0.229,1.376,0.769,2.443,1.313,3.503
		c2.64-0.303,4.495,0.177,3.942,3.066c-1.913-0.308-2.467,0.745-4.38,0.438c-2.07-2.747-3.434-6.201-4.818-9.635
		c1.774-1,3.8-1.749,5.694-2.628c-0.799-4.314,0.474-9.136,3.504-10.949c-5.558-2.099-10.551-9.593-5.694-15.767
		c2.367-0.363,3.864-3.589,6.132-2.628c-0.107,2.229-2.979,1.692-3.941,3.065c-0.066,1.162-0.757,1.995-0.876,3.065
		c-0.576,5.146,2.18,8.131,6.131,9.636c2.699-0.951,3.808-3.492,7.446-3.504c0.716-2.122,4.68-3.717,6.131-6.132
		c0.559-0.929,0.232-2.228,0.876-3.065c1.988-2.588,7.466-4.835,2.19-8.321c0.938-0.96,2.209-1.587,2.189-3.504
		c-0.188-1.711-2.593-1.203-2.189-3.504C329.225,169.931,329.61,170.276,329.79,170.826z"/>
	<path style="fill-rule:evenodd;clip-rule:evenodd;" d="M402.493,169.074c1.953,0.091,1.538,2.55,3.065,3.066
		c2.219,0.612,1.202-2.01,3.065-1.752c0.865,4.717,3.568,7.247,3.066,12.263c-1.161,1.029-2.337,2.043-4.38,2.19
		c0.574,2.332-0.526,3.931,0.876,5.693c3.678-0.521,11.424-1.549,9.635,4.817c-3.736-2.288-6.608-1.159-10.949,0
		c1.757,1.754,8.217,5.293,2.628,8.321c-1.426-0.034-0.935-1.984-1.313-3.065c-0.816-1.228-2.398-1.689-3.941-2.19
		c-3.413,2.573-5.506,6.466-9.197,8.76c1.834,4.81,0.73,7.546-0.438,12.701c0.529,2.038,2.687,0.752,3.941,1.313
		c0.14,1.028,0.692,1.645,0.438,3.066c-4.682,0.301-6.84-1.92-9.197-3.942c-0.021-2.064,1.413-2.674,1.313-4.817
		c-3.689-2.633-10.127,1.305-10.949,5.693c-0.359,1.674,2.112,0.517,1.752,2.19c-0.133,2.584-3.208,0.708-4.38,0.438
		c-1.172-2.32-0.544-5.459,0-8.321c1.318-1.31,3.615-1.641,4.818-3.065c-0.003-1.896-1.017-2.779-0.876-4.818
		c-6.14-1.532-12.106-1.982-17.081,0.876c-1.843,1.06-2.488,3.185-4.817,3.066c-1.426-3.85,6.681-7.284,10.511-7.884
		c3.432-0.537,7.263,0.083,10.512,0.438c3.301-4.583,8.674-7.093,12.701-10.949c0.835-1.96,1.72-3.671,3.065-5.694
		c0.556-0.834,1.814-1.943,2.189-3.503c0.516-2.142-0.591-4.711,0-7.008C399.302,174.033,403.526,171.982,402.493,169.074z"/>
	<path style="fill-rule:evenodd;clip-rule:evenodd;" d="M24.088,26.296c-0.288-1.312-0.936,0.419-1.752,0
		c-0.508-1.681-1.636-2.744-1.313-5.255c-1.734,0.456-1.705,2.675-1.752,4.817c-1.443,1.769-1.777,4.647-3.942,5.694
		c0.318-1.34-0.755-1.289-0.438-2.628c-0.964,0.496-0.03,2.89-1.314,3.066c-1.789-0.938-1.994-2.31-4.817-1.314
		c0.132-1.77,1.901-4.01,0-5.256c0.483-1.999,2.751-2.212,2.627-4.817c0.088-1.694-2.167-1.045-3.065-1.752
		c1.49-4.225-0.249-10.489,2.19-14.453c3.253,0.002,5.625-0.233,10.073,0c3.84,0.201,8.012-0.933,10.949-0.876
		c2.186,0.042,4.157,1.296,6.131,1.314c0.831,0.008,1.833-0.713,2.628-0.876c4.534-0.926,10.263,0.507,16.205,0.438
		c13.458-0.156,34.508,0.074,47.739,0.438c4,0.11,7.862-0.801,11.825,0.876c-0.619,2.19-3.849,0.868-3.066,3.504
		c-2.772,0.45-5.263-1.27-7.445,0c0.153,1.452,2.524,0.687,3.941,0.876c-0.058,1.08-0.066,2.11,0.438,2.627
		c1.851-0.485,4.167-0.504,6.57-0.438c0.059,1.693,1.776,1.727,2.189,3.065c1.092-0.368,2.347-0.573,3.942-0.438
		c0.588,0.872,0.835,2.085,1.314,3.066c0.997-0.213,2.237-0.869,3.065,0c-0.305,1.154-1.994,0.926-2.189,2.19
		c-0.037,2.519,3.468,1.496,4.817,2.627c-0.274,1.478-2.429,1.075-2.628,2.628c1.941,1.118,5.963,0.486,5.256,5.256
		c-1.382,0.214-1.546-0.79-3.066-0.438c1.283,2.286,6.536,2.72,4.818,6.569c-1.384,1.064-1.72-1.846-3.942-1.314
		c-1,1.428,1.692,2.192,1.752,3.942c-1.163,1.019-0.7,2.36-0.438,3.942c-1.209-0.225-3.666-1.95-4.38,0
		c-0.092,1.552,2.055,0.865,1.752,2.627c-2.558,0.661-2.699-1.096-3.941-1.751c-1.798,2.543,2.074,3.169,2.189,5.255
		c-2.882,1.709-3.333-2.396-5.693-2.628c-1.003,1.605,2.278,2.673,2.19,4.818c-5.3,0.536-6.008-7.063-7.007-12.263
		c-3.542,4.509,2.048,9.447,3.503,13.139c-2.72,1.546-4.404-1.325-4.817-3.504c-1.231-0.063-1.263,1.073-1.314,2.19
		c-1.979-0.065-1.878-2.21-2.628-3.504c0.007-1.599,1.245-1.967,1.752-3.066c-2.787-1.751-2.396,3.434-3.942,4.38
		c-1.63,0.024-1.263-1.949-1.314-3.504c-1.292,0.594-2.711,0.548-3.503-0.438c-0.111-1.57,1.315-1.604,1.314-3.065
		c-2.712-0.866-0.008-2.47-0.438-4.818c-1.181-1.593-4.675-0.873-5.256-3.066c-1.178-0.301-0.846,0.906-1.314,1.314
		c0.988,1.348,3.153,1.519,3.066,3.942c-0.733,0.773-1.467-0.389-3.066,0c-1.285,0.372,0.57,1.102,0,2.19
		c-2.937-0.661-5.859,0.994-6.569-2.19c-1.338-0.316-1.596,0.448-2.628,0.438c-1.532-1.276-1.344-3.373-0.876-5.694
		c-0.728,0.732-1.146,1.773-2.628,1.752c-0.039-1.713-0.536-2.968-2.627-2.627c-0.127-2.463,0.769-3.903,2.189-4.818
		c-0.042-1.125-1.709-0.626-1.751-1.752c-0.078-1.538,1.479-1.44,1.751-2.628c-0.89-2.176-3.51-2.621-3.503-5.693
		c-1.167,0.731,0.243,4.039-0.876,4.817c-1.831-0.067-2.393-1.403-2.19-3.503c-2.317-0.711-1.371,1.841-3.504,1.314
		c-1.025-1.569,0.266-3.933,0.876-5.256c-1.153-1.101-1.475,1.099-2.627,1.314c-1.534,0.074-1.379-1.541-2.19-2.19
		c-0.961,0.499-1.79,1.13-3.504,0.876c1.276-4.198-2.982-5.076-3.942-8.321c-1.34,0.557-3.174,0.621-4.379,1.314
		c1.331,1.442,3.455,2.093,4.379,3.941c0.384,1.406-1.136,0.908-1.313,1.752c0.229,2.544,4.296,1.251,3.941,4.38
		c-1.314,0-2.628,0-3.941,0c0.594,1.596,2.434,1.946,2.627,3.941c-0.637,0.677-2.242,0.386-3.503,0.438
		c-1.351,0.584,0.816,1.948-0.438,2.628c-1.443-0.163-2.188-1.023-3.066-1.752c-0.95-0.074-0.198,1.554-0.438,2.19
		c-3.502,0.437-2.964-3.167-4.38-4.817c-1.245,0.97-1.803,4.691-0.438,5.693c0.175,1.78-1.864,1.348-2.189,2.628
		c1.011,2.2,1.157,5.267,3.065,6.569c1.236-0.516-0.49-3.994,1.314-3.941c3.209,1.174,0.036,5.354,0.438,7.883
		c3.359-1.021,0.46-8.3,5.694-7.445c0.404,2.01-1.096,2.116-0.876,3.941c1.715-0.218,3.337-2.251,5.255-0.876
		c0.13,4.218-3.664,4.511-4.379,7.883c3.875-0.541,5.522-7.005,11.387-7.007c1.4,1.812,5.077,1.346,5.255,4.38
		c1.506-0.192,2.455,0.173,3.504,0.438c0.271,2.752-3.709,1.254-4.38,3.065c1.004,0.824,4.331-0.925,4.818,1.314
		c-0.206,1.984-3.354,1.026-3.066,3.504c-3.717,0.757-6.634-3.328-8.759-1.314c0.945,0.515,2.011,0.909,3.066,1.314
		c0.395,3.023-1.426,3.83-4.38,3.504c1.203,2.447,2.835,4.464,6.569,4.379c1.017-1.173,1.523-2.856,2.628-3.941
		c3.282,0.958,3.826-0.427,6.57-0.876c0.537,1.997-1.536,1.384-1.752,2.627c1.364,0.937,2.5-1.385,3.941-1.751
		c2.827,0.531,3.402,3.313,7.008,3.065c0.509,2.261-1.208,2.295-2.19,3.066c1.15,0.894,4.1-0.012,3.503,2.628
		c-2.669,0.495-2.934,0.728-3.941,2.627c-2.565-0.5-2.909-3.223-5.694-3.503c-1.004,0.751,1.892,1.291,2.19,2.19
		c0.02,1.333-0.925,1.703-1.314,2.627c0.607,1.908,2.263,0.043,3.504,0c1.24,1.388,4.097,1.159,5.694,2.19
		c-1.571,2.774,0.311,2.296,0.875,4.818c-1.337,1.647-3.463-0.806-6.131-0.438c0.389,2.093,3.486,1.478,3.504,3.941
		c-1.948,0.664-3.449-1.101-5.694,0.438c-0.419-0.895-0.895-1.733-1.314-2.627c-1.882,1.363-4.803-0.448-5.255,1.751
		c2.503,0.783,3.651,1.867,6.131,1.752c-0.29,2.63-4.172,1.667-4.817,3.942c1.521-0.067,5.847-2.593,9.197-0.876
		c0.186,0.916-0.3,1.16-0.438,1.752c0.637,0.823,2.867,0.053,3.503,0.876c-0.571,1.763-0.866,1.075,0,2.628
		c0.307,1.621-1.535,1.092-2.189,1.751c0.384,0.774,1.388,1.279,0.438,2.19c-3.928,0.318-4.118,2.207-6.57-1.752
		c-1.441,0.019-2.18,0.74-3.941,0.438c0.996,1.778,5.163,0.385,4.817,3.504c-2.156,1.494-3.292-1.217-5.255-1.314
		c1.109,1.758,4.812,2.943,3.941,5.256c-1.188,1.137-1.637-0.937-2.627-1.314c-1.325,0.663,0.363,1.922,0,3.065
		c-1.288,0.141-5.304,1.395-5.694-1.314c-1.92-0.46-1.438,1.481-3.066,1.314c-1.238-1.244-1.643-3.321-2.627-4.817
		c-0.644,0.002-2.2,1.219-0.876,1.752c-0.912,1.44-1.847-0.739-2.628-0.876c-0.805,0.619,0.687,2.127-0.438,3.065
		c-1.847-0.343-1.911-2.468-3.504-3.065c-1.062,0.251,0.206,2.833-1.313,2.627c-1.372-0.234-1.578-1.633-1.752-3.065
		c-1.284,0.03-1.627,1.001-2.19,1.752c-1.542-2.254-4.193-3.398-7.007-4.38c0.31-3.23-2.777-3.062-2.628-6.131
		c-0.73,0-1.46,0-2.19,0c-0.264,1.577,1.337,1.291,1.314,2.627c-0.763,0.405-2.351-0.015-2.19,1.314
		c-0.403,1.717,2.31,0.318,2.628,1.314c-0.486,1.85-2.923,1.749-2.628,4.38c-1.175,0.185-3.43-1.612-3.066,0.876
		c-2.267-0.451-3.482-0.435-5.255,0.438c-0.44-0.874-1.937-0.691-1.752-2.19c-4.56-0.696-7.052-3.459-10.511-5.256
		c-2.496,2.289-3.513-1.413-6.131,0c-1.206-2.403-2.268-5.407-2.19-7.883c-1.34-0.318-1.288,0.756-2.628,0.438
		c-0.9-0.706-1.016-2.196-0.876-3.942c-0.912-1.016-1.847,0.491-2.628-0.876c0-1.313,0-2.627,0-3.941
		c-1.785-0.326-1.508,1.412-3.503,0.876c-0.909-1.751,0.202-3.404,0.876-4.818c-1.848-7.575,1.402-17.436-0.876-25.402
		c0.681-0.721,1.707,0.149,2.627,0.438c0.288-2.049,1.675-2.998,3.504-3.504c1.727-0.121,1.339,1.873,3.066,1.752
		c0.904-0.994,0.896-2.9,1.752-3.942c1.055-0.179,0.952,0.8,2.19,0.438c-0.065-2.023-1.24-3.611-0.438-5.255
		c3.467,0.329,2.581,5.01,5.255,6.131c0.599-2.101-2.822-5.682-1.314-8.759c1.506,0.1,1.909,1.303,2.19,2.628
		c0.648-0.228,1.104-0.648,1.752-0.876c-0.065-2.945-1.42-2.881-1.314-5.256C23.814,26.358,22.81,31.978,24.088,26.296z
		 M90.221,21.041c0.292,0,0.584,0,0.876,0c0-0.292,0-0.584,0-0.876c-0.292,0-0.584,0-0.876,0
		C90.221,20.457,90.221,20.749,90.221,21.041z M49.49,21.479c0.439-0.001,0.521,0.354,0.876,0.438
		c-0.001-0.439,0.354-0.521,0.438-0.876c-0.439,0.001-0.521-0.355-0.876-0.438C49.93,21.042,49.573,21.124,49.49,21.479z
		 M30.658,22.792c0-0.583,0-1.167,0-1.751c-0.584,0-1.168,0-1.752,0C28.703,22.412,29.287,22.996,30.658,22.792z M24.526,25.42
		c0.338-0.299,1.14-2.609-0.438-2.19C24.328,23.867,23.576,25.494,24.526,25.42z M33.723,31.552
		c-0.132,1.154,0.606,1.437,1.752,1.314C35.807,31.325,34.329,30.906,33.723,31.552z M39.417,34.618
		c-0.362-1.238,0.617-1.134,0.438-2.189c-0.56-0.024-0.606-0.562-1.314-0.438C37.6,32.924,38.378,34.375,39.417,34.618z
		 M48.614,36.37c1.958,0.061,1.683-2.113,2.19-3.503C49.262,33.222,48.609,34.467,48.614,36.37z M113.434,41.188
		c-0.135-1.471,0.584-3.796-1.314-3.504C111.41,38.613,112.222,40.825,113.434,41.188z M109.054,43.377
		c2.506,0.806,2.22-3.687,0.438-3.504C108.814,40.51,109.106,42.116,109.054,43.377z M22.774,44.691
		c0.591-1.647-2.021-2.312-2.627-1.313C21.239,43.598,21.609,44.542,22.774,44.691z M123.069,45.567
		c0.597-0.558,0.676-2.145-0.438-2.189C121.588,43.676,121.277,45.807,123.069,45.567z M60.439,47.319c0.876,0,1.752,0,2.628,0
		c-0.069-0.515,0.075-1.243-0.438-1.314C62.447,46.991,60.228,45.939,60.439,47.319z M23.65,50.385
		c1.062-0.513-0.584-2.75-1.314-1.314C23.164,49.12,22.64,50.519,23.65,50.385z M66.133,51.261
		C64.363,49.72,65.1,52.669,66.133,51.261L66.133,51.261z M87.593,60.458c1.384,0.07,2.644,0.016,3.066-0.876
		C90.079,59.053,87.647,59.144,87.593,60.458z M37.665,60.896c1.403,0.203,1.544,1.667,3.066,1.752
		c1.194-1.623-1.041-2.844-2.628-3.066C38.122,60.185,37.897,60.543,37.665,60.896z M72.703,60.896
		c0.1,1.505,1.303,1.908,2.627,2.19c0.343-0.938,1.064-2.447,0.438-3.066C74.383,59.948,74.304,61.184,72.703,60.896z
		 M36.789,63.086c0.175-1.635-0.35-2.57-1.752-2.628C34.862,62.093,35.387,63.028,36.789,63.086z M80.586,66.151
		c2.041,0.187,4.433-0.438,3.066-3.065C81.761,63.239,80.739,64.261,80.586,66.151z M54.308,73.159
		c-0.945-3.143-3.715-4.46-5.693-6.57C50.174,69.118,50.327,73.052,54.308,73.159z M78.396,73.159c1.605,0,3.382,0.17,3.066-1.752
		C80.444,71.996,78.189,71.347,78.396,73.159z M40.731,79.291c-0.149-0.354-1.163-0.528-1.314,0
		C39.127,80.305,41.128,80.238,40.731,79.291z M59.125,82.794c0.557-0.519,0.186-1.654-0.438-2.19
		C58.927,81.241,58.176,82.868,59.125,82.794z M52.556,85.86c1.288-0.318,1.846-1.365,1.751-3.065
		c-0.625-0.105-0.738-0.721-1.314-0.876C52.54,82.931,52.103,85.278,52.556,85.86z M59.563,87.174c1.022,0,2.044,0,3.066,0
		C62.995,84.496,59.197,84.496,59.563,87.174z M86.279,85.86c0.439-0.001,0.521,0.355,0.876,0.438
		c-0.001-0.439,0.355-0.521,0.438-0.876c-0.439,0.001-0.521-0.355-0.876-0.438C86.719,85.423,86.363,85.505,86.279,85.86z
		 M38.979,89.364c0.584,0,1.168,0,1.752,0c0.382-1.404-0.674-1.37-1.314-1.752C39.279,88.204,38.793,88.448,38.979,89.364z"/>
	<path style="fill-rule:evenodd;clip-rule:evenodd;" d="M146.719,3.96c4.565,1.217,10.681-0.753,16.205,0
		c1.635,0.223,2.72,0.437,4.818,0.438c6.358,0.006,14.83-0.344,21.022,0.438c1.646,0.208,3.351,0.416,4.379,1.752
		c-3.607-0.396-5.754,0.669-7.883,1.752c0.871,1.801,5.036,0.737,6.131,0c2.542,0.687,7.232,3.345,10.073,0.876
		c-1.351-1.217-3.481,0.043-4.379-0.876c0.767-1.861,3.646-1.609,3.941-3.942c3.959-0.289,7.81-0.395,10.073,1.752
		c1.418-0.587,3.3-1.277,4.38,0c-0.395,1.941-3.728,0.944-4.817,2.19c2.812-0.184,2.334,2.921,5.255,2.628
		c-0.872,3.792,1.266,4.573,2.19,6.569c-1.732,0.644-3.396,0.445-5.256-0.438c-0.421,2.173,1.168,2.336,1.314,3.942
		c-2.939,0.458-2.523-2.44-4.817-2.628c-1.154-0.132-1.438,0.606-1.314,1.752c-2.075-1.283-3.619-3.097-3.066-7.008
		c-1.783-0.031-1.885,1.619-1.752,3.504c-0.584,0-1.168,0-1.752,0c0.614,2.366-1.183,2.321-1.313,3.942
		c1.952,2.648,6.543,0.285,8.759,2.189c-0.114,1.93-3,1.089-3.942,2.19c1.564,2.107,4.299,0.352,6.131,2.19
		c0.037,2.688-3.895,1.633-5.693,1.314c0.583,2.397,4.926,1.962,5.256,4.818c-1.644,1.101-4.367,0.168-5.256-0.876
		c-0.283,1.743,1.159,1.761,0.876,3.503c-3.414-0.382-4.213-3.378-7.007-4.379c-1.472,1.036,0.986,3.295-0.438,4.379
		c-1.12-0.968-2.026-2.825-1.314-4.379c-0.584,0-1.168,0-1.752,0c-1.571,0.035-0.348,2.863-1.314,3.503
		c-3.142-1.238-1.832-6.927-6.131-7.007c0.155-0.575,0.771-0.689,0.876-1.314c-2.425,0.527-2.545-1.251-4.38-1.314
		c-1.25,0.588-0.014,2.299,0.876,2.19c-1.91,1.534,0.402,1.619,0.438,3.504c-2.865,0.091-4.466-1.082-4.818-3.504
		c-2.823,1.836,1.722,3.402,1.752,5.256c-1.386-0.072-1.464,1.164-3.066,0.875c-0.965-1.078-1.221-2.867-3.065-3.065
		c-1.763,2.057,2.98,3.248,1.752,4.817c-1.282,0.114-1.346-0.99-2.628-0.876c0.207,3.151,4.263,2.452,4.379,5.694
		c2.614,0.227,2.458-1.907,4.818-0.876c-0.285,0.445-1.007,0.453-0.876,1.314c1.477,1.305,3.436-0.633,5.256-0.438
		c0.136,2.472-4.281,0.391-3.942,3.066c2.297,0.682,6.399-0.602,9.197-0.876c-1.418,3.138,2.712,2.645,3.942,4.379
		c-0.404,1.933-2.574,2.098-3.942,3.066c0.564,1.625,2.753,1.626,2.628,3.942c-2.556-0.366-3.541,0.839-3.942,2.627
		c0.305,2.177,3.314,1.65,3.066,4.38c-0.876,0-1.752,0-2.628,0c-0.433,1.747,1.309,1.319,0.876,3.066
		c-2.194-0.844-1.78-0.225-2.19,1.314c-1.575-0.323-2.765-1.031-4.379-1.314c-0.357,2.417,2.69,3.217,1.751,4.817
		c-3.465,0.107-3.454-3.262-5.255-4.817c-1.394,1.708,0.527,3.836,0.876,5.255c-3.559,0.493-3.583-2.549-4.818-4.38
		c-0.848,0.466-0.105,2.523-1.313,2.628c-1.653-1.749-2.597-4.48-1.314-7.007c-1.768-0.016-2.207,1.297-2.19,3.066
		c-4.004-1.995,0.615-6.146,1.752-8.322c2.814,0.333,3.376-1.587,4.817-2.627c-0.455-1.589-1.453-2.635-2.19-3.942
		c-1.122,0.484-0.86,2.352-0.875,3.942c-1.94,0.188-0.952-2.553-2.628-2.628c1.57,3.202-2.563,2.464-1.752,6.131
		c-2.476-0.298-1.995-3.552-3.066-5.255c-1.473-0.013-0.892,2.028-1.752,2.628c-2.489-1.985,1.097-4.477,0.438-7.446
		c-3.618,0.324-3.162,4.722-5.255,6.57c-2.705-0.8-4.119-2.889-6.132-4.38c-1.058,1.222,1.615,4.301,0.438,5.694
		c-2.003-0.041-1.837-2.251-3.065-3.066c-1.253,0.061-0.801,1.827-0.876,3.066c-4.441-0.725-0.707-5.056-0.438-7.446
		c-2.623,0.589-1.875,4.548-4.818,4.818c-0.857-0.818-0.135-1.604,0-2.628c-1.054-1.166-2.328,0.606-3.065-0.876
		c-0.381-1.695,1.069-1.558,1.313-2.628c0.13-1.151-1.699-0.345-1.313-1.751c0.759-1.577,2.284-2.388,3.941-3.066
		c-0.67-1.393-0.153-1.927,0-3.504c-1.629-0.461-0.859,1.477-1.752,1.752c-3.481-1.85,1.529-5.081,2.628-6.569
		c-3.245-0.033-3.652,2.771-6.131,3.503c0.177-3.911,3.676-4.499,7.007-5.255c-0.142-2.778-2.977-2.863-3.504-5.256
		c-2.838,0.309-1.098,2.521-0.876,4.38c-2.871-0.779-2.487-4.812-3.941-7.007c-1.579,1.195-1.004,4.543-2.19,6.131
		c-1.773-0.417-1.812-2.568-1.752-4.818c-1.551-0.237-1.077,1.551-2.628,1.314c-0.603-0.564-0.433-1.902-0.438-3.065
		c-0.895-1.04-1.733,0.602-2.627-0.438c-0.334-7.78,6.771-8.12,12.263-10.073c-0.413-3.479,1.101-5.031,3.941-5.256
		c-2.435-3.938-4.608,4.216-7.445,2.628C144.289,6.494,146.703,6.426,146.719,3.96z M156.354,10.092
		c0.086-1.254,0.054-2.391-1.314-2.19C154.954,9.156,154.986,10.292,156.354,10.092z M199.713,13.157
		c1.62,0.306,1.935-0.693,1.751-2.189c-0.438,0-0.875,0-1.313,0C200.513,12.206,199.534,12.102,199.713,13.157z M154.603,13.595
		c-1.25-0.794-1.79-2.298-4.38-1.751C149.541,14.294,153.303,14.581,154.603,13.595z M191.392,12.282
		c0.288,1.61,1.615,2.181,2.628,3.065c0.419-0.895,0.895-1.733,1.314-2.628C194.197,12.389,192.437,11.365,191.392,12.282z
		 M161.172,13.157c-1.093,1.071-1.665,2.123-0.438,3.504c2.349-0.133,3.212-1.751,6.132-1.314
		C167.052,11.884,162.584,15.348,161.172,13.157z M170.807,17.537c0.47,1.136,1.904,1.308,2.19,2.628c-1.168,0-2.336,0-3.503,0
		c0.099,3.603-6.252,0.756-5.694,4.817c2.736-2.486,7.043-3.034,11.387-1.752c-0.598-3.225,0.957-4.298,1.752-6.131
		c-0.624-1.128-1.026-2.478-2.628-2.628c-0.602,0.999,1.129,1.646,0,1.752c-1.508-0.828-2.134-2.538-3.942-3.066
		C171.015,15.585,171.797,14.824,170.807,17.537z M190.516,17.975c1.324-0.281,2.527-0.684,2.627-2.19
		c-4.343,0.84-4.982-2.025-7.883-2.628C185.757,16.018,188.435,16.698,190.516,17.975z M197.523,15.347
		c1.368,0.201,1.4-0.936,1.314-2.19c-0.438,0-0.876,0-1.314,0C197.523,13.887,197.523,14.617,197.523,15.347z M156.792,18.413
		c0.73,0,1.46,0,2.189,0c0-0.584,0-1.168,0-1.752c-0.729,0-1.459,0-2.189,0C156.792,17.245,156.792,17.829,156.792,18.413z
		 M163.8,18.413c-1.864-0.258-3.067,0.145-2.628,2.19c3.203-0.447,5.635-1.665,8.759-2.19
		C169.603,15.224,164.612,16.939,163.8,18.413z M192.706,19.727c0.922-0.393,2.614-0.014,2.19-1.752
		C193.613,18.006,192.426,18.134,192.706,19.727z M157.23,21.917c1.277,0.644,1.277-1.958,0-1.314
		C157.23,21.041,157.23,21.479,157.23,21.917z M157.668,29.8c-0.292,0-0.584,0-0.876,0c0.542-1.21,1.279-2.225,1.313-3.942
		c-2.541-0.789-1.716,1.788-3.065,2.19c-0.759-1.49,0.552-3.096-0.438-4.818c-1.08-0.058-2.11-0.066-2.628,0.438
		c1.317,2.917,1.075,7.393,5.694,7.008c0.814-1.521,2.642-2.029,3.065-3.942C157.935,26.123,157.882,29.096,157.668,29.8z
		 M187.45,26.296c1.208-0.397,3.076-0.136,3.941-0.876c-2.058-0.278-2.285-2.386-4.817-2.19
		C186.29,24.829,186.869,25.563,187.45,26.296z M172.559,27.61c0.438,0,0.876,0,1.314,0c0.057-0.786-0.435-1.025-1.314-0.876
		C172.559,27.026,172.559,27.318,172.559,27.61z M163.8,28.048c0.654,0.695,2.497,0.641,2.19-0.876
		C164.903,27.108,163.864,27.091,163.8,28.048z M167.304,35.056c-0.194-0.828,0.596-2.639-0.876-2.189
		C166.363,33.952,166.346,34.991,167.304,35.056z M175.187,33.304c-0.082-0.649-1.059-0.402-1.752-0.438
		C172.5,34.477,175.666,34.842,175.187,33.304z M165.114,44.253c-0.814,0.354-1.77,0.566-2.19,1.313
		c-1.338-0.414-1.373-2.131-3.066-2.189c0.114,4.266,3.725,5.035,5.694,7.445c1.125-3.488,3.467-9.999,0-12.263
		c-0.17,1.144-0.225,2.403-0.876,3.066c-1-0.898-0.806-2.99-2.628-3.066c-0.292,0-0.584,0-0.876,0
		C160.703,42.241,164.008,42.147,165.114,44.253z M170.369,41.188c0.292,0,0.584,0,0.876,0c0-0.584,0-1.168,0-1.752
		c-0.292,0-0.584,0-0.876,0C170.369,40.02,170.369,40.604,170.369,41.188z M176.939,42.939c-0.022-1.73-0.898-2.606-2.628-2.628
		C173.902,42.473,174.778,43.348,176.939,42.939z M156.354,43.377c0.343-0.304,0.975-2.444,0-2.628
		C156.011,41.053,155.379,43.193,156.354,43.377z M168.18,42.063c-0.124,1.145,0.16,1.884,1.314,1.751
		c-0.18-1.055,0.8-0.952,0.438-2.189C169.104,41.527,168.965,42.119,168.18,42.063z M151.975,43.815
		c1.115-0.053,1.698-0.637,1.752-1.751C152.355,41.86,151.771,42.444,151.975,43.815z M173.873,44.253
		c0.266-1.727-0.98-1.94-2.19-2.19C171.933,43.273,172.147,44.52,173.873,44.253z M185.26,51.699
		c0.203-1.371-0.381-1.955-1.752-1.752C183.659,50.964,183.792,51.999,185.26,51.699z M190.954,53.451
		c-0.833,0.918-3.249,0.255-2.627,2.627c1.905,0.007,3.94,0.145,5.255-0.438c0.006-3.072-2.865-3.267-3.504-5.693
		c-0.583,0-1.167,0-1.751,0C188.14,51.884,188.893,52.574,190.954,53.451z"/>
	<path style="fill-rule:evenodd;clip-rule:evenodd;" d="M271.978,31.552c-0.497,2.867-6.457,2.586-4.817,6.131
		c-1.684,4.142-8.51,0.495-10.074,4.818c-1.336-4.116,3.678-5.661,5.694-7.884C267.043,36.693,268.906,33.03,271.978,31.552z"/>
	<path style="fill-rule:evenodd;clip-rule:evenodd;" d="M242.634,199.732c-0.625,0.155-1.496,2.231-0.438,2.628
		c-0.705,0.957-1.441-1.741-1.314-3.066c-1.469,0.138-1.228,1.984-1.314,3.504c3.888,3.119,8.573,5.442,13.577,7.445
		c0.254,3.688,2.218,5.666,2.628,9.197c-0.892,0.568-2.638,0.282-2.628,1.752c-2.334-1.069-5.103-3.39-3.503-7.007
		c-3.791-3.801-8.431-6.753-14.891-7.884c0.403-3.977,3.285-5.475,3.066-10.073c-1.444,0.016-1.674,1.245-1.752,2.628
		c-0.975-1.653,0.679-4.113-2.19-4.38c-1.299,1.621-1.101,4.738-2.189,6.569c-1.797,0.201,0.178-0.936-0.438-2.189
		c-1.797,0.831-2.214,3.041-3.066,4.817c-0.81-0.065-0.269-1.482-0.876-1.752c-0.641,0.381-1.388,0.656-1.314,1.752
		c-0.692-0.768-0.586-2.333-0.876-3.504c-1.128,0.478-2.105,1.107-2.628,2.19c0.719,3.807,2.618,6.434,4.38,9.197
		c-0.805,2.586-1.673,7.34,0.438,9.197c-1.86,2.102-6.179,1.179-6.569-2.628c-0.207-1.375,1.179-1.157,1.313-2.189
		c-0.394-0.774-1.057-1.279-1.313-2.19c0.107-1.352,0.444-2.476,0.876-3.504c-0.417-2.503-1.675-4.164-2.628-6.131
		c-1.648-1.429-4.35-2.597-3.504-5.256c3.931-0.157,6.807-1.369,9.197-3.065c-0.539-1.943-1.961-3.003-2.19-5.256
		c-1.029,0.431-0.727,2.192-2.189,2.189c0.314-2.167,0.601-4.362,0.438-7.007c-0.563-1.226-0.906,1.379-2.19,0.875
		c0.38-1.809,1.371-3.008,1.752-4.817c-1.277-1.052-1.111-0.033-3.066-1.313c0.059-1.693,1.776-1.728,2.19-3.066
		c-0.301-2.618-1.685-4.154-4.38-4.379c0.373-0.65,1.102-0.942,2.19-0.876c0.128-1.588-2.961,0.041-2.19-2.19
		c-1.577,0.154-2.111,0.67-3.503,0c1.027-1.727-0.825-1.339-0.876-3.065c0.584,0,1.167,0,1.751,0
		c-0.781-1.623-2.167-3.744-1.314-5.693c2.554-0.046-0.124,2.433,1.752,3.065c1.245,0.076-0.529-2.865,1.314-2.189
		c0.452,5.096,7.351,3.744,7.008,9.635c9.82-3.465,12.807-13.763,22.774-17.08c1.667-1.253,2.379-3.462,3.942-4.818
		c4.98-0.891,8.575-5.918,14.015-2.628c2.439-2.318,8.561-0.412,10.511-2.189c4.848,2.452,9.577,5.021,13.577,8.321
		c-0.659-4.332,0.976-8.135,3.941-7.445c-0.129,2.818,1.129,4.826-0.875,6.132c3.074,1.427,4.519-2.206,4.379-4.38
		c0.476,0.108,0.298,0.871,0.876,0.876c5.014-2.462,4.896-12.26,0.876-15.767c4.215,1.877,6.203,5.77,5.693,10.511
		c-0.573,5.341-5.343,9.655-7.445,12.701c4.557-2.128,11.695-7.419,10.949-14.891c1.962,0.678,1.849,3.461,1.752,4.817
		c-0.454,6.397-9.093,11.531-12.701,15.329c0.571,1.181,3.232,0.271,3.504,1.752c-0.78,4.278-8.855-1.29-8.321,3.941
		c-6.165,1.426-6.34,8.843-14.015,8.759c-1.507-1.086-2.994-4.153-4.818-3.503c-1.729,2.475,1.452,3.792,2.19,5.255
		c0.978,2.344-1.803,2.734-2.19,4.818c-0.262,1.414,0.742,3.058,0.438,4.379c-0.609,2.654-2.707,4.022-4.38,5.694
		c-1.036,0.118-1.381-2.65-2.628-0.876c-1.18-0.519,0.002-2.284,0-3.066c-2.826,0.999-2.068,4.051-5.255,4.818
		c-2.058,0.495-5.24-1.079-7.445-0.438c0.823-1.51,0.823-1.117,0-2.628c1.461,0.002,1.495-1.425,3.066-1.313
		c1.773-0.168,2.016,1.196,3.065,1.752c1.37-1.259,1.496-3.76,3.941-3.942c0.842-2.752,2.589-5.943-0.438-7.883
		c-0.999,0.607-0.163,3.049-0.438,4.38c-1.188-0.855-0.922-3.165-2.189-3.942c-1.178-0.302-0.847,0.905-1.314,1.314
		c-1.497-0.84-2.089-2.583-3.066-3.942c-1.681,2.275-1.441,5.646-1.751,8.322c-1.181-1.484-2.094-0.487-2.19,1.313
		c-0.902-0.12-0.412-1.632-1.314-1.752c-1.874,0.651-0.384,2.167-0.438,3.504c-0.131,3.227-0.966,7.258-1.752,10.073
		c-1.228-0.7,0.615-1.972,0-3.504c-3.69-0.275-2.069,5.832-0.876,7.008C244.293,202.406,242.783,200.639,242.634,199.732z
		 M212.852,169.95c0.024-0.56,0.562-0.606,0.438-1.313c-0.292,0-0.584,0-0.876,0C211.924,169.267,211.942,169.705,212.852,169.95z
		 M268.913,163.819c-0.699-0.324,0.1-2.145-1.314-1.752c0.441,1.306-0.595,2.467,0,4.817c-0.519-0.129-1.654-1.764-2.189-0.438
		c0.857,0.895,0.764,2.74,2.189,3.066c1.026-1.602,3.61-1.646,5.256-2.628c-0.311-2.354,0.499-3.588,0.876-5.256
		c-0.708-0.752-1.832-1.088-3.504-0.876C269.93,161.917,269.537,162.983,268.913,163.819z M267.161,180.023
		c1.412-2.036-1.537-4.541-3.504-3.065C265.038,177.766,265.323,179.671,267.161,180.023z M267.161,184.841
		c0.553-3.187-4.119-0.518-3.942,2.627C265.752,187.13,266.914,186.261,267.161,184.841z M224.677,193.163
		c0.025-0.268,0.065-0.519,0.438-0.438c-0.049-0.534-0.131-1.037-0.876-0.876C224.308,192.364,224.164,193.091,224.677,193.163z"/>
	<path style="fill-rule:evenodd;clip-rule:evenodd;" d="M406.434,226.01c0.027,2.654-4.04,1.215-3.504,4.379
		c3.098,1.482,4.125-2.875,6.569-3.503c1.448,0.656-0.91,1.07-0.438,2.189c0.931,0.76,1.915-2.153,3.941-1.752
		c-0.154,0.575-0.771,0.688-0.876,1.313c0.244,1.781,2.021,0.124,3.066,0c0.731-0.086,1.899,1.62,2.189-0.875
		c1.238-0.362,1.135,0.617,2.189,0.438c0.595-0.136,0.363-1.097,0.438-1.752c2.128-0.229,1.934,1.862,3.941,1.752
		c1.448-0.657-0.91-1.071-0.438-2.189c1.116,1.123,2.124-0.099,2.628-0.876c1.936,0.607,3.827,0.521,5.255-0.438
		c2.242,2.857,7.019,1.065,10.073,3.504c0.656-1.836-4.089-2.033-5.255-3.504c2.5-0.827,7.044,2.212,9.197,1.752
		c-0.912-0.548-1.848-1.072-2.628-1.752c1.895-1.004,4.238,1.299,6.131,1.752c1.077-1.128-0.468-2.104-1.313-2.628
		c1.785-1.184,2.601,2.35,4.817,2.19c1.312-0.288-0.419-0.937,0-1.752c1.881,0.601,2.884,2.08,4.818,2.628
		c1.454-0.927-1.315-1.272-0.876-2.628c2.755,1.186,4.79,3.093,7.007,4.817c0.61-2.654-2.081-2.006-1.752-4.38
		c2.578,0.78,3.146,3.569,5.694,4.38c0.396-2.294-2.148-1.648-1.752-3.941c1.773-0.168,2.016,1.195,3.065,1.752
		c0.595-0.136,0.363-1.097,0.438-1.752c2.213-0.022,2.26,2.12,3.942,2.628c1.335-0.536-0.641-1.672,0.438-2.19
		c0.786-0.056,0.924,0.536,1.752,0.438c0.978-0.064-0.568-1.104,0-2.19c2.561,1.757,5.07,0.861,6.569,3.504
		c1.219-2.602,2.429-0.224,3.942,0.438c0.677-0.637,0.919-1.709,0.876-3.066c2.546,2.723,3.862-0.81,5.693,2.628
		c1.955,0.058,2.831-0.964,3.941-1.752c1.896-0.145,1.078,2.426,3.066,2.19c1.317-0.611-0.911-2.268,0.438-3.066
		c2.162,0.697,5.633,4.799,7.884,1.314c1.597,0.331-0.042,1.397,0.438,3.065c1.209-0.104,0.999-1.629,1.752-2.189
		c2.327,1.413-0.841,5.63,2.19,6.131c-2.127,2.254-1.105,7.654-2.628,10.512c-6.839-0.245-13.468,0.442-20.146,0.438
		c-6.639-0.005-14.155-0.403-20.147,0c-0.693,0.047-1.209,0.549-1.751,0.876c-4.489-1.065-12.614-2.186-18.396-2.189
		c-4.05-0.003-8.857-0.099-12.263,0.438c-3.138,0.494-10.821,1.616-15.767,0.876c-1.463-0.219-4.205-0.932-6.569-0.876
		c-5.352,0.127-10.471-0.243-15.768,0c-3.01,0.139-6.058,0.201-8.759,0.876c-8.603-1.915-15.612-0.372-25.402-0.438
		c-11.704-0.078-23.855-1.425-36.352-0.438c-0.779,0.062-0.929,0.42-1.752,0.438c-39.377,0.856-81.955,0.876-122.631,0.876
		c-20.933,0-46.78,0.209-68.761-0.438c-7.199-0.212-13.817-0.595-20.584-0.438c-10.587,0.245-19.693-0.502-31.534,0.438
		c-1.465,0.116-2.582,0.633-3.942,0.438c-0.35-0.05-1.336-0.854-1.752-0.876c-2.528-0.134-5.872,0.848-8.759,0.876
		c-3.328,0.032-7.986,0.208-12.263,0c-3.442-0.168-7.514,0.29-10.949,0c-0.188-0.017-0.311-0.829-0.438-0.876
		c-0.772-0.284-5.423-0.077-7.007,0c-9.199,0.444-22.626,1.819-30.658,1.313c-0.853-0.054-1.268,0.528-1.752,0.438
		c-1.813-0.337-3.48-1.999-5.255-2.19c0.303-1.373,1.168-0.57,2.189-0.438c2.516-1.96,0.673-5.314,0.438-8.321
		c-0.353-4.524,0.167-9.365,3.504-10.073c3.711-0.787,4.171,2.378,7.445,3.065c0.945-0.997-0.877-1.696-1.314-2.628
		c2.404-1.224,3.806,2.317,5.694,3.066c0.351-1.52-0.652-1.684-0.438-3.066c2.324,0.305,2.104,3.151,4.379,3.504
		c0.404-2.01-1.096-2.116-0.875-3.941c2.653,0.787,2.87,1.59,4.817,2.628c1.557,0.681,0.264-1.488,1.314-1.314
		c2.435,0.047,1.458,3.507,3.504,3.941c0.979-0.188,0.177-2.158,0.438-3.065c1.678,1.893,3.194,1.229,4.817,3.065
		c0.234-1.693-0.782-2.138-0.438-3.941c2.084,0.689,1.452,4.096,3.066,5.256c2.071-0.514-0.681-3.499,0.876-4.817
		c2.852,1.184,0.173,5.364,2.628,6.569c1.145-0.607-0.213-3.717,0.875-4.38c1.298,0.308,0.694,2.518,2.19,2.628
		c0.97-0.344-0.083-2.711,1.752-2.19c0.677,0.637,0.386,2.242,0.438,3.504c1.245-0.799,0.971-3.116,2.628-3.504
		c1.448,0.742,1.131,3.249,2.19,4.38c1.317-0.581,0.324-3.472,1.313-4.38c1.232-0.063,1.263,1.073,1.314,2.19
		c0.39-0.194,0.784-0.385,0.876-0.876c0.984,0.184,0.012,2.324,0.876,2.628c1.623-0.129,0.197-3.307,2.19-3.066
		c0.219,1.378-0.955,1.713,0,2.628c1.717-0.326,1.659-2.429,3.504-2.628c0.869,0.829,0.212,2.069,0,3.066
		c1.96,0.062,2.475-1.32,3.941-1.752c0.653,1.078,1.8,0.98,0.876,2.628c1.348,0.326,0.842-1.202,2.19-0.876
		c0.389,0.778,1.223,1.113,0.876,2.628c2.365,0.612,1.446-2.058,3.066-2.19c0.37,1.83-0.852,2.068-0.876,3.504
		c1.128,1.076,2.105-0.469,2.627-1.313c1.312,0.288-0.418,0.936,0,1.752c1.336-0.562,1.172-2.624,3.066-2.628
		c0.504,0.518,0.496,1.548,0.438,2.628c2.532-1.548,7.03-1.326,9.635,0.438c1.269-0.877-1.263-1.622-0.876-3.065
		c3.713-0.059,5.587-0.93,8.759-0.876c0.595-0.136,0.364-1.097,0.438-1.752c2.614,0.307,3.88,1.96,5.694,3.065
		c0.994-1.266-2.518-1.437-0.876-3.504c3.342-0.275,4.028,2.104,6.569,2.628c1.351-0.584-0.816-1.947,0.438-2.628
		c1.965,0.08,2.704,1.385,3.942,2.19c1.393-2.425,2.501-0.146,4.817,0c0.95,0.073,0.199-1.554,0.438-2.19
		c3.263-0.051,3.733,2.691,6.132,3.504c1.092-0.839-1.504-1.679-1.314-3.065c2.022,0.107,2.929,0.31,4.817-1.314
		c1.166,0.732,2.162,1.635,4.38,1.314c0.91-0.112,0.12-1.924,0.876-2.19c2.299,0.475,3.334,2.214,5.256,3.066
		c0.967-0.055,0.186-1.858,0.438-2.628c1.954,0.09,1.539,2.55,3.066,3.065c1.881,0.422,0.768-2.151,2.19-2.189
		c1.755,0.435,1.875,2.505,2.628,3.941c1.65,0.337,2.093-0.534,3.503-0.438c0.759,2.161,3.786,2.054,6.132,2.628
		c0.713-2.174-1.524-1.396-1.314-3.066c1.08-0.058,2.11-0.066,2.628,0.438c0.351-1.52-0.652-1.684-0.438-3.066
		c1.874-0.122,2.166,1.338,4.379,0.876c0.443-2.049-1.756-1.455-1.314-3.504c1.515,0.091,2.331,0.882,3.504,1.314
		c0.95,0.074,0.199-1.554,0.438-2.189c1.49,0.198,3.326,1.609,4.818,0.438c1.129-0.105-0.602-0.754,0-1.752
		c1.465,0.433,2.405,1.391,3.941,1.752c1.07-0.279,0.066-2.048-0.438-2.189c2.36-1.759,3.051,1.899,5.256,1.752
		c1.276-0.614-0.776-1.51-0.438-2.628c3.352-0.433,2.517,3.322,5.255,3.503c0.631-0.239-0.345-2.54-0.438-3.503
		c3.345-0.279,3.077,3.054,4.818,4.379c1.179-0.518-0.002-2.283,0-3.065c1.847,0.052,2.215,1.58,3.504,2.189
		c0.95,0.074,0.198-1.553,0.438-2.189c1.824,0.425,2.403,0.142,4.38,0.876c0.903-0.119,0.104-1.939,1.314-1.752
		c2.169,0.313,2.096,2.867,4.818,2.628c0.967-0.055,0.186-1.857,0.438-2.628c3.688-0.038,2.371,4.929,5.256,5.693
		c2.197-0.754-1.327-3.585,0.438-5.255c2.229-0.039,1.165,3.215,3.066,3.503c1.587,0.42,0.445-1.89,1.313-2.189
		c2.61-0.273,0.633,4.039,3.504,3.504c0.651-0.663,0.706-1.923,0.876-3.065c2.254-0.064,1.5,2.879,2.628,3.941
		c1.568-0.184,0.958-2.546,2.628-2.628c0.258,1.348,0.112,3.1,1.751,3.065c1.155,0.134,1.13-0.914,1.314-1.752
		c1.932,0.612,2.51,0.312,3.504-0.876c2.777,2.087,4.707-0.102,7.883,1.752c0.91-0.112,0.12-1.924,0.876-2.189
		c2.546,0.665,3.957,2.467,6.57,3.065c1.058-1.186-1.356-1.557-0.876-3.504c3.786,0.886,4.573,4.771,9.197,4.818
		c-0.5-2.565-3.965-2.166-3.942-5.256c0.981,0.479,2.194,0.726,3.066,1.313c0.594-0.135,0.363-1.096,0.438-1.751
		c1.922-0.024,2.347,1.448,3.941,1.751c1.249-0.995-1.49-1.691-0.875-3.503c2.084-0.188,2.711,1.084,3.503,2.189
		c1.448-0.657-0.91-1.071-0.438-2.189c2.622,0.005,2.854,2.401,4.38,3.503c1.392-1-0.566-2.318-0.438-3.503
		c2.581,0.193,4.227,1.32,7.446,0.876c-0.068,1.089,0.688,1.355,0.876,2.189c0.985-0.182-0.066-2.401,1.313-2.189
		c2.232,0.249,1.463,3.5,3.941,3.503c1.272-1.019-0.822-2.359-0.438-3.941c2.979-1.008,4.425,0.748,4.817-0.438
		c2.603,1.138,0.209,4.58,2.628,5.693c1.277-0.749-0.992-1.594-0.438-3.066c1.163,0.443,2.492,0.721,2.628,2.19
		c1.056,0.179,0.952-0.8,2.19-0.438c-0.522-2.229-3.164-2.729-4.818-2.627c-0.205-3.199,2.562-0.667,4.38-0.876
		c0.714,2.498,2.973,3.45,4.817,4.817c0.751-2.218-2.041-2.209-0.875-3.504c3.148-0.375,2.546,3.002,5.255,3.065
		c0.036-2.079-2.304-1.783-2.189-3.941c2.649,0.124,2.979,2.569,5.256,3.065c1.524-1.272-0.959-2.224-1.314-3.065
		c2.182-1.436,4.871,0.373,6.569,0.876c0.95,0.074,0.199-1.554,0.438-2.189c2.506-0.316,1.874,2.506,4.38,2.189
		c1.421-0.759-1.138-1.147-0.438-2.628c2.039-0.141,2.438,1.358,3.942,1.752c1.284-0.372-0.57-1.103,0-2.189
		c3.03-0.257,3.092,2.455,4.817,3.503c0.979-0.188,0.177-2.158,0.438-3.065c2.717,0.787,2.749,4.259,5.256,5.256
		c1.756-1.928-1.813-2.255-1.313-4.38c1.722-1.765,3.271-0.912,4.817,0.438c1.05,0.173-0.243-1.995,1.313-1.314
		c0.764,2.011,1.373,4.175,3.066,5.256c0.185-2.643-2.215-3.868-0.438-5.693c1.207,1.037,1.292,2.223,3.504,1.313
		c0.084,1.96,0.63,3.458,1.752,4.38c0.984-0.973-1.284-3.656,0.438-4.38c1.148,0.081,1.822,2.542,2.628,0.438
		c1.124,0.044,0.704,1.632,1.314,2.189c2.111,0.359,0.855-2.647,2.628-2.628c-0.255,1.714,0.376,2.543,0.876,3.504
		c1.15-0.31,0.864-2.056,1.751-2.628c0.95-0.073,0.199,1.554,0.438,2.189c1.636,0.469,1.248-1.087,2.628-0.876
		c0,1.606,0,3.212,0,4.818c2.088-0.979,1.512-4.62,3.941-5.256c0.097,1.41-0.774,1.854-0.438,3.504
		c1.613-0.431,1.72-2.368,3.941-2.19c-0.34,0.391-0.471,0.989-0.438,1.752c1.752,0.141,1.762-1.883,1.752,0.876
		c1.742-0.382,2.2-0.382,3.942,0c0.146-1.721-2.729-1.87-1.314-3.504c2.15,0.04,1.953,2.428,3.942,2.628
		c1.429-0.993-1.382-2.9,0-3.941c2.04,0.149,1.892,2.487,3.065,3.504c1.482-0.945-0.898-3.032,0.438-3.941
		c1.78-0.175,1.348,1.863,2.628,2.189c1.04-0.274-0.067-2.696,0.876-3.065c1.408,0.928,1.209,3.463,3.066,3.941
		c0.789-0.57-0.55-2.367,0.438-3.504c1.819,0.225,1.584,2.504,2.628,3.504c0.651-0.663,0.705-1.922,0.876-3.065
		c1.968,1.287,2.411,1.287,4.38,0c-0.186,0.915,0.3,1.159,0.438,1.751c1.763,0.303,1.076-1.844,2.628-1.751
		c0.34,0.974,0.253,2.374,1.313,2.627c0.976-0.922,0.378-3.418,2.19-3.503c-0.192,1.505,0.173,2.454,0.438,3.503
		c2.053-0.283,1.741-2.931,3.066-3.941c0.993,0.466,0.167,2.753,0.438,3.941c2.031-0.45,2.406-2.557,3.942-3.503
		c1.284,0.372-0.57,1.102,0,2.189c1.601-0.005,2.346-0.865,3.065-1.752c1.087,1.401-1.179,3.185-0.438,5.693
		c1.706-0.441,0.068-1.507,0.438-3.065c1.182-1.592,3.599-1.949,4.38-3.941c2.021,0.326-1.521,1.731-1.314,3.065
		C403.233,229.508,404.536,226.313,406.434,226.01z M266.722,230.389c0.205-2.103-1.405-2.39-2.628-3.065
		C262.958,228.888,265.497,229.806,266.722,230.389z M271.102,229.952c-0.584,0-1.168,0-1.752,0
		C268.587,231.92,271.25,231.11,271.102,229.952z"/>
	<path style="fill-rule:evenodd;clip-rule:evenodd;" d="M202.779,48.195c-0.045,1.56-2.21,1.002-2.189,2.628
		c1.376,1.396,3.028-1.134,4.379,0c0.975,1.317,0.517,1.528,0.438,3.504c5.121,1.11,10.707-4.26,15.767-0.876
		c-0.131,1.183-1.843,0.785-2.19,1.751c0.213,1.477,3.492,1.444,2.19,3.066c-5.227,0.847-4.448-4.312-9.198-3.941
		c-0.339,0.978,2.188,1.561,0,1.751c1.274,3.225,8.817,2.116,7.446,6.57c-1.654,0.193-2.056-0.864-3.066-1.314
		c-0.988,0.326-0.171,2.457-0.438,3.503c-2.894,0.12-3.323-2.225-4.379-3.941c0.42-0.748,1.375-0.96,2.189-1.314
		c-0.749-1.314-1.594-0.486-3.065-0.438c-1.498,0.901-0.235,2.284-0.876,3.504c-1.551,0.237-1.077-1.551-2.628-1.314
		c-0.966,0.639-0.348,2.864-1.314,3.503c-2.069-0.704-2.297-3.25-2.19-6.131c-2.849,0.959-3.369-0.743-5.255-1.752
		C199.301,54.428,199.015,47.497,202.779,48.195z"/>
	<path style="fill-rule:evenodd;clip-rule:evenodd;" d="M400.741,77.101c0-0.438,0-0.875,0-1.314c1.88-1.355,2.036-0.014,4.38,0
		c4.609-2.106,9.181-4.25,12.263-7.883c-4.901-1.324-7.221,6.165-13.139,2.628c-0.054-2.097,1.459-2.628,3.503-2.628
		c0.257-1.538-2.069-1.44-0.876-2.627c0.354-0.377,1.2-0.261,1.314-0.876c2.248,0.087,2.756,1.915,3.941,3.065
		c1.567-1.206,4.693-0.854,7.445-0.876c4.539-3.337,7.935-8.786,12.701-11.825c2.155-1.374,5.119-2.166,7.884-3.503
		c3.757-1.819,8.784-4.441,15.329-4.38c2.984,0.028,4.976,0.828,7.007-1.314c0.679-0.715,1.924-2.631,2.628-3.941
		c2.023-3.764,2.231-6.206,6.569-8.759c2.575-1.516,3.013-2.706,6.132-4.38c2.285-1.226,4.462-2.063,7.445-3.066
		c5.188-1.744,10.573-0.727,19.271-0.876c-0.567-1.476-2.56-1.528-3.503-2.627c-4.838,1.447-9.038-2.187-7.446-7.008
		c2.104-0.207,1.967,1.83,3.066,2.628c1.931-0.113,2.117-1.971,2.628-3.504c1.681,1.968,4.161,3.138,5.693,5.256
		c-0.562,0.752-2.619,0.009-2.628,1.314c2.412,4.693,9.141,0.728,12.701,0c2.234,5.455-6.852,2.963-7.445,7.007
		c0.858,1.185,4.354-0.267,5.255,0.876c-0.11,1.787-2.396,1.399-3.065,2.628c0.521,1.669,1.164,3.215,1.752,4.817
		c1.876,0.27,1.786-1.426,3.504-1.314c2.244,3.341-1.265,6.74,0,10.073c-2.404,0.728-3.367-3.082-6.132-2.189
		c-0.41-2.6,1.196-3.184,1.752-4.818c-0.007-1.599-1.245-1.967-1.752-3.066c-1.842-0.09-1.84,1.665-3.504,1.752
		c-0.056-3.01-2.23-3.901-4.817-4.379c0.924-2.726,5.218-2.082,6.132-4.818c-2.741-0.696-7.596,2.134-11.388,0.438
		c-1.333,0.273-2.239,0.973-2.189,2.628c-4.299,0.91-7.538,3.375-10.512,5.693c-1.899,1.481-3.468,3.23-4.817,5.256
		c1.6,4.693-2.311,6.803-2.189,11.387c5.797,0.456,11.379,4.591,15.767,7.883c8.98-0.075,14.598,3.213,16.643,10.073
		c1.054,1.867,4.148,1.691,5.256,3.504c-2.023,1.169-2.085,3.037-2.19,5.255c-1.695,0.236-1.803-1.116-3.065-1.314
		c-0.894,0.566-0.796,2.124-2.628,1.752c-0.971-1.949,0-5.839-0.876-7.883c1.08,0.058,2.11,0.066,2.628-0.438
		c-1.958-6.071-6.947-9.111-14.453-9.635c0.645,3.341,3.023,4.55,3.066,7.883c0.044,3.411-2.84,6.576-2.628,10.511
		c0.126,1.626,2.317,1.187,2.189,3.066c-1.146,1.044-3.89,0.489-4.817,1.752c1.077,2.058,3.449,2.051,4.817,3.941
		c0.744,1.028,0.275,2.885,1.752,3.504c-0.754,2.687,1.624,3.964,0.438,5.693c-1.998,0.538-1.384-1.536-2.628-1.751
		c-1.119,0.049-0.869,1.466-0.876,2.627c-1.427-1.017-2.276,1.432-3.941,0c-0.236-1.987,0.88-2.624,1.313-3.941
		c-0.009-1.305-2.066-0.562-2.628-1.314c0.979-2.086,3.829-2.303,4.817-4.38c-0.604-2.023-2.8-2.456-5.693-2.19
		c-0.945-1.829-2.215-3.333-4.817-3.503c0.101-1.506,1.303-1.909,2.628-2.19c-0.861-1.564,0.137-2.404,1.313-3.066
		c2.188-0.437,2.144,1.36,3.941,1.314c1.422-0.33,1.045-2.459,1.752-3.504c-2.156,0.437-5.51,0.153-7.883-0.438
		c-0.562-1.729,1.275-1.06,1.313-2.189c0.188-1.209-1.633-0.411-1.752-1.314c0.011-2.326,3.823-0.849,5.256-1.752
		c1.229,1.106,0.365,4.307,2.628,4.38c2.24-1.707,2.314-5.401,1.752-7.446c-0.316-1.15-2.211-3.675-3.504-5.255
		c-1.831-2.239-4.157-3.343-7.445-5.256c-2.989-1.739-4.783-3.147-9.197-2.19c-2.198,3.934-4.021,8.243-7.008,11.387
		c1.627-0.271,2.004-1.792,4.38-1.314c0.37,1.966,0.938,3.734,0.876,6.132c-2.342-0.152-2.233,2.146-3.941,2.628
		c0.177-2.951-3.836-1.712-5.694-2.628c-0.561-1.729,1.276-1.06,1.314-2.19c-2.892,0.583-6.399,6.581-4.817,10.511
		c1.061,0.317,5.184-3.232,6.131,0.438c0.42,1.587-1.891,0.445-2.189,1.314c0.229,1.376,0.769,2.443,1.313,3.504
		c0.185,1.499-1.312,1.316-1.752,2.189c0.045,1.351,1.497,4.44-0.876,4.38c-1.587,0.419-0.445-1.891-1.313-2.19
		c-2.026-1.185-3.187-3.237-6.569-3.066c0.986-2.079,2.444-3.687,4.817-4.379c0.207-1.847-1.194-2.768-1.313-4.38
		c-0.273-3.667,2.274-6.354,3.941-8.759c8.653-4.486,11.367-14.911,15.329-24.088c0.204-1.373-1.102-1.235-1.752-1.752
		c4.216-6.149,8.881-11.85,16.643-14.453c-2.689-0.493-8.166,0.004-9.636,2.19c-4.687,0.13-6.477,3.159-9.635,4.817
		c-2.364,4.351-6.941,6.49-7.445,12.701c-1.923,1.143-3.523,2.608-4.818,4.38c-0.369,1.83,0.852,2.068,0.876,3.503
		c-3.983,9.301-10.465,16.105-17.519,22.336c3.068-0.312,5.352-0.581,7.445,0.876c-0.17,1.874-2.001,2.086-3.941,2.19
		c-1.22,1.271,1.438,1.136,0.876,3.066c-3.603-0.683-1.604,4.235-3.941,4.817c-2.378,0.334-2.059-2.029-3.066-3.066
		c-2.388-0.49-1.515,2.281-3.065,2.628c-2.885-1.155-0.416-5.54,0.438-7.007c-3.932,0.833-7.064,4.641-12.7,5.693
		c-1.768,0.33-4.368,2.398-7.446,2.19c-0.132,1.592,2.336,0.585,3.066,1.314c0.122,1.583-1.918,1.001-2.628,1.752
		c0.708,1.774,2.782,2.181,3.065,4.379c-0.637,0.644-2.866,0.644-3.504,0c-1.451,0.008-0.444,2.476-1.313,3.066
		c-2.113-0.515-2.247-3.008-5.693-2.19c-0.718-2.907,1.216-3.163,1.313-5.255c-0.759-1.228-1.147-0.412-2.628-0.438
		c0.006-0.87,1.195-0.557,0.876-1.752c-4.249,1.494-9.336,3.318-14.453,2.628c1.062,2.997,2.124,6.967-0.438,9.197
		c-1.632,0.464-1.414-0.922-2.189-1.314c-2.126-0.082-1.531,2.557-3.504,2.628c0.135-2.179-2.682-1.407-3.504-2.628
		c0.652-2.851,4.368-2.639,4.38-6.131c1.544-0.5,3.751-0.336,4.38-1.752c-8.897-1.466-20.931-0.401-24.965,5.693
		c-4.205-0.091-5.464-0.828-8.759-1.314c-1.421,0.759,1.138,1.148,0.438,2.628c-2.616,0.304-5.091,0.749-5.256,3.504
		c-2.149,0.398-1.668-1.835-3.503-1.752c-1.859,0.355-4.679,1.816-6.132,0c0.859-2.499,3.778-2.937,5.693-4.38
		c0.382-0.899-2.229-0.874-0.876-1.313c3.349-4.012,12.192,1.502,17.957,1.313c3.773-6.542,17.099-8.191,25.84-5.693
		c1.09,0.067,1.355-0.688,2.189-0.876c1.397-0.375,1.355,0.689,2.19,0.876c1.22-1.389,3.173-0.796,4.817-1.314
		c1.545-0.486,2.659-1.585,3.941-1.752c4.428-0.575,7.748,0.514,11.825-0.876c9.517-3.243,21.17-8.741,27.593-15.767
		c0.522-0.572,0.752-1.567,1.313-2.19c2.881-3.193,6.511-8.142,8.321-13.139c0.031-1.491-1.288-1.631-2.189-2.189
		c0.423-1.913,2.251-2.421,3.065-3.942c-1.814-1.441-5.205-1.375-8.321-0.876c-7.782,1.246-14.904,5.756-20.146,9.197
		c-2.229,2.734-5.611,4.316-7.008,7.883c-3.958,1.901-7.935,5.282-12.263,7.884C408.218,76.033,404.736,78.847,400.741,77.101z"/>
	<path style="fill-rule:evenodd;clip-rule:evenodd;" d="M203.217,95.496c2.261,1.996-1.685,4.51-2.627,6.131
		c0.456,2.172,3.206,2.05,4.817,3.066c4.017,6.494,10.779,10.243,16.205,15.329c0.014,2.901,1.385,4.713,0.875,7.007
		c-1.159,5.225-10.119,7.757-15.329,6.132c-2.948,1.578-4.709,4.342-7.007,6.569c0.051,5.016-1.28,8.647-3.942,10.949
		c1.605,4.281-2.534,6.086-2.19,10.512c-1.258,0.056-2.08,0.548-1.752,2.189c-1.17,1.165-3.223,1.448-3.065,3.941
		c3.459,1.105,6.324-4.619,9.635-1.751c1.13,0.979,3.107,5.186,3.065,6.569c-0.059,1.976-1.526,2.208-2.627,4.379
		c-1.237,2.439-2.699,6.874-3.066,9.636c-0.305,2.296,0.224,4.32,0,7.008c-5.028,3.293-6.065,10.577-10.073,14.891
		c-1.558-0.193-1.918-1.586-3.066-2.189c-1.271,0.334-1.136,2.075-3.066,1.751c-2.659-3.201-4.846-11.494-0.438-14.452
		c2.139-0.051,4.615,0.235,6.131-0.438c0.404-2.01-1.096-2.116-0.876-3.941c3.016-1.984,6.765-5.449,6.131-9.636
		c-2.498,0.568-3.705,2.427-5.255,3.942c-3.119-0.491-4.285,0.97-6.131,1.752c-0.802-1.242-3.29-0.799-4.818-1.314
		c-0.589-2.915-0.421-6.587-3.066-7.445c-0.352,0.231-0.711,0.457-1.314,0.438c-1.485,2.231,0.508,4.736,1.314,6.132
		c0.392,9.59-7.533,10.862-10.511,17.081c-6.785,2.445-8.274-3.912-13.139-4.817c0.742-3.347,4.373-3.804,6.57-5.694
		c1.019,0.978,3.296,1.181,4.817,0.438c0.327-3.101-2.101-3.446-1.751-6.569c-6.873-5.207-14.354,1.552-19.709,4.379
		c-3.019-1.244-7.128-2.142-8.321,1.314c1.485,1.972,4.384,0.484,6.57,0.438c5.066-0.107,8.48-0.073,10.511,3.504
		c0.596,5.828,3.154,9.693,3.503,15.767c-1.982-0.062-2.292-1.795-4.379-1.751c-1.638,1.202,1.43,2.851,0,3.941
		c-3.04,1.475-10.104-3.76-10.511-6.132c-0.496-2.884,1.568-3.665,3.065-6.132c-0.362-1.626-1.534-0.095-2.189,0.438
		c-6.182-4.015-17.872,2.775-23.65-0.876c0.227-3.715,1.879-6.005,2.19-9.636c-3.196-0.13-3.426,2.706-3.942,5.256
		c-0.854,2.519-3.193,2.989-3.066,5.256c0.233,4.15,8.028,6.535,11.825,7.884c2.403,6.485,0.772,13.706,0.876,21.897
		c-1.564-0.625-2.737-1.642-4.379-2.189c-0.659,1.239-0.272,3.523-1.314,4.38c-1.607-5.108-8.415-5.017-7.008-13.14
		c0.93-1.26,3.571-0.809,3.504-3.065c-1.162-1.869-2.456,0.174-3.942,0.438c-0.307-1.913,0.745-2.467,0.438-4.38
		c-2.179-4.245-10.662-2.186-14.015-5.256c-1.859-0.107-2.358,1.146-4.38,0.876c-0.087-1.55,0.559-2.667-0.876-4.38
		c4.054-3.392,6.253-8.638,9.197-13.139c-0.705-1.814-2.614-3.635-4.379-3.065c-1.137-2.701-2.639-4.994-3.942-7.884
		c-1.611-3.572-3.114-7.203-3.504-12.263c-0.313-4.061-0.296-7.667-2.627-10.512c-1.567-10.202,9.119-8.128,10.511-14.453
		c0.481-2.188-1.023-4.409-1.314-5.693c-1.202-5.301-1.727-9.776-5.694-12.701c-8.845-6.523-20.429,1.577-26.278,8.321
		c-0.184,2.384-0.023,3.415-0.438,4.817c-2.591-1.605,0.977-5.625,0-7.007c-0.692,1.764-2.464,4.141-2.628,6.569
		c-0.197,2.918,1.55,4.908,1.314,7.008c-3.718-0.817-1.475-6.791-2.628-9.197c-2.003,1.354-1.992,4.723-3.066,7.007
		c-2.196-2.534,3.046-6.289-0.438-7.445c0.923-2.872,2.91-4.682,4.379-7.007c-0.112-0.91-1.924-0.12-2.19-0.876
		c1.204-1.736,2.633-2.456,5.256-3.504c1.947-0.778,4.416-2.875,6.131-3.503c0.905-0.332,1.181,0.512,1.752,0.438
		c1.17-0.151,2.48-1.63,3.066-1.751c12.139-2.512,19.249,4.137,24.526,11.387c0.079,5.118,0.917,7.005,3.065,9.635
		c0.938,0.59,1.405-0.574,2.628-0.438c0.523,0.059,1.36,0.872,1.314,0.876c1.312-0.119,2.713-1.368,4.379-1.752
		c5.69-1.311,12.612-0.891,18.833-1.752c5.892-0.816,10.838-2.187,18.395-2.628c2.089-0.122,4.625-0.093,6.131-0.438
		c2.311-0.53,5.274-2.618,8.322-3.942c2.982-1.295,6.674-2.229,8.759-3.503c3.701-2.262,6.801-6.435,8.321-9.635
		c-1.68-1.252-2.829,1.055-4.38,1.314c-4.968,0.297-7.253-2.09-10.511-3.504c3.558-3.849,8.968-9.437,15.767-6.131
		c0.872-0.442,1.871-0.757,2.19-1.752c-1.404-3.122-5.974-3.078-6.132-7.445c2.947,0.994,5.643,2.241,8.759,3.065
		c1.966-1.641,3.122-1.789,7.884-1.752c1.581,0.012,3.355-0.179,4.379,0c1.828,0.32,2.746,1.477,4.38,1.314
		C200.482,98.749,201.428,96.961,203.217,95.496z M60.439,123.087c-1.239,2.125-4.73,4.312-4.38,6.569
		c2.223-2.156,4.458-4.301,6.57-6.569C61.899,123.087,61.169,123.087,60.439,123.087z M63.505,125.715
		c1.747-0.296,2.455-1.632,3.503-2.628C64.94,123.063,64.52,124.686,63.505,125.715z"/>
	<path style="fill-rule:evenodd;clip-rule:evenodd;" d="M54.746,164.694c1.727-0.559,1.138,1.199,1.752,1.752
		c3.04,0.318,5.911,0.805,6.57,3.504c1.261,0.053,2.867-0.239,3.503,0.438c0.169,1.629-2.109,0.811-2.19,2.189
		c-0.284,1.744,2.584,0.336,2.19,2.19c-0.584,0.729-2.481,0.146-3.065,0.875c0.256,2.738-0.394,4.571-1.314,6.132
		c-0.876,0-1.752,0-2.628,0c-0.847-0.905-1.067-2.437-1.752-3.504c-1.497,0.547-2.042,2.046-1.752,4.38
		c-0.352-0.231-0.711-0.457-1.314-0.438c0.071,2.557,1.486,3.77,1.314,6.569c-2.114-0.654-1.828,1.092-1.752,2.628
		c-1.717-0.765-0.063-4.9-1.751-5.693c-1.283,0.614-1.347,2.448-1.314,4.379c-1.052,2.948-5.743,5.635-6.57,8.76
		c-0.934,3.531,2.066,5.09,6.57,4.38c3.201-0.505,5.649-2.956,7.883-3.942c1.931,0.551,2.812,2.152,2.628,4.818
		c-1.774-0.631-4.459-1.453-6.57-0.438c-1.743,0.301-1.04,3.048-3.065,3.066c-0.818-0.779,0.355-1.113,0-2.628
		c-1.888-0.574-0.543,2.085-2.19,1.752c-0.365-2.275-4.967-0.88-6.132,0c-1.133-0.619-2.088-1.416-1.751-3.504
		c-6.101,1.053-6.632,7.675-6.57,14.891c0.385,1.221,1.759,1.452,3.066,1.752c-0.4,0.768-0.814,1.521-2.19,1.313
		c0.928,0.44,2.624,1.267,1.314,2.628c-1.283-0.907-2.38-1.999-3.066-3.504c-1.324,0.663,0.363,1.923,0,3.066
		c-1.963-0.043-2.006-2.571-0.876-3.504c-0.432-2.126-2.642-2.511-4.817-1.752c-0.351-3.596,4.019-0.337,5.255-1.752
		c0.13-1.882-2.078-1.426-2.627-2.628c0.636-1.298,1.708,0.577,3.065,0c0.304-2.931-1.01-4.245-2.19-5.693
		c0.772-1.271,2.357-1.73,2.628-3.504c-2.617-1.032-4.996-2.304-7.007-3.941c-2.539-0.203-3.086,1.585-5.694,1.313
		c-0.743-2.057,2.058-0.57,1.314-2.628c0.074-0.949-1.553-0.198-2.189-0.438c1.286-2.027-1.595-2.482-0.438-4.38
		c1.021,0,2.043,0,3.065,0c-1.763-3.424-4.55,0.527-6.569-0.438c-0.455,2.216-1.962,3.811-0.438,5.693
		c-6.047,0.688-5.366-6.777-2.628-9.197c-0.919-3.392,0.628-6.952,2.19-9.197c-4.466-1.396-3.465,6.458-6.569,7.883
		c-1.017-1.831-0.585-3.229,0-5.255c-1.397-0.376-1.355,0.688-2.19,0.876c-0.166,2.938,0.911,4.637,2.628,5.693
		c-2.975,3.721-6.597-1.365-5.256-6.132c3.146-4.592,7.791-7.684,11.387-11.825c9.947-2.07,15.847,3.323,14.891,13.577
		c4.3,2.184,9.061-2.167,13.139-3.065c0.644-1.666-1.958-0.086-1.314-1.752c0.534-0.795,3.85,0.543,3.942-1.752
		c-0.339-1.589-2.823,1.467-2.628-0.876c2.878-0.188,5.28-0.852,6.132-3.065c2.713-0.061,4.106-1.441,5.693-2.628
		c-0.364-1.826-3.11-1.27-3.941-2.628c-0.408-1.843-0.133-2.1-0.876-3.941c1.694-0.381,1.558,1.069,2.627,1.313
		C54.675,166.375,54.885,165.71,54.746,164.694z M19.271,175.206c5.11-0.585,5.417,3.634,8.759,4.817
		C29.105,176.413,22.714,172.942,19.271,175.206z M17.519,181.775c-0.226,1.565,3.928,1.002,4.379,0.438
		C21.415,180.784,18.679,181.346,17.519,181.775z M16.643,188.783c2.356,0.166,3.97-0.409,4.38-2.19
		c-0.841-1.203-2.052-2.036-4.38-1.751C15.846,186.336,16.702,186.945,16.643,188.783z M18.395,191.411
		c1.961-1.119,3.946-1.941,6.131-1.752C22.997,187.081,18.924,189.118,18.395,191.411z"/>
</g>
</svg>
