<?xml version="1.0" encoding="utf-8"?>
<!-- Generator: Adobe Illustrator 13.0.2, SVG Export Plug-In . SVG Version: 6.00 Build 14948)  -->
<!DOCTYPE svg PUBLIC "-//W3C//DTD SVG 1.1//EN" "http://www.w3.org/Graphics/SVG/1.1/DTD/svg11.dtd" [
	<!ENTITY ns_extend "http://ns.adobe.com/Extensibility/1.0/">
	<!ENTITY ns_ai "http://ns.adobe.com/AdobeIllustrator/10.0/">
	<!ENTITY ns_graphs "http://ns.adobe.com/Graphs/1.0/">
	<!ENTITY ns_vars "http://ns.adobe.com/Variables/1.0/">
	<!ENTITY ns_imrep "http://ns.adobe.com/ImageReplacement/1.0/">
	<!ENTITY ns_sfw "http://ns.adobe.com/SaveForWeb/1.0/">
	<!ENTITY ns_custom "http://ns.adobe.com/GenericCustomNamespace/1.0/">
	<!ENTITY ns_adobe_xpath "http://ns.adobe.com/XPath/1.0/">
]>
<svg version="1.1" id="elephant_climbing_xA0_Image_1_" xmlns:x="&ns_extend;" xmlns:i="&ns_ai;" xmlns:graph="&ns_graphs;"
	 xmlns="http://www.w3.org/2000/svg" xmlns:xlink="http://www.w3.org/1999/xlink" x="0px" y="0px" width="147.062px"
	 height="186.684px" viewBox="0 0 147.062 186.684" enable-background="new 0 0 147.062 186.684" xml:space="preserve">
<metadata>
	<sfw  xmlns="&ns_sfw;">
		<slices></slices>
		<sliceSourceBounds  x="68.355" y="114.091" width="147.062" height="186.684" bottomLeftOrigin="true"></sliceSourceBounds>
	</sfw>
</metadata>
<g>
	<path fill-rule="evenodd" clip-rule="evenodd" d="M101.445,2.334c1.237,0.123,1.578,1.142,1.68,2.4
		C101.917,4.669,101.282,2.998,101.445,2.334z"/>
	<path fill-rule="evenodd" clip-rule="evenodd" d="M88.245,12.415c-0.056,0.744-0.851,0.749-1.439,0.96
		c-3.215,2.225-4.465,6.416-6.48,9.84c-2.358-0.167-0.592-3.056,0.24-3.6c0.018-1.583,1.098-2.103,1.2-3.6
		c1.784-1.495,2.751-3.809,5.279-4.56C87.629,11.59,88.28,11.66,88.245,12.415z"/>
	<path fill-rule="evenodd" clip-rule="evenodd" d="M77.445,23.694c1.328-0.048,2.299,0.261,2.16,1.68
		C78.413,25.966,77.34,25.116,77.445,23.694z"/>
	<path fill-rule="evenodd" clip-rule="evenodd" d="M78.885,26.095c-0.153,1.767-1.438,2.403-2.16,3.6
		c-0.704-0.016-0.892-0.548-1.2-0.96C76.418,27.75,77.143,25.445,78.885,26.095z"/>
	<path fill-rule="evenodd" clip-rule="evenodd" d="M74.565,30.175c-1.076,0.043-1.733,0.506-2.16,1.2
		c-1.011-0.381-2.143-1.268-1.92-2.16C70.903,27.537,74.45,28.019,74.565,30.175z"/>
	<path fill-rule="evenodd" clip-rule="evenodd" d="M100.005,28.734c1.019,0.021,1.513,0.567,1.439,1.68
		C100.237,30.583,99.863,29.917,100.005,28.734z"/>
	<path fill-rule="evenodd" clip-rule="evenodd" d="M44.805,33.055c0.431-0.031,0.506,0.293,0.96,0.24
		c-0.462,3.662,1.138,5.262,1.44,8.16c-1.218-0.058-2.267-2.267-2.64-3.84C44.197,36.067,44.261,34.165,44.805,33.055z"/>
	<path fill-rule="evenodd" clip-rule="evenodd" d="M79.845,38.814c1.528-0.009,1.311,1.81,0,1.92
		C79.496,40.044,79.174,39.319,79.845,38.814z"/>
	<path fill-rule="evenodd" clip-rule="evenodd" d="M88.965,40.734c2.667-0.027,3.708,1.572,4.8,3.12
		c2.277,0.319,6.86,1.188,6.72,3.6c-0.043,0.743-0.701,1.781-2.16,1.68c-0.597-0.364-0.851-1.069-0.72-2.16
		c-3.172-0.429-5.448-1.752-6.48-4.32c-0.641-0.399-1.34-0.74-2.159-0.96C88.965,41.375,88.965,41.055,88.965,40.734z"/>
	<path fill-rule="evenodd" clip-rule="evenodd" d="M49.365,42.655c-0.106-0.214-0.21-0.43-0.48-0.48
		C48.877,39.409,52.03,42.562,49.365,42.655z"/>
	<path fill-rule="evenodd" clip-rule="evenodd" d="M48.405,42.655c0.231,1.271-0.452,1.628-1.2,1.92
		c-0.149,1.131-0.573,1.987-1.44,2.4c-1.083,0.202-1.199-0.562-1.92-0.72c-1.142,0.378-1.385,1.655-3.36,1.2
		c-0.125-0.355-0.355-0.605-0.48-0.96c0.382-1.538,2.069-1.771,3.12-2.64c0.826,0.133,0.139,0.928,0,1.44
		c0.737,0.508,0.671-0.427,0.72-0.48c0.755-0.814,1.419-1.136,1.68-2.4C46.477,42.503,47.825,42.195,48.405,42.655z"/>
	<path fill-rule="evenodd" clip-rule="evenodd" d="M98.805,52.015c0.644,3.023-3.64,5.265-4.561,2.4
		C95.438,53.347,97.042,51.019,98.805,52.015z"/>
	<path fill-rule="evenodd" clip-rule="evenodd" d="M45.045,64.734c-2.128,0.192-1.726,2.915-3.36,3.6
		c-1.084-1.56,1.297-3.173,1.92-4.56C44.501,63.679,45.013,63.966,45.045,64.734z"/>
	<path fill-rule="evenodd" clip-rule="evenodd" d="M46.005,65.935c0.605,0.834,1.496,1.384,1.68,2.64
		c-1.111,0.151-1.732-0.188-2.16-0.72c-0.868,0.572-0.806,2.074-2.4,1.92C43.138,67.547,43.893,66.062,46.005,65.935z"/>
	<path fill-rule="evenodd" clip-rule="evenodd" d="M112.725,67.135c-0.027,0.613-0.44,0.84-0.72,1.2
		C109.705,68.337,111.64,65.594,112.725,67.135z"/>
	<path fill-rule="evenodd" clip-rule="evenodd" d="M111.525,70.975c-0.97,0.943,0.165,2.036-0.24,2.88
		c-1.715-1.058-3.747-2.9-3.84-4.8C109.63,68.292,110.877,69.517,111.525,70.975z M109.845,70.975
		c0.013-0.413-0.185-0.615-0.48-0.72C109.352,70.667,109.549,70.87,109.845,70.975z"/>
	<path fill-rule="evenodd" clip-rule="evenodd" d="M112.245,75.055c1.028-0.068,1.062,0.859,1.2,1.68
		C112.231,76.989,112.198,76.062,112.245,75.055z"/>
	<path fill-rule="evenodd" clip-rule="evenodd" d="M25.845,95.454c1.391,2.77,3.715,4.605,5.04,7.44
		c-0.295,0.104-0.493,0.308-0.48,0.72c-1.154,0.035-0.843-1.396-1.68-1.68c-0.357,0.388,0.158,1.155-0.48,1.68
		c-2.804-1.757-1.789-7.331-6.48-7.199C21.798,93.823,23.892,95.938,25.845,95.454z"/>
	<path fill-rule="evenodd" clip-rule="evenodd" d="M93.525,106.015c-1.659,1.062-3.391-0.574-3.84-2.16
		c0.825-0.796,1.675-0.276,1.92,0.72C92.812,104.487,93.41,105.01,93.525,106.015z"/>
	<path fill-rule="evenodd" clip-rule="evenodd" d="M145.845,107.454c0.644,0.717,1.338,1.383,1.199,2.881
		c-1.593-0.394-1.732,0.666-2.88,0.72C144.553,109.683,145.067,108.437,145.845,107.454z"/>
	<path fill-rule="evenodd" clip-rule="evenodd" d="M129.044,109.854c-0.501,0.102-0.635-0.164-0.96-0.24
		C128.128,108.918,129.225,109.036,129.044,109.854z"/>
	<path fill-rule="evenodd" clip-rule="evenodd" d="M39.525,114.415c0,0.64,0,1.279,0,1.92c0.457,0.595,0.654-1.091,1.68-0.721
		c0.218,1.818-0.804,2.396-2.4,2.4c-0.176-0.225-0.436-0.363-0.72-0.48c0.403-1.971-0.977-2.827-1.68-4.319
		C37.827,112.104,38.301,113.997,39.525,114.415z"/>
	<path fill-rule="evenodd" clip-rule="evenodd" d="M9.285,123.774c0.16,0,0.32,0,0.48,0c1.45,0.303,0.898,1.854,1.2,2.641
		c1.085,2.832,3.333,4.774,5.28,7.439c1.25,1.711,2.347,3.663,3.6,5.28c1.967,2.539,3.968,4.886,5.76,7.92
		c0.554,0.938,1.424,1.912,1.68,2.64c0.588,1.677,0.331,4.134,0.96,6.24c0.267,0.894,1.051,1.768,1.2,2.64
		c0.339,1.995-0.944,4.409-0.48,6.48c0.376,1.681,2.11,2.101,2.88,3.84c-0.556,2.596,1.237,5.45-0.24,6.72
		c-2.195-0.32-1.743-4.354-1.92-5.279c-0.897-2.37-3.167-3.569-3.12-6.48c0.019-1.163,0.903-2.106,0.96-3.12
		c0.122-2.179-1.547-4.546-1.92-6.479c-0.17-0.882,0.04-2.098-0.24-3.12c-0.332-1.213-1.677-3.439-2.64-4.8
		c-1.358-1.919-3.223-3.741-4.56-5.761c-1.162-1.754-2.036-3.705-3.12-5.76c-0.08-0.152-0.093-0.726-0.24-0.96
		c-1.083-1.724-3.307-3.094-4.32-5.04c-0.732-1.407-0.653-2.791-1.2-4.32C9.285,124.255,9.285,124.015,9.285,123.774z"/>
	<path fill-rule="evenodd" clip-rule="evenodd" d="M34.965,178.494c1.062,0.022,0.77-1.31,1.92-1.199
		c0.784-0.063,0.509,0.931,1.2,0.96c0.95-0.251,1.211-1.188,2.4-1.2c0.176,0.224,0.437,0.363,0.72,0.479
		c0.121,2.041-1.471,2.37-2.88,2.881c-0.241-0.479-1.061-0.379-0.96-1.2c-2.531,0.429-3.245,2.674-5.28,3.6
		c-0.881,0.001-0.92-0.84-1.44-1.2c0.29-0.989,1.435-1.125,1.92-1.92c-0.048-0.912-1.009-0.91-0.96-1.92
		C31.935,175.909,34.753,177.343,34.965,178.494z"/>
	<path fill-rule="evenodd" clip-rule="evenodd" d="M33.765,184.734c-0.388,0.412-1.004,0.597-1.92,0.48
		c-0.807,0.553-1.057,1.663-2.64,1.439c-0.125-0.354-0.355-0.604-0.48-0.96C29.294,184.233,33.21,181.868,33.765,184.734z"/>
	<path fill-rule="evenodd" clip-rule="evenodd" d="M102.645,8.575c-0.042,2.021-1.526,3.259-0.48,5.04
		c-0.56,0.64-1.394,1.006-2.399,1.2c0.695,1.187,0.483,2.678,0.24,3.84c-2.815,0.746-3.669-2.362-5.521-3.36
		c0.299,2.138,2.207,3.481,2.88,6.48c0.541,2.41,2.563,4.221,2.641,6.24c-2.798,0.376-2.552-4.314-4.32-5.76
		c0.506-2.184-0.803-2.605-1.68-4.08c-0.742-1.247-1.107-2.849-2.641-3.36c-0.048-0.798,1.188-0.944,1.68-0.48
		c0.201-1.481-1.777-0.782-1.92-1.92c0.095-0.946,1.333-0.748,1.681-1.44c-0.084-1.756-1.396-2.284-2.88-2.64
		c-0.584-0.937-0.95-2.09-1.681-2.88c0.474-0.887,0.795-1.926,1.92-2.16c0.57,1.51-0.4,4.561,2.16,4.08
		c0.613-0.717-0.384-2.04,0-2.88c0.65-0.22,2.517,0.123,3.12,0.72c1.204-0.116,4.126-1.412,4.08,0.72
		c-1.367,0.633-3.533,0.466-5.52,0.48c0.714,1.686,3.229,1.57,4.8,2.4c2.632-1.084,8.355-5.846,2.88-7.44
		c-0.463,0.098-0.189,0.931-0.96,0.72c-3.27-1.551-6.522,1.375-9.601,0.72c-0.213-1.333,0.752-1.488,1.92-1.44
		c1.841-1.128,5.965-2.184,8.4-0.48c0.909-0.804,2.138-0.748,2.88-0.24c0.725,0.496,1.459,2.787,1.44,3.6
		c-0.037,1.588-1.745,1.762-1.44,3.36C103.628,7.798,103.703,8.752,102.645,8.575z M100.005,11.214
		c-0.275-0.755,0.376-0.583,0.479-0.96c-0.146-0.013-0.284-0.036-0.24-0.24c-0.16,0-0.319,0-0.479,0
		c0.177,1.592-0.777-0.512-0.96,0.72C99.571,10.529,99.547,11.112,100.005,11.214z M94.485,11.935
		c0.628,0.068,1.032-0.088,0.96-0.72C94.817,11.147,94.413,11.302,94.485,11.935z M96.405,13.135c-0.613-0.126-0.84-0.318-1.2,0.24
		c0.692,1.308,1.393,2.608,3.12,2.88c-0.142-0.906-1.294-2.055-0.479-3.12c0.041,0.359-0.086,0.886,0.239,0.96
		c0.438-1.353-0.777-1.292,0-2.88C96.503,10.833,97.301,12.831,96.405,13.135z M98.805,11.214c-0.017,0.003,0.015,0.223,0,0.24
		C97.666,12.757,99.958,11.011,98.805,11.214z"/>
	<path fill-rule="evenodd" clip-rule="evenodd" d="M15.045,78.175c0.608,0.391,0.248-0.229,0-0.72
		c1.012-0.801,0.445-1.779,0.96-2.88c1.334-0.666,2.017-1.983,3.6-2.4c1.518-2.002,3.116-3.924,6.24-4.32
		c0.103-0.437-0.378-1.318,0.48-1.92c1.286,0.365,2.047-0.116,3.12,0.24c0.158-0.878-0.519-0.921-0.48-1.68
		c0.85-0.67,2.096-0.944,3.36-1.2c1.62-1.82,4.173-2.707,6.48-3.84c2.113-2.207,4.333-4.307,6.24-6.72
		c0.741,0.059,1.356,0.244,1.92,0.48c0.412-0.308,0.482-0.958,0.96-1.2c0.688-0.405,1.323,1.149,1.92-0.24
		c1.423,0.983,3.604-0.033,4.56-0.96c1.097,0.024,2.435-0.194,2.88,0.48c0.437-0.284,0.189-1.251,0.48-1.68
		c2.85-0.156,4.078-3.06,6.24-3.12c0.292,2.161-2.012,3.727-3.84,4.56c-0.76,2.152-2.118,5.338-0.96,7.92
		c-0.28,0.36-0.693,0.587-0.72,1.2c-3.111,0.391-2.662-2.778-3.6-4.56c-0.988,0.612-1.091,2.109-1.92,2.88
		c-0.478-0.242-0.84-0.6-1.2-0.96c-0.842,1.531-1.455,4.12-0.96,6.24c-0.681,1.399-1.351,2.809-1.44,4.8
		c-1.251-0.155-0.931-1.858-0.48-2.64c-0.234-0.646-1.169-0.59-1.44-1.2c0.769-3.956,2.016-7.052,1.44-11.52
		c-0.892,0.628-0.467,2.573-0.96,3.6c-0.4,0-0.8,0-1.2,0c-0.58,0.788,0.02,1.831,0,2.88c-0.026,1.414,0.089,3.477-0.96,4.08
		c-0.904-0.588,0.491-2.156,0-3.84c-2.849,2.751-8.408,2.792-11.52,5.28c-1.492-0.361-2.684,0.135-3.84,0.72
		c3.964,1.775,8.882,1.609,12.24,3.6c-0.374,0.934-2.275,0.1-2.88-0.24c-0.772,0.385,0.844,0.897,0,1.44
		c-1.708-0.211-3.119-0.722-4.56-1.2c-0.995-0.275-0.936,0.505-1.68,0.48c-2.293-1.243-5.571,1.012-7.92-0.48
		c-2.577,1.023-2.646,4.555-4.56,6.24c-0.501,0.102-0.636-0.165-0.96-0.24c-2.706,1.455-2.302,6.018-4.08,8.4
		c-1.145,0.185-1.065-0.855-2.16-0.72c-0.852,0.152,0.071,1.348-0.24,2.4c-0.307,0.333-1.133,0.146-1.44,0.48
		c-1.287,3.621-1.141,9.751-2.16,14.16c-0.569,2.463-0.522,5.24-0.96,7.68c-0.115,0.642-0.603,1.249-0.72,1.92
		c-0.296,1.698-0.42,4.016-0.24,5.76c0.293,2.839,1.987,5.547,0.48,7.44c-1.82-0.101-2.354-1.485-3.36-2.4
		c-3.264,5.295-0.714,13.927,4.08,16.08c2.005,1.555,1.871,4.442,2.64,6.72c0.851,2.518,3.706,3.142,6,4.561
		c-1.049,0.951-2.7,1.3-3.12,2.88c-1.007-0.433-0.822-2.058-0.96-3.36c-0.398-0.401-1.409-0.19-2.16-0.239
		c-0.629-2.011-2.091-3.189-2.16-5.761c-4.661-2.619-5.929-8.63-8.88-12.96c0.021-3.471-1.044-5.696-0.48-9.12
		c1.274-0.854,0.839-2.184,1.2-3.6c0.651-2.551,2.441-5.098,2.88-7.68c0.173-1.02-0.12-2.043,0-3.12
		c0.098-0.886,0.614-1.794,0.72-2.64c0.333-2.675,0.38-6.272,0.24-8.641c-0.102-1.713-0.779-3.402-0.72-5.04
		c0.055-1.529,1.09-2.978,0-4.32c-1.179-0.059-0.824,1.416-2.4,0.96c-0.635-0.529-0.384-1.031-0.24-1.92
		c-0.84-3.535-1.018-6.77-0.48-10.08c0.561-0.074,0.992-0.47,1.44,0c0.673-3.327-2.755-6.748-0.96-10.08
		c0.287-0.533,0.979-1.293,1.44-1.92c1.295-1.758,2.978-3.479,4.08-5.76c1.57-3.247,3.012-5.994,4.8-8.16
		c1.549-0.291,1.999-1.682,3.12-2.4c2.097,0.257,2.496-1.185,3.6-1.92c-0.752-0.848-0.833-2.368-0.72-4.08
		c2.655-2.705,5.432-5.288,9.84-6.24c2.204-1.156,4.04-2.68,6.96-3.12c2.624-2.336,4.392-5.528,9.6-5.28
		c0.802-0.001,0.636,0.964,1.2,1.2c1.239,0.04,1.548-1.309,2.64-0.72c0.639,1.222-0.275,2.126-0.48,3.36
		c-0.494,2.977-0.288,6.534,0.72,8.88c0.469,1.092,1.793,1.659,1.2,2.88c-2.122,0.21-2.833-4.149-3.12-7.2
		c-0.139-1.474-0.443-3.589,0-5.52c-1.394-0.354-1.601,0.479-2.4,0.72c-0.674-0.286-0.646-1.273-0.96-1.92
		c-3.098,0.742-5.23,2.45-6.72,4.8c-6.017,2.864-13.152,4.608-16.8,9.84c0.715,3.926,1.622,7.658,4.08,9.84
		c1.126-0.122,1.642-0.364,2.16,0.48c4.167,0.087,5.78-2.38,8.88-3.36c1.466,2.112-1.566,3.348-3.12,4.32
		c-1.259,0.788-2.742,1.769-4.32,2.4c-4.411-1.35-6.288-5.232-8.16-9.12c-0.549,0.315-0.72,1.28-0.72,1.68
		c0,3.593,5.417,4.877,5.52,8.88c-0.467,0.493-0.749,1.171-1.68,1.2c-0.077,0.563-0.379,0.901-0.24,1.68
		c-0.735,1.644-2.284,2.29-3.36,3.84c-0.977,1.408-1.016,3.424-1.92,4.8c-0.669,1.019-2.107,1.447-2.88,2.4
		c-0.699,0.862-0.558,1.973-1.44,2.64c0.245,1.115,1.289,1.431,0.96,3.12c-0.56,0-1.12,0-1.68,0c0.553,0.486,0.786,1.294,1.44,1.68
		c-0.452,0.588-0.814,1.266-0.96,2.16c0.055,0.825,0.714,1.046,1.44,1.2C13.023,80.031,13.859,77.333,15.045,78.175z M12.645,51.055
		c-3.137,1.343-3.181,5.779-5.28,8.16c-0.11,2.377-0.191,3.667-0.24,5.76c0.916,0.524,1.039,1.841,1.44,2.88
		c-0.074,0.566-0.833,0.447-0.72,1.2c0.318,1.635-1.015,3.401,0.48,4.32c1.182-0.258,1.171-1.709,1.44-2.88
		c1.361-1.199,1.973-3.147,3.12-4.56c0-0.56,0-1.12,0-1.68c2.454-1.786,4.216-4.264,6.96-5.76c0.106-2.134,1.896-2.585,3.12-3.6
		c-2.298-2.421-4.74-4.7-6-8.16C14.134,46.784,13.512,49.042,12.645,51.055z M48.405,65.214c1.28-0.975,1.453-3.636,1.68-4.8
		c0.318-1.625,0.641-3.136,0.96-4.8c0.748-0.244,0.957-1.929,0.72-2.4c-0.24,0-0.48,0-0.72,0
		C49.795,57.353,49.089,60.809,48.405,65.214z M45.765,56.814c-0.017,0.003,0.015,0.223,0,0.24
		C44.625,58.357,46.917,56.611,45.765,56.814z M45.525,58.734C45.272,60.127,46.565,58.834,45.525,58.734L45.525,58.734z
		 M5.925,63.055c0-0.48,0-0.96,0-1.44c-0.24,0-0.48,0-0.72,0C5.043,62.521,4.911,62.905,5.925,63.055z M4.005,63.774
		c-0.312,0.559-0.663,1.458-0.72,2.16c-0.111,1.366,0.73,4.464,1.68,5.28c-0.021-2.015,0.33-5.104,0.72-7.44
		C5.125,63.774,4.565,63.774,4.005,63.774z M13.605,66.895c0.058-0.342,0.395-0.405,0.48-0.72
		C13.591,65.964,13.007,66.797,13.605,66.895z M36.165,68.575c-1.09-0.75-3.138-0.542-3.84-1.68c-0.436,0.65-1.448-0.133-1.92-0.24
		c0.198,0.678-0.338,0.622-0.24,1.2C32.091,67.233,34.936,69.211,36.165,68.575z M28.965,67.375c0.241,0,0.286,0.194,0.48,0.24
		c-0.023-0.377,0.032-0.833-0.48-0.72C28.965,67.055,28.965,67.214,28.965,67.375z M12.165,69.535
		c0.701,0.063,0.921-0.931,0.24-0.96C12.33,68.899,12.063,69.033,12.165,69.535z M6.405,70.015c0.306-0.284,0.102-0.907-0.24-1.2
		C6.296,69.163,5.884,70.055,6.405,70.015z M38.805,69.055c-0.42,0.066-1.197-0.676-1.44,0
		C37.979,68.794,38.509,69.784,38.805,69.055z M7.125,99.055c-1.177-5.305,0.673-11.676-0.24-19.2c-0.33,0.01-0.527-0.113-0.72-0.24
		c-0.695,5.637,0.902,11.405-0.48,16.8c1.204,2.229,0.217,5.07,0,7.68c-0.369,4.433-0.222,8.989,0.48,12.24
		C6.947,111.994,6.296,103.622,7.125,99.055z M6.885,79.615c0.295-0.871,0.246-3.394,0.24-5.28c-0.361-0.569-1.011-0.24-1.2-0.48
		c0.425-0.295,0.973-0.467,1.2-0.96c-0.162-0.638-0.378-1.222-0.72-1.68c-0.269,1.171-0.414,2.466-1.2,3.12
		C7.707,74.44,5.233,79.224,6.885,79.615z M4.485,73.135c0.547,0.067,0.902-0.058,0.96-0.48c-0.563-0.077-0.537-0.743-0.96-0.96
		C4.68,72.524,4.037,72.708,4.485,73.135z M4.005,74.334c0.459-0.101,1.033-0.087,0.96-0.72C4.363,73.573,4.382,74.152,4.005,74.334
		z M11.445,74.334c0.601,0.041,0.751-0.369,0.96-0.72c-0.32,0-0.64,0-0.96,0C11.445,73.854,11.445,74.095,11.445,74.334z
		 M4.485,82.734c1.672-2.137,0.147-4.438,0.72-7.92c-1.174,0.747-1.417-0.369-2.4-0.48C2.79,76.915,2.017,81.885,4.485,82.734z
		 M9.045,75.535c0.419-0.489-0.179-0.471,0.24-0.96c-0.418,0.018-0.746-0.054-0.96-0.24C8.405,74.895,8.571,75.369,9.045,75.535z
		 M10.725,75.535C11.971,75.023,11.151,74.204,10.725,75.535L10.725,75.535z M10.005,84.175c-0.638,0.002-1.371-0.091-1.68,0.24
		c0.566,3.806-1.318,7.464,0.24,10.08c0.627-1.622,0.244-3.53,0.72-5.28c0.086-0.316,0.553-0.539,0.72-0.96
		c0.29-0.73,0.234-1.768,0.48-2.4c0.022-0.057,0.428,0.047,0.48,0c0.155-0.141-0.109-0.772,0-0.96c0.504-0.869,1.92-1.203,1.68-2.4
		c-1.925-0.075-2.051-1.949-2.4-3.6c0.438,0.41,0.949-0.461,1.2-0.96c-0.547-0.33-0.902,0.619-0.96,0
		c0.001-0.639,0.668-0.612,0.96-0.96c-0.987-0.865-2.01-0.218-3.36-0.72c0.024,1.896,0.139,3.701,0.48,5.28
		C10.215,80.993,12.488,83.173,10.005,84.175z M2.085,82.495C1.765,84.486,3.078,83.005,2.085,82.495L2.085,82.495z M2.085,125.215
		c0.564-2.556,0.891-5.35,2.88-6.48c-0.931-0.989,0.147-3.987-0.96-4.8C3.304,117.478-0.144,121.724,2.085,125.215z M7.845,120.895
		c0-0.16,0-0.32,0-0.479c0.146-0.014,0.284-0.036,0.24-0.24c-1.622-0.219-0.327-3.354-2.16-3.36
		C6.347,118.393,6.382,120.357,7.845,120.895z"/>
	<path fill-rule="evenodd" clip-rule="evenodd" d="M40.965,159.774c-0.222-3.788-2.078-7.545-1.44-12
		c0.239-1.668,1.623-4.39,1.2-7.2c-0.078-0.516-0.422-1.088-0.48-1.68c-0.195-2.001,0.396-3.986,0.24-5.52
		c-0.099-0.971-0.836-1.946-0.96-2.881c-0.143-1.077,0.274-2.205,0.24-3.359c-0.044-1.505-0.647-2.709-0.24-4.08
		c0.672-2.267,3.722-3.511,5.04-5.521c1.13,0.486,2.484-0.457,3.36,0.48c0.719-0.158-0.229-0.513,0-0.96
		c1.038,0.002,0.948,1.132,1.68,1.439c0.266-1.545-0.884-1.676-0.72-3.119c0.757,0.202,0.683,1.237,1.44,1.439
		c0.864-1.272-0.883-1.99-1.92-2.16c0.482-5.357,8.068-3.612,8.88-8.64c1.458-0.543,1.956-2.045,3.12-2.88
		c-0.337-1.025,0.465-1.178-0.24-2.16c1.93-0.55,0.84-4.119,2.88-4.56c-1.824-2.476-2.953-5.488-5.04-8.161
		c-2.486-3.183-5.128-6.29-7.92-9.36c-1.194-1.313-2.626-2.247-3.36-4.08c-1.322-1.078-2.708-2.092-3.12-4.08
		c1.521,0.606,2.399,2.176,3.36,3.36c2.896,3.57,6.266,7.106,9.36,10.8c0.086-1.875-2.583-2.995-3.12-5.04
		c-2.461-1.905-3.779-4.614-5.76-7.2c-0.574-0.75-1.854-1.425-1.68-2.64c3.416,2.824,5.024,7.456,8.64,10.08
		c0.325,0.715,0.478,1.602,1.2,1.92c0.338-1.542-1.995-2.482-2.4-4.08c-0.388-0.333-0.76-0.68-1.2-0.96
		c-1.135-2.875-4.398-4.868-4.08-8.4c1.256,0.475,0.943,1.696,1.44,2.64c0.363,0.689,0.934,1.194,1.44,1.92
		c3.129,4.487,6.641,9.069,9.84,13.68c0.458,0.451,0.434-0.142,1.2,0c1.447,2.473,3.29,4.551,5.28,6.48
		c0.489-0.151,0.067-1.213,0.96-0.96c-0.907-1.793-1.245-3.048-0.72-5.28c-0.541-0.659-1.622-0.778-1.68-1.92
		c-1.267-0.253-2.391-0.65-3.12-1.44c0.443-1.894,2.687-0.452,3.84-0.24c1.452,2.147,4.18,3.19,3.12,7.2
		c-0.051,1.149-1.491,0.909-1.2,2.4c1.64,1.104,2.587-1.386,3.84-0.72c0.533,0.653,0.149,1.926-0.24,2.4
		c0.378,0.382,1.286,0.067,1.68-0.24c0.594,0.287,0.938,0.822,1.2,1.44c3.786,1.254,5.529,4.55,9.6,5.52
		c0.995,1.565,2.416,2.704,2.64,5.04c1.189,0.412,2.673,0.528,3.36,1.44c0.254,0.895-0.505,0.774-0.72,1.2
		c0.047,0.753,0.949,0.65,0.72,1.68c-2.683,1.218-3.248-3.339-5.52-4.08c-2.347-0.267-3.802,0.358-5.28,0.96
		c-0.539-0.261-0.445-1.154-1.44-0.96c-0.74,0.353-0.506,1.947-0.239,2.641c-0.42,1.241-1.306,3.535-0.24,4.8
		c0.103,0.662-0.895,0.225-0.96,0.72c-0.17,0.89,0.41,1.03,0.24,1.92c1.841,1.039,1.865,3.895,4.56,4.08
		c0.125-0.981,1.107-2.358,2.64-2.64c-0.184-0.776-0.664-1.256-1.439-1.44c-0.942,0.338-1.072,1.488-2.4,1.44
		c-0.864-0.779-0.691-1.589,0-2.4c-0.381-0.739-1.787-0.452-1.92-1.439c0.293-1.097,2.188-1.369,2.88-0.721
		c1.139,0.019,0.19-2.05,1.44-1.92c1.011,0.029,0.238,1.842,0.479,2.641c0.267,1.253,1.235,1.805,1.44,3.119
		c4.369,0.167,7.993,0.12,12.72,0.721c-1.022-1.197-4.493,0.033-4.32-2.88c0.657-0.537,1.185,0.593,1.921,0.72
		c2.372,0.369,3.889-0.725,5.279,0c1.114-0.647,0.042-3.048,1.681-3.601c-0.071-0.95,0.293-1.467,0.72-1.92
		c-1.706-3.824-1.954-7.636-4.32-10.8c-0.074-2.006,0.049-4.209-1.439-4.8c-0.071-1.213-0.979-2.427-1.681-3.36
		c-3.795-5.05-6.729-11.033-10.319-16.08c0.283-3.207-0.836-6.973-1.92-9.6c-0.141-0.94,0.986-0.613,1.199-1.2
		c-1.956-2.204-3.84-4.479-6-6.48c-0.147-1.812-1.01-5.597,1.2-5.76c0.64,1.399-0.485,3.481,0.24,5.04
		c4.35,4.37,7.393,10.047,13.2,12.96c0.757-0.65,0.645-1.24,0.479-2.4c1.676-1.285,1.949-3.971,3.601-5.28
		c-0.307-1.133-1.776-1.104-1.92-2.4c0.524-1.664,2.943-2.617,5.04-1.92c-0.199,0.678,0.338,0.622,0.239,1.2
		c-0.349,0.451-1.57,0.029-1.92,0.48c0.751,3.105-1.187,3.811-1.92,6c0.08,0.56,0.246,1.034,0.72,1.2
		c0.335-1.252,0.908-1.896,0.96-2.88c1.762,0.655,2.49,1.523,2.4,3.12c-0.063,1.124-1.652,1.842-1.68,2.4
		c-0.01,0.198,3.083,5.645,4.8,4.8c2.017,1.993,6.412,2.854,5.52,6.96c-1.754-0.002-1.525-1.889-2.159-2.88
		c-1.178-1.838-3.037-2.544-5.28-3.36c-0.715,0.326-0.997,1.083-1.44,1.68c-2.066-0.463-3.624-1.424-5.52-1.44
		c-0.201-0.519-0.621-0.818-0.48-1.68c-1.209-0.153-1.649,0.014-2.399-0.24c0.443-2.284-0.826-2.854-1.92-3.6
		c0.183,2.336-0.915,4.375-0.48,6.24c0.28,1.203,2.788,4.14,4.32,4.8c1.06,0.457,2.91,0.345,3.84,0.24
		c0.599,0.762,1.198,1.522,2.4,1.68c-0.068,0.931,0.786,1.733,1.439,1.2c0.644-0.405-0.875-1.471,0-2.16
		c4.123,1.665,5.445,7.318,9.84,7.92c0.646,0.643-0.306,0.912-0.479,1.44c0.842,1.043,1.695-0.414,2.64,0.24
		c0.142,0.861-0.279,1.161-0.479,1.68c0.468,1.018,1.818-0.17,2.159,0.721c0.269,1.316-1.249,0.988-1.439,1.199
		c0.225,1.014,1.415,0.67,1.92,0.24c0.834,0.605,0.354,1.683-0.24,2.16c0.791,0.17,1.534,0.386,2.4,0.48
		c0.052,1.078,0.12,2.094-0.48,3.119c0.181,1.021,1.879,0.522,1.681,1.921c-1.007,0.031-1.395,0.464-1.921,0.479
		c-0.023,1.704,1.421,1.939,1.44,3.6c-1.222-0.538-2.158-1.361-3.12-2.159c-0.838,1.167,0.894,1.819,0.48,3.359
		c2.243,0.62,4.705,0.28,6.96-0.239c2.23-1.793,1.332-5.882,2.16-8.641c-0.722-3.373-0.529-6.464-2.4-9.6
		c-1.019-1.707-2.096-4.5-3.36-6.24c0.611-1.838-0.6-3.212-1.199-4.56c0.349-0.371,1.229-0.211,1.92-0.24
		c-0.17-0.63-1.127-0.474-1.44-0.96c-0.036-1.557,0.041-2.999,0.72-3.84c-0.132-1.201,0.178-2.199,0-3.36
		c-0.037-0.245-0.455-0.671-0.479-0.96c-0.037-0.429,0.486-0.857,0.479-1.2c-0.008-0.431-0.636-1.588-0.72-2.4
		c-0.1-0.969-0.069-1.859,0-2.64c0.071-0.795,0.139-2.436,0.72-3.6c0.124-0.247,0.611-0.354,0.721-0.72
		c0.3-1.011,0.434-2.175,0.239-3.36c-0.557,1.093-1.531,2.605-3.12,1.92c-0.689-1.466,0.997-1.202,1.2-2.4
		c-2.688-1.347,0.426-3.169,0.24-5.52c0.431-0.031,0.506,0.293,0.96,0.24c-0.991-2.768-1.073-5.276-3.12-7.2c0-0.48,0-0.96,0-1.44
		c-2.521-3.475-8.389-6.367-14.16-4.32c-0.514-0.526-0.659-1.42-1.199-1.92c-0.628,0.333,0.116,2.037-0.48,2.4
		c-1.366-0.592-2.687,0.361-3.84,0.72c1.006,1.874,3.291,2.469,3.6,5.04c-0.661,0.486-1.221-0.733-1.68-1.2
		c-2.374-1.066-4.703-2.177-6.96-3.36c-1.403,0.69-2.554-0.321-3.84-0.48c-0.315,0.084-0.378,0.422-0.721,0.48
		c-1.144,4.375-3.59,7.45-5.52,11.04c-0.274,0.889-0.023,1.391-0.24,1.92c-0.996,0.131-1.918-0.292-3.359-0.24
		c-2.047-4.093-4.728-12.625-8.88-14.4c-2.238-0.957-2.391,3.62-3.6,4.8c0.097,0.962,0.834,2.228,0.24,3.12
		c-3.529-0.334-2.121-5.929-2.64-8.64c0.233,0.006,0.186,0.293,0.24,0.48c0.451-0.331-0.401-1.196-0.24-1.44
		c0.419-2.301,1.992-3.448,1.92-6.24c-0.467-0.886-2.15-0.461-1.92-1.44c-0.507,3.112-1.008,8.04-3.12,10.32
		c0.659,2.041,2.61,4.271,0.72,6.48c-1.202-0.161-1.858,0.222-2.88,0.24c-0.55-0.25-0.667-0.933-1.2-1.2
		c-2.664-0.073-3.711,1.833-5.76,0.72c-0.126-1.007,0.419-1.341,0.48-2.16c1.671-0.649,3.349-1.292,3.84-3.12
		c1.894-0.585,2.841-2.119,4.32-3.12c0.993-3.008,1.223-6.777,2.64-9.36c-0.317-2.002-1.66-2.98-2.64-4.32
		c-2.226,0.224-4.269-0.506-6.24-0.24c-0.946,0.128-1.652,0.937-2.64,0.72c-1.167,0.113-0.987,1.573-2.64,1.2
		c0.011-0.411-0.178-0.622-0.48-0.72c1.324-2.996,5.781-2.859,10.08-2.88c0.35,0.53,1.285,0.475,1.44,1.2
		c2.869-1.239,4.246,2.874,5.04,5.28c2.149,0.571,2.674,2.766,3.12,5.04c0.352-0.449,0.459-1.141,1.44-0.96
		c0.756-0.037,0.467,0.973,0.96,1.2c1.307-0.187,1.872,0.369,2.64,0.72c0.391,0.569,0.532,1.388,0.72,2.16
		c1.711-0.572-0.162-1.7,0-2.88c2.416-0.126,2.286,2.451,1.92,5.04c0.863,1.102,3.491-0.314,4.319,1.68
		c-0.246,0.983-0.664,1.261-1.68,0.96c1.372,1.428,3.077,2.523,4.561,3.84c-0.241,0.959-0.488,1.912-0.721,2.88
		c1.248-0.515,2.229-3.369,3.601-4.56c0.047-0.927,0.008-1.769-0.24-2.4c1.019-0.181,1.069-1.33,1.439-2.16
		c1.526-0.897,2.622,0.071,4.08,0.48c0.08-0.879-0.267-1.333-0.479-1.92c-0.955-0.175-0.965-0.175-1.92,0
		c-1.654-0.382-1.807-1.41-2.641-2.88c-0.488-0.862-1.771-1.336-1.439-2.4c0.445-0.674,1.783-0.456,2.88-0.48
		c0.604,0.997,0.66,2.54,1.92,2.88c1.341-1.31,3.63-0.199,6-0.48c0.951,2.097,3.596,1.731,5.521,2.4
		c-1.098-2.822-3.647-4.192-5.521-6.24c-0.639-1.921-1.507-3.613-2.4-5.28c-0.656,0.224-1.023,0.737-1.68,0.96
		c0.216,1.335-0.562,1.677-1.2,2.16c0.513,0.898-0.028,1.364-0.479,1.92c-2.228,0.307-2.396-1.444-4.561-1.2
		c0.278,1.242,2.277,0.763,2.4,2.16c-0.596,0.83-1.547-0.201-2.4-0.48c-1.359,0.16-2.228-0.172-2.64-0.96
		c0.128-0.672,1.156-0.443,1.68-0.72c-0.544-0.576-2.349,0.108-2.64-0.72c0-0.4,0-0.8,0-1.2c2.712-1.144,5.394,0.957,6.72,1.2
		c0.968,0.087,0.372-1.388,1.44-1.2c-0.152-0.808-1.169-0.751-0.96-1.92c0.759,0.04,0.802-0.638,1.68-0.48
		c0.051-1.149-0.238-2.639,0.48-3.12c4.823,1.176,3.163,8.837,8.64,9.36c0.774,1.385,2.573,1.747,3.36,3.12
		c0.227,0.929-0.936,0.988-0.24,1.68c0.384,0.673,1.08-0.337,1.92,0c0.297-1.657-1.243-1.477-1.2-2.88
		c1.26-0.32,2.314,1.481,2.64,2.88c-0.439,0.649-0.812,0.042-1.199,0.48c0.259,0.528,1.632,0.523,2.399,0.24
		c0.151-1.111-1.186-0.734-0.96-1.92c1.769-0.866,2.107,1.282,3.12,1.92c5.285,0.411,9.611,4.016,12,8.4
		c0.402,0.738,0.112,2.033,0.48,3.36c0.452,1.631,1.901,3.057,2.399,4.8c0.195,0.682,0.067,1.546,0.24,2.16
		c0.168,0.597,0.669,1.085,0.72,1.68c0.266,3.076-2.146,6.013-2.16,8.88c-0.002,0.519,0.38,0.852,0.48,1.44
		c0.293,1.715-0.451,3.09,0,5.28c0.276,1.339,0.901,2.861,0.24,4.8c-0.332,0.974-1.273,1.663-1.44,2.4
		c-0.319,1.406,0.052,2.615,0.72,4.08c0.692,1.518,1.404,3.956,2.16,5.52c0.189,0.391,0.801,0.746,0.96,1.2
		c0.347,0.989,0.197,2.227,0.48,3.36c0.633,2.533,1.716,4.226,1.68,7.68c-0.038,3.655-0.718,6.594-2.64,10.32
		c0.432,0.607,1.425-0.521,1.2,0.96c0.646-1.458,3.872-0.705,4.08-1.92c0.617,0.084,1.784,0.139,1.199,0.72
		c1.419-1.354,4.498-0.153,7.44-0.72c2.012-0.388,4.414-0.552,5.04,1.92c-0.713,0.218-1.508,0.468-2.4,0.239
		c-0.251-0.063-0.19-0.497-0.72-0.479c-2.429,0.078-4.918,3.131-7.44,0.96c-0.627,0.712,0.72,1.182-0.239,1.92
		c-1.096,0.136-1.495-0.426-2.641-0.24c-1.957,2.214-5.116,1.623-8.399,1.2c-0.243-1.123,0.962-0.797,0.72-1.92
		c-1.477-0.432-2.774,1.021-4.56,1.2c-2.676,0.268-5.334-1.1-7.2-2.16c-3.28,0-4.064-2.496-6.48-3.36
		c0.577-1.183,1.849-1.671,1.92-3.359c-0.977,0.622-2.833,3.067-1.92,5.04c2.547,0.173,3.922,1.519,4.561,3.6
		c2.433-0.141,5.423-0.31,5.52,1.44c-1.879,3.116-8.822-0.598-10.08,3.359c-0.772-0.053-1.016,0.425-1.92,0.24
		c-4.083,2.32-11.372,2.008-15.84,0.479c-1.567,0.037-2.163,2.312-3.6,1.681c-0.696,0.504-0.935,1.466-1.921,1.68
		c-2.496-0.623-4.598-1.642-5.279-4.08c-1.86,0.38-2.958,1.522-4.8,1.92c0.051,1.182-0.493,2.325-0.72,3.84
		c1.788-0.211,1.804-2.195,3.839-2.159c0.56,1.807-1.588,2.639-2.879,3.359c0.157,2.877-1.156,4.284-1.2,6.96
		c-1.232,0.448-2.245,1.115-2.88,2.16c0.101,0.779,0.998,0.763,1.2,1.44c0.199,4.599-2.065,6.734-3.12,10.08
		c-0.766,0.205-0.743-0.378-1.2-0.48c-0.823,0.457-0.211,2.35-0.96,2.88c-1.48-0.593-0.435-1.494-0.72-2.64
		c-0.915,0.765-0.729,2.631-1.68,3.359c-0.819-0.376-0.656-1.021-0.48-1.92c-1.325,0.867-0.655,2.381-0.96,3.601
		c-0.656,2.618-2.638,4.906-3.36,7.68c-0.442,1.698-0.25,3.295-0.96,5.04c-0.678,0.198-0.622-0.338-1.2-0.24
		c0.231,3.47-4.34,3.896-5.04,7.2c0.289,1.231,2.706,0.334,2.88,1.68c-1.045,0.748-1.841-0.46-2.64-0.72
		c-1.201,0.107-1.283,1.109-2.64,0.48c0.101,1.179,0.684,1.876,0.72,3.12c-0.319,0.24-0.893,0.227-0.96,0.72
		c-1.651-1.093-3.787-4.091-2.16-6.24c-2.273-1.246-3.453-3.587-6-4.56c-0.197-1.157,0.453-1.468,1.2-1.681
		c0.066-0.945-1.026-0.733-0.96-1.68c0.13-0.537,0.995-1.196,1.2-1.2c0.089-0.002,0.594,0.417,0.48,0.48
		C40.195,160.975,40.258,160.294,40.965,159.774z M65.925,33.774c-0.292,0.027-0.568,0.072-0.48,0.48c0.766-0.142,0.742,0.451,1.2,0
		c-0.34-0.62-0.02-1.9-0.96-1.92C65.511,33.069,66.099,33.041,65.925,33.774z M100.245,33.055c0.598,0.226,0.07-1.374,0-0.48
		C100.266,32.967,99.845,33.619,100.245,33.055z M94.725,36.655c0.24,0,0.479,0,0.72,0c0.067-0.628-0.088-1.033-0.72-0.96
		C94.725,36.015,94.725,36.334,94.725,36.655z M64.245,38.814c0.153-0.656-0.305-1.905-0.72-1.2
		C63.854,38.065,63.505,38.424,64.245,38.814z M73.845,39.774c0.16,0,0.319,0,0.479,0c0.269-0.346,0.259-0.585-0.24-0.72
		C74.095,39.385,73.972,39.582,73.845,39.774z M57.045,40.254c0.035-0.283,0.427-0.544,0-0.72
		C57.01,39.818,56.618,40.079,57.045,40.254z M75.285,39.535c-0.021,0.655,0.4,0.483,0,0.96c0.804,0.003,0.992-0.608,1.44-0.96
		C76.164,39.608,75.733,40.004,75.285,39.535z M58.965,41.455c-0.043-0.783,0.564-1.155-0.48-1.2
		C58.45,40.85,58.44,41.419,58.965,41.455z M76.725,42.175c0.144-0.624-0.097-0.864-0.72-0.72
		C75.839,42.1,76.501,41.918,76.725,42.175z M77.205,46.015c0.067-0.547-0.058-0.902-0.479-0.96
		C76.422,45.336,76.533,46.052,77.205,46.015z M98.805,72.655c-0.033-0.447-0.158-0.802-0.48-0.96
		C98.379,72.12,98.083,72.896,98.805,72.655z M87.765,74.575c1.031,0.169,0.78-1.249,0.24-1.44
		C87.729,73.418,87.733,73.983,87.765,74.575z M59.445,87.294c0.636,0.822,1.279,1.596,1.92,2.4c1.253,1.573,2.345,3.561,4.32,4.32
		c0.209-1.523-1.082-2.276-1.92-3.12c-2.614-2.632-5.126-5.365-6.96-8.4c-0.24,0-0.48,0-0.72,0
		C57.013,84.463,58.293,85.806,59.445,87.294z M95.685,84.175c-0.181-0.779-0.398-1.522-1.44-1.44
		C94.266,83.673,94.539,84.361,95.685,84.175z M98.805,86.334c0.184-1.144-0.818-1.102-1.44-1.44
		C97.376,85.843,97.857,86.323,98.805,86.334z M101.925,87.774c0.159,0,0.319,0,0.479,0c0.014-0.307,0.308-0.332,0.24-0.72
		c-0.359,0.041-0.886-0.086-0.96,0.24C101.872,87.348,101.964,87.496,101.925,87.774z M106.485,93.295
		c-1.354,1.597-2.763-0.223-4.32-0.48c1.261,3.521-2.176,4.99-1.439,7.92c1.172-0.527,1.033-1.551,1.2-2.64
		c1.221-0.778,1.658-2.342,2.88-3.12c2.143-0.143,3.605,0.395,3.84,2.16c-0.677,1.083-1.344,2.177-3.12,2.16
		c0.08,0.959-0.428,1.332-0.24,2.399c1.315,0.685,2.443,1.557,3.36,2.641c1.534-0.504,2.956-0.039,4.08-1.2
		c0.786,0.39,0.917-0.055,1.92,0c0.304-0.576,0.721-1.039,0.96-1.681c-1.771-5.748-7.294-7.745-10.08-12.479
		C104.87,90.494,106.286,91.847,106.485,93.295z M62.565,93.295c-0.01,0.859,0.435,2.137,1.44,2.64
		c0.982-2.089-0.807-2.585-1.68-3.6c-0.995-1.158-1.318-2.491-2.4-2.88C60.485,91.054,61.514,92.186,62.565,93.295z M100.485,92.334
		c0.065-0.495,1.062-0.057,0.96-0.72c-0.833-0.607-1.15-1.73-2.16-2.16C99.565,90.534,99.765,91.695,100.485,92.334z
		 M66.405,104.095c-4.044,3.556-4.821,10.379-9.12,13.68c-0.942,0.338-1.913,0.646-2.16,1.68c0.858,0.662,1.436,1.604,1.68,2.881
		c4.723,2.345,0.886,7.066,1.92,11.52c0.791,0.592,1.241,1.642,1.44,3.12c0.151,1.125-0.681,2.919,0.48,3.12
		c0.555-0.443,0.956-1.746,0.72-2.88c0.757-0.154,0.573-1.231,0.72-1.681c0.623-1.898,1.708-3.221,3.12-4.08
		c0.659-1.854,1.505-4.142,1.2-6.239c0.658-0.782,0.59-2.29,1.2-3.12c-1.312-0.856,0.367-2.166,0-3.601
		c2.712-0.832,4.613-4.129,7.92-2.88c0.391-2.318-0.722-4.132-0.72-5.76c0.001-1.291,1.041-2.317,0.239-3.6
		c1.521-4.229,6.734,0.567,9.12-2.16c-2.652-2.227-6.258-3.502-8.88-5.76c-1.188-0.224-2.04,0.331-2.88,0.239
		c-1.926-0.21-2.661-1.855-4.32-2.399C67.546,98.836,66.965,101.455,66.405,104.095z M62.805,101.215
		c0.28,0.04,0.261,0.379,0.24,0.72c0.24,0,0.48,0,0.72,0c0.318-0.507-0.119-0.709,0.24-1.44c-0.472,0.072-0.476-0.323-0.72-0.479
		C63.493,101.048,63.453,100.773,62.805,101.215z M65.445,101.694c0-0.56,0-1.12,0-1.68C63.955,99.69,64.443,101.82,65.445,101.694z
		 M105.044,104.095c-0.131-0.349,0.281-1.24-0.239-1.2C104.625,103.45,103.849,104.012,105.044,104.095z M61.605,104.814
		c0.032-0.315,0.036-1.736-0.24-0.96C61.333,104.17,61.329,105.591,61.605,104.814z M60.405,106.734c0.372-0.185,0.372-2.77,0-2.16
		C60.743,105.492,59.778,106.322,60.405,106.734z M112.965,106.255c0.047-0.688,0.029-1.311-0.721-1.2
		C111.778,105.518,111.994,106.523,112.965,106.255z M113.205,106.015c0.565-0.006,0.707,0.413,1.44,0.24
		c0.036-0.597-0.124-0.996-0.48-1.2C114.014,105.544,112.953,105.122,113.205,106.015z M62.085,105.774c0.16,0,0.32,0,0.48,0
		c0-0.16,0-0.32,0-0.479c-0.16,0-0.32,0-0.48,0C62.085,105.454,62.085,105.614,62.085,105.774z M61.845,107.454
		c0.077-0.556-0.039-0.921-0.24-1.199c-0.24,0-0.48,0-0.72,0C60.822,107.037,61.17,107.409,61.845,107.454z M60.885,108.415
		c0-0.32,0-0.641,0-0.961c-0.24,0-0.48,0-0.72,0C60.124,108.056,60.534,108.206,60.885,108.415z M59.205,109.135
		c0.448,0.191,0.879,0.4,1.44,0.479c0.164-1.204-0.577-1.503-1.44-1.68C59.205,108.335,59.205,108.734,59.205,109.135z
		 M58.485,109.614c0.346,0.269,0.585,0.259,0.72-0.239c-0.331,0.01-0.527-0.113-0.72-0.24
		C58.485,109.295,58.485,109.454,58.485,109.614z M58.725,111.534c0.203-0.937-0.856-1.845-1.44-1.199
		C58.176,110.323,57.87,111.51,58.725,111.534z M57.285,112.734c0.051-0.29,0.267-0.147,0.48,0c0.617-1.12-0.439-1.722-1.2-2.16
		C56.501,111.598,57.048,112.012,57.285,112.734z M112.005,112.015c0.031-0.315,0.036-1.736-0.24-0.96
		c0.194,0.544-0.448,1.606,0,0.96C111.845,112.015,111.925,112.015,112.005,112.015z M118.485,111.774
		c0.422-0.138,1.41,0.29,1.44-0.24c-0.554,0.074-0.267-0.693-0.721-0.72C119.276,111.445,118.274,111.004,118.485,111.774z
		 M56.805,113.215c-0.217-1.062-0.537-2.022-1.92-1.92C55.357,112.103,55.627,113.112,56.805,113.215z M126.165,112.015
		c0.16,0,0.32,0,0.48,0c0-0.16,0-0.32,0-0.48c-0.16,0-0.32,0-0.48,0C126.165,111.694,126.165,111.854,126.165,112.015z
		 M130.725,112.494c0.204-0.704,0.604,0.312,1.2,0c0.018-0.418-0.054-0.746-0.24-0.96c-0.655-0.021-0.483,0.4-0.96,0
		C131.054,112.082,130.106,112.437,130.725,112.494z M53.205,112.734c0.578-0.479,1.162,0.419,1.68-0.24
		c-0.812,0.093-0.377-1.062-1.44-0.72C53.37,112.099,53.103,112.233,53.205,112.734z M123.765,113.454
		c0.682,0.103,1.867-0.507,1.2-0.96c-0.003,0.242-0.421,0.303-0.48,0c-0.014-0.146-0.036-0.284-0.24-0.239
		C124.451,113.021,123.867,112.997,123.765,113.454z M122.805,113.694c0.239,0,0.479,0,0.72,0c0-0.24,0-0.479,0-0.72
		c-0.16,0-0.32,0-0.48,0C123.032,113.281,122.737,113.307,122.805,113.694z M52.725,115.614c-0.427-1.013-0.46-2.42-1.92-2.399
		C51.077,114.383,51.669,115.23,52.725,115.614z M106.005,114.415c0.655-0.387-0.352-0.806-0.48-0.24
		C105.766,114.174,105.81,114.369,106.005,114.415z M103.125,115.854c0.452,0.424,1.111-0.299,1.44-0.72
		C103.658,114.973,103.275,114.841,103.125,115.854z M74.805,118.255c0.662,0.308,1.174-0.699,0.72-0.721
		C75.598,118.088,74.832,117.801,74.805,118.255z M51.285,118.975c0.24,0,0.48,0,0.72,0c-0.041-0.359,0.086-0.886-0.24-0.96
		C51.662,118.392,51.01,118.22,51.285,118.975z M72.165,118.734c-0.317-0.003-0.219-0.421-0.48-0.479
		C71.1,118.532,71.953,119.385,72.165,118.734z M53.205,125.935c-0.496-0.145-0.909-0.371-0.72-1.2
		c-0.997,0.749-0.376-0.046-1.2-0.479C50.561,125.252,52.42,127.148,53.205,125.935z M48.405,126.415
		c0.2-0.349,1.183-1.86-0.24-1.681C48.308,125.231,47.868,126.312,48.405,126.415z M57.285,126.415
		c0.521-0.549,0.087-1.498-0.72-1.44C56.045,125.523,56.478,126.472,57.285,126.415z M69.045,128.574
		c0.871-0.054,0.884-1.82,0.48-2.399c-0.32,0-0.64,0-0.96,0C68.707,127.3,68.363,128.541,69.045,128.574z M49.365,128.095
		c0.103-0.457,0.517-0.604,0.48-1.2c-0.24,0-0.48,0-0.72,0C48.999,127.508,48.807,127.734,49.365,128.095z M41.925,129.055
		c-0.219,2.156-0.146,4.44,0,6.72c0.135,2.103,0.971,4.164,0.96,6.24c-0.017,3.146-1.523,5.921-1.68,9.12
		c1.286,1.154,0.689,2.764,0.96,4.08c0.152,0.74,0.65,1.293,0.72,2.16c0.204,2.513-1.508,5.14-1.2,6.72
		c0.333,1.704,2.173,1.714,3.12,2.88c0.376,0.463,0.561,0.804,0.72,1.68c-0.199,0.601-0.658,0.942-0.72,1.681
		c0.704,0.017,0.526,0.914,1.44,0.72c1.043-2.877,3.25-4.59,3.12-8.64c2.203-0.97,0.236-4.717,2.4-5.521
		c0.05-0.851-1.126-0.474-0.96-1.44c0.537-1.703,1.644-2.836,1.68-5.039c-1.201-0.64-3.171-0.51-4.32-1.2
		c-0.728-2.082,0.278-3.876,0.96-5.28c-0.861-1.539-0.724-4.076-3.12-4.08c0.09-1.279-0.767-2.755-0.72-4.32
		c0.816-0.783,0.747-2.453,1.2-3.6c-0.19-0.609-1.47-0.13-1.44-0.96c1.458,0.104,0.297-2.377-0.48-2.88
		C43.933,129.073,43.188,129.908,41.925,129.055z M52.485,133.375c-0.14-0.567,0.54-1.247,1.44-1.44
		c-0.696-0.264-1.224-0.696-1.92-0.96C52.129,132.082,51.333,133.04,52.485,133.375z M48.885,132.415
		c-0.081-0.194-0.637-0.29-0.72,0C48.006,132.971,49.103,132.934,48.885,132.415z M63.765,134.574
		c0.733-0.173,0.875,0.246,1.44,0.24C65.139,134.019,63.983,134.008,63.765,134.574z M53.205,135.295
		c0.359-0.041,0.886,0.085,0.96-0.24c-0.317-0.003-0.219-0.421-0.48-0.48c-0.053,0.188-0.201,0.279-0.48,0.24
		c0-0.133-0.194-0.272-0.24,0C53.152,134.867,53.244,135.016,53.205,135.295z M47.685,136.734c0.345-0.614,1.024-0.896,1.2-1.68
		c-0.278-0.201-0.643-0.316-1.2-0.24C48.427,135.639,47.143,136.283,47.685,136.734z M50.565,135.295
		C49.331,135.874,51.391,135.915,50.565,135.295L50.565,135.295z M65.205,138.654c0.103-0.457,0.517-0.603,0.48-1.2
		c-0.325-0.075-0.458-0.341-0.96-0.239C64.729,137.851,64.592,138.628,65.205,138.654z M49.365,138.175
		c0.522,0.027,1.429,0.915,2.4,1.2C51.972,138.208,49.929,136.999,49.365,138.175z M49.605,140.335c0.33,0.01,0.527-0.113,0.72-0.24
		c0.96,1.521,2.754,2.206,4.56,2.88c-0.786-2.145-3.795-1.758-4.32-3.6c-0.785,0.285-2.056-0.893-1.68-0.24
		C49.231,139.428,49.249,140.051,49.605,140.335z M59.925,140.095c-0.396-0.004-0.134-0.666-0.48-0.72
		C59.24,139.863,59.654,140.865,59.925,140.095z M57.045,141.534c-0.878,0.158-0.921-0.519-1.68-0.479
		C55.064,142.097,56.86,142.419,57.045,141.534z M64.485,141.774c0.035-0.283,0.427-0.544,0-0.72
		C64.45,141.338,64.058,141.599,64.485,141.774z M60.885,142.975C61.693,143.703,61.613,142.087,60.885,142.975L60.885,142.975z
		 M53.685,148.494c0.484-0.636,1.51-0.729,1.44-1.92c-0.169-0.711-1.379-0.38-1.44-1.199c0.023-0.617,0.937-0.344,0.96-0.96
		c-1.278-0.322-1.418-1.782-3.36-1.44C51.807,145.093,51.838,147.701,53.685,148.494z M62.565,145.854
		c0.188-0.166,0.534-1.339,0-1.439C62.825,145.029,61.836,145.559,62.565,145.854z M60.645,146.574c0.138-0.146,0.562-1.138,0-1.199
		C60.507,145.521,60.083,146.513,60.645,146.574z M57.045,152.095c1.187-0.493,1.142-2.218,1.2-3.84
		c0.043-0.514,1.433-1.709,0.48-1.681C58.022,148.244,56.22,149.645,57.045,152.095z M50.325,147.534c0.24,0,0.48,0,0.72,0
		c0.031-0.431-0.238-0.562-0.72-0.479C50.325,147.215,50.325,147.375,50.325,147.534z M51.765,160.975c0.32,0,0.64,0,0.96,0
		c0-0.16,0-0.32,0-0.48c-0.241,0.001-0.286-0.194-0.48-0.239c-0.054,0.186-0.007,0.473-0.24,0.479
		c-0.071-0.212-0.48-1.22-0.72-0.479C51.622,160.317,51.559,160.781,51.765,160.975z"/>
</g>
</svg>
