<?xml version="1.0" encoding="utf-8"?>
<!-- Generator: Adobe Illustrator 12.0.1, SVG Export Plug-In . SVG Version: 6.00 Build 51448)  -->
<!DOCTYPE svg PUBLIC "-//W3C//DTD SVG 1.1//EN" "http://www.w3.org/Graphics/SVG/1.1/DTD/svg11.dtd" [
	<!ENTITY ns_svg "http://www.w3.org/2000/svg">
	<!ENTITY ns_xlink "http://www.w3.org/1999/xlink">
]>
<svg  version="1.1" id="Layer_1" xmlns="&ns_svg;" xmlns:xlink="&ns_xlink;" width="485.012" height="588"
	 viewBox="0 0 485.012 588" overflow="visible" enable-background="new 0 0 485.012 588" xml:space="preserve">
<g>
	<path fill-rule="evenodd" clip-rule="evenodd" d="M326.012,107c1.502-2.374,2.992-2.218,4-3c1.692,7.648,2.497,21.504-4,22
		C322.916,118.464,329.735,112.989,326.012,107z"/>
	<path fill-rule="evenodd" clip-rule="evenodd" fill="#FFFFFF" d="M151.012,120c3.96,9.488,3.407,27.333,1,35
		c-7.678-9.19-2.225-19.309-6-34C149.153,120.315,150.098,121.115,151.012,120z"/>
	<path fill-rule="evenodd" clip-rule="evenodd" d="M332.012,147c-0.241,1.759-1.721,2.279-4,2c1.646-5.103-2.973-3.807-2-11
		c1,0,2,0,3,0C328.168,142.927,330.625,141.098,332.012,147z"/>
	<path fill-rule="evenodd" clip-rule="evenodd" d="M263.012,166c-6.943,0.81-10.526-7.079-6-15c0.804,0.529,1.623,1.043,3,1
		C257.116,160.431,262.048,160.164,263.012,166z"/>
	<path fill-rule="evenodd" clip-rule="evenodd" fill="#FFFFFF" d="M359.012,161c-4.377,6.957-9.708,12.958-12,22
		C342.866,170.709,349.391,151.823,359.012,161z"/>
	<path fill-rule="evenodd" clip-rule="evenodd" d="M264.012,186c3.328,2.398,2.602,2.671,4,7c-3.729,1.063-1.583-3.75-5-3
		C264.757,187.961,262.267,188.039,264.012,186z"/>
	<path fill-rule="evenodd" clip-rule="evenodd" d="M347.012,197c3.035,0.314,4.058,5.648,2,8
		C347.664,202.998,345.547,198.759,347.012,197z"/>
	<path fill-rule="evenodd" clip-rule="evenodd" d="M213.012,200c-0.553,2.371-3.866,4.149-6,2
		C208.458,199.043,209.246,201.137,213.012,200z"/>
	<path fill-rule="evenodd" clip-rule="evenodd" d="M232.012,222c2.323,1.117,2.677-0.214,5,2c-0.226,1.44-2.985,0.349-3,2
		C232.252,225.759,231.732,224.279,232.012,222z"/>
	<path fill-rule="evenodd" clip-rule="evenodd" d="M285.012,237c-1,0-2,0-3,0c2.011-1.995-0.74-4.335-3-5
		c1.745-2.039-0.745-1.961,1-4c11.712,5.623,16.382,19.198,24,29c-1.183,2.693-5.214-0.004-7,0
		C297.658,250.379,283.828,244.286,285.012,237z"/>
	<path fill-rule="evenodd" clip-rule="evenodd" fill="#FFFFFF" d="M255.012,262c1.794-0.127,2.109,1.224,4,1
		c5.528,7.22,2.976,14.854-11,11C248.699,268.937,251.954,267.612,255.012,262z"/>
	<path fill-rule="evenodd" clip-rule="evenodd" fill="#FFFFFF" d="M245.012,268c5.254,1.035-2.79,3.965,0,5
		c0.274,2.693-8.817-0.004-3,0C242.421,271.758,243.152,270.092,245.012,268z"/>
	<path fill-rule="evenodd" clip-rule="evenodd" fill="#FFFFFF" d="M239.012,271c-0.615,0.89-1.208,1.789,0,2
		c0.168,2.168-3.547,0.453-5,1C234.926,272.247,235.871,270.526,239.012,271z"/>
	<path fill-rule="evenodd" clip-rule="evenodd" d="M327.012,299c-1,18.609-4.609,28.575-8,46c-13.346-6.354,2.438-17.015-1-27
		C324.154,315.976,318.696,303.5,327.012,299z"/>
	<path fill-rule="evenodd" clip-rule="evenodd" fill="#FFFFFF" d="M192.012,325c3.173,0.603,6.774,0.206,7,4
		c-1.555,3.207-4.511,1.31-9,1c0.615-0.891,1.208-1.788,0-2C190.662,326.983,192.311,326.966,192.012,325z"/>
	<path fill-rule="evenodd" clip-rule="evenodd" fill="#FFFFFF" d="M188.012,377c2.092,1.158,3.758-0.468,5,3
		c0.523,4.119-5.41,5.09-8,3C187.448,380.368,185.575,379.632,188.012,377z"/>
	<path fill-rule="evenodd" clip-rule="evenodd" fill="#FFFFFF" d="M214.012,392c-1.393-1.273-0.435-4.898-3-5
		c5.326-5.069,14.299-2.146,15,3C221.515,394.303,219.724,392.188,214.012,392z"/>
	<path fill-rule="evenodd" clip-rule="evenodd" d="M189.012,393c0.905-3.9,3.681,3.314,4,0c1.357,0.31,0.83,2.504,1,4
		C191.078,396.934,191.067,393.944,189.012,393z"/>
	<path fill-rule="evenodd" clip-rule="evenodd" d="M152.012,417c2.324,0.676,4.2,1.8,4,5
		C154.298,420.714,152.08,419.933,152.012,417z"/>
	<path fill-rule="evenodd" clip-rule="evenodd" d="M165.012,487c2.442,0.997,2.131,0.332,6,1c-0.692,1.763-1.105,3.097,0,4
		c-5.536,2.636-10.812,7.383-14,7c-1.417-2.293-5.428-7.181-4-9c1.787-0.282,2.052,0.945,1,1
		C157.555,494.748,162.215,489.714,165.012,487z"/>
	<path fill-rule="evenodd" clip-rule="evenodd" fill="#FFFFFF" d="M213.012,500c3.118,1.322,4.498-6.501,7-9
		c5.27,4.896-3.922,8.561-6,16C208.244,506.509,212.007,505.438,213.012,500z"/>
	<path fill-rule="evenodd" clip-rule="evenodd" d="M174.012,508c-3.469,2.024-4.557-3.056-3-5
		C172.987,503.691,173.678,505.667,174.012,508z"/>
	<path fill-rule="evenodd" clip-rule="evenodd" d="M174.012,521c0.162-1.172,1.823-0.844,3-1c0.857,3.19-1.574,3.093-2,5
		C170.089,523.115,176.019,520.69,174.012,521z"/>
	<path fill-rule="evenodd" clip-rule="evenodd" d="M190.012,565c-7.083,1.985-8.017,13.883-18,14c0.998-2.442,0.332-2.131,1-6
		c1.623,1.499,3.414-2.413,8-3c-2.998-2.836-5.457-0.353-10-2c-1.158-3.469,0.468-1.842-3-3c0.677-3.198,3.323-1.887,4-3
		c1.109,3.429,2.495,1.065,3,4C181.803,566.066,183.639,562.814,190.012,565z"/>
	<path fill-rule="evenodd" clip-rule="evenodd" d="M136.012,124c6.081-1.33,0.901-13.578,3-14c-1.764-2.311-4.646-15.29-3-19
		c1.523-3.432,4.646-3.048,6-6c0.62-1.351-1.15-4.289-1-5c0.356-1.686,2.156-1.152,3-3c1.01-2.213-0.471-5.99,0-8
		c4.229-18.04,16.669-27.779,25-38c4.207-0.725,6.255-1.801,8-5c2.406-4.411,2.765-3.086,7-6c1.499-1.031,4.334-3.72,8-6
		c23.388-14.547,58.442-14.144,90-12c0.856,0.058,1.814-1.262,2-2c0.955,1.712,3.318,2.015,4,4c0.831-4.004,10.221,4.475,16,5
		c0.996,7.51,17.634,10.706,24,25c9.226,4.596,15.3,11.263,18,20c6.004-1.222,3.889,5.467,6,11c0.894,2.342,2.985,2.912,3,3
		c1.462,8.717-3.415,22.111-1,31c0.873,3.211,3.693,4.421,4,7c0.294,2.472-2.496,6.758-2,10c0.502,3.276,3.25,4.977,3,8
		c-0.443,1.454-0.878-0.102-2,0c-0.848,13.582-2.468,14.61-5,28c3.418,1.716,3.923,2.639,9,4c-1.646,0.336,0.342,6.408,1,4
		c1.031,3.685,2.299,28.651-1,29c2.427,1.352,0.623,1.999,2,3c-4.259,3.229-1.681,12.876-4,13c3.308,3.043,0.187,8.463,2,13
		c-1.111,0.983-4.909,4.296-2,6c-10.071,12.31-10.151,23.17-24,30c1.33,12.422-6.88,20.946-9,27c-0.388,1.107,1.561,1.866,1,3
		c-0.884,1.789-0.957-0.862-2,0c-2.649,2.19-1.047,6.096-2,8c-0.887,1.771-1.044-0.889-2,0c-1.668,1.552-2.843,8.209-4,10
		c-3.925,6.072-10.245,12.801-14,18c-7.266,10.061-18.983,15.848-26,22c-32.305,10.389-73.176-12.726-91-42c-1,0-2,0-3,0
		c-3.544-7.906-13.61-18.508-12-28c-0.162-1.172-1.823-0.843-3-1c2.105-5.545-3.907-13.739-1-17c-0.536-2.062-4.731-0.238-2-3
		c-14.005,3.148-10.309-15.088-20-19c-1.418-7.107-7.586-17.381-10-25c2.066-22.721-5.235-32.281,4-44
		c11.752,0.648,3.772-5.215,2-11c-1.18-3.852,4.021-7.245-2-9c1.791-2.635-2.648-12.831,2-15c-2.774-1.226-4.677-3.323-7-5
		C134.365,121.599,135.772,122.914,136.012,124z M296.012,67c-6.846-5.993-1.415-19.076,6-19c-2.35-0.013,0.365-2.729,2-2
		c5.668,4.151,2.98,7.978,7,14c5.847-12.377,1.045-21.84-2-39c-5.792-0.541-6.957-5.709-11-8c-19.218-7.989-53.275-8.009-70-3
		c12.745,4.247,17.204,3.087,27,10c1.373-2.279-2.578-3.759,0-4c14.358,5.932,18.776-4.713,26,7c-2.333,0-4.667,0-7,0
		c0.475,3.808-0.425,6.242-3,7c-2.843-3.509-8.599-9.376-13-8c5.636,3.697,8.595,10.072,14,14c0.054,1.72-0.77,2.563-2,3
		c-7.851-10.011-14.416-15.422-27-21c-4.689,8.75,17.303,20.254-1,20c3.813,5.057-7.388,3.363-10,6c1.377,1.001-0.427,1.648,2,3
		c-11.945-9.802-22.066-8.975-30-15c0.157-1.177-0.172-2.838,1-3c7.206,5.545,12.793,3.04,21,1c-10.702-4.204-16.086-10.784-28-4
		c3.364,6.457-11.235,9.327-14,16c4.882,2.548,12.383,6.104,17,3c-4.132,0.465-4.972-2.362-7-4c2.884-6.462,10.089,4.051,9-1
		c16.634,5.11,20.635,11.491,34,20c-3.296,3.415,3.84,2.036,4,5c-2.438,2.308,3.507,8.889,1,12c-10.266-10.538-29.08-15.717-40-18
		c-0.21-0.044,0.987-2.003,1-2c-10.69-2.864-15.551-2.738-30-4c1.988,5.942,15.868,0.708,15,9c-9.854,2.729-13.782-4.736-22,2
		c-1.101,5.574-3.737,8.931-6,16c1.858,1.565,6.195-0.456,7-3c-2.259-0.56,1.212-1.56-1-3c5.363-1.856,4.421-4.083,8-8
		c8.226,7.452-3.126,12.931-4,20c-0.264,2.135,2.151,5.573,2,6c-0.232,0.655-4.676,1.438-5,2c-3.141,5.453,6.494,13.405,1,20
		c4.136,9.471,6.8,19.151,9,37c-5.441,1.525-3.312,5.755-2,10c-2.822,1.004-2.506,1.465-4,2c0.535,1.494,0.996,1.178,2,4
		c6.015-4.585,18.819-13.996,26-12c7.03,1.954,9.364,4.9,16,7c7.242,2.291,19.295,2.131,22,7c0.624,1.123-0.968,3.741,0,5
		c-0.39-0.507,6.049,3.986,7,4c0.92-5.009,5.567,1.113,9,0c2.026-1.307,1.373-5.293,4-6c1.151,1.182,1.132,3.535,1,6
		c1.453-0.547,5.169,1.168,5-1c-0.692-8.755,13.528-15.422,20-21c0.102,1.122-1.453,1.557,0,2c10.091-3.584,27.271-8.868,40-5
		c-0.556,0.003-1.135-0.81,0-1c2.574,3.078-0.022,5.218,1,8c4.275,1.201,5.098,0.653,7,3c-0.191,3.142-1.858,4.809-5,5
		c-11.975-10.482-36.291,0.998-50,3c-0.834,4.162-7.751,4.155-5,9c5.465-1.202,8.2-5.133,12-8c0.102,1.122-1.453,1.557,0,2
		c13.437-7.123,31.299-5.738,38,7c-1.003-0.003-1.19,0.81-2,1c-1.891,0.224-2.206-1.127-4-1c-9.741,10.837-20.524,6.212-29,3
		c5.233-1.001,11.008,4.594,16,0c-4.986,0.845-8.617-4.357-13-7c-5.615,2.444-6.876,9.811-13,7c0.381-2.832,4.882-3.63,9-7
		c-2.806-0.013,2.381-2.729-2-2c-0.966,1.308-8.156,5.841-13,9c-3.729,0.396-0.42-6.247-3-7c-1.009,1.991-1.729,4.271-4,5
		c-2.023-0.886-6.23-1.681-9,0c7.918,4.693-9.467,4.528-8,3c-4.179,10.138,0.088,19.823,0,31c1.177,0.157,2.839-0.172,3,1
		c-3.347,0.903-0.873,2.237,0,4c-1.303-1.724-4.697,5.658-4,3c-3.06,11.654,1.245,16.669,5,24c11.597,1.662,14.441-7.918,24-8
		c2.817-5.792-6.255-11.231,1-12c-1.119,1.44-1.078,2.44,1,3c4.187,6.216-2.46,19.512-17,24c0.534,1.389,1.712,6.521,4,9
		c1.456-1.712,6.291,1.652,7,4c-2.242,0.424-3.188,2.146-5,3c6.142,2.082,16.157,0.792,22-2c-5.296-1.09-6.108-0.506-13,0
		c-1.979-2.688-4.405-4.928-4-10c1.278-0.055,1.385-1.282,3-1c-0.123,4.183,8.183,8.376,12,5c-2.942-1.035-3.265-3.965-2-5
		c2.205,0.556,4.746,2.346,3,4c4.406-0.662,4.097,0.165,7-2c-0.306,2.306,2.889,1.111,3,3c-1.393,1.253-0.435,5.654-3,3
		c-1.052,4.386,3.382,3.285,3,7c-0.56,1.44-1.56,2.44-3,3c-9.358-3.958-18.937,1.651-23,0c0.889-1.745,4.378,0.745,2-1
		c-10.226,4.742-19.478,3.101-28,3c-8.432-0.1-23.233-6.504-35,4c-0.886-2.884-1.539-12.76,0-16c7.193,2.182,12.484,1.559,20,2
		c2.526-4.27,4.755-11.343,0-15c-9.053-4.915-4.619-14.985,2-23c-0.937,3.485-0.431,3.729-1,10c1.122,0.211,1.557,1.11,2,2
		c5.217-2.5,7.078,0.356,11-1c-6.097-5.23,1.344-10.451,0-17c-5.515-11.2,0.837-18.416-4-28c-1.283,2.668-2.687,3.662-3,5
		c-0.776-0.224-1.973-0.027-2-1c5.032-2.581,4.312-5.581,5-9c-7.413-1.93-10.8-13.187-18-12c1.208,0.211,0.615,1.11,0,2
		c4.197,2.503,3.126,0.534,5,6c-8.617,2.708-21.552,10.015-32,3c9.901,0.262,21.592,2.538,30-6c-2.435-1.899-4.944-3.723-10-3
		c0.572,3.695-5.255,3.627-3,6c-8.197,3.992-7.354-0.679-13,0c1.852-1.763-0.257-3.097-2-4c-0.677,1.113-3.323-0.199-4,3
		c1.759,0.241,2.279,1.721,2,4c-1.307,1.943-5.293-2.003-6,2c4.726,5.831,10.201,4.978,14,11c-7.243,1.844-13.965-2.951-18-5
		c2.897-0.56-1.534-1.56-1-3c3.566,2.128-0.476-2.228,0-4c-3.056-0.723-3.644,1.022-6,1c-0.294,7.38,10.57,15.918,11,13
		c2.031,4.746,12.012,1.058,10,5c18.646,2.194,30.79-7.049,35-16c1.269,4.11-3.268,7.966-6,13c-20.343,12.116-37.396,9.69-51-8
		c-2.063,2.709-0.875-2.286-2-2c-0.057,0.61-0.149,1.184-1,1c-2.916,0.832-2.607,7.375,0,17c2.52,9.3,7.375,12.772,11,19
		c0.699,1.2,3.785,8.015,4,10c0.367,3.392-3.105,9.406-3,13c0.08,2.719,2.691,5.481,3,9c0.71,8.095-1.758,17.541,5,26
		c4.485-14.684-5.559-28.089,1-39c8.541,4.942,2.815,13.054,5,25c3.161,1.945,1.187,6.392,1,10c1.177,0.157,2.838-0.172,3,1
		c-4.938,5.994,6.408,16.642,7,25c4.578-1.816,1.849,5.243,5,2c7.581,14.562,18.106,21.848,38,21c10.975-0.468,31.877,0.423,33-9
		c6.56-1.297,12.103-10.193,12-12c10.159-6.512,15.397-18.097,21-28c-0.206,0.364,0.558,1.541,1,1c2.957-3.612,2.878-11.817,4-13
		c0.454-0.479,4.994-2.623,2-6c1.177-0.157,2.839,0.172,3-1c-1.783-5.137,3.866-17.438,6-28c-3.175-4.084,3.89-27.432,4-28
		c2.005-10.324,3.82-21.033,0-29c3.299-2.51-1.823-10.653,2-15c-3.927-3.749,0.749-9.354-4-16c3.079,1.101,1.246-6.016,1-9
		c3.141,0.474,4.086-1.247,5-3c-4.861-0.492,2.861-5.514-2-3c1.945-2.903,3.301-2.594,2-7c-1.177-0.157-2.839,0.172-3-1
		c2.88-2.351,0.812-9.011,7-12c-0.003,1.003,0.81,1.19,1,2c-4.112,2.212,1.182,3.663,2,4c-0.139,4.312-3.592,4.271-1,8
		c7.096-8.67-0.994-20.371,3-26c-3.124-0.681-1.682-3.045,0-4c-3.26-0.29-2.517-7.583,0-8c-3.543-10.077-3.515-19.43-4-31
		c-4.691-1.918-3.483-8.201-8-8c-3.791-7.377-15.473-25.666-25-24c1.364,1.666,5.479,13.43,2,13c-0.818,13.392,1.472,14.605-4,22
		c-3.14-1.131-2.642,0.288-5-1c0.279,2.279-0.241,3.759-2,4C303.258,66.348,296.468,72.708,296.012,67z M151.012,94
		c9.673-26.836,6.376-45.551,35-46c-4.485-4.515-15.083-2.917-22-5c-2.304,4.081-2.222,4.393-6,7
		C159.681,60.352,139.336,87.188,151.012,94z M146.012,121c3.775,14.691-1.678,24.81,6,34c2.407-7.667,2.96-25.512-1-35
		C150.098,121.115,149.153,120.315,146.012,121z M347.012,183c2.292-9.042,7.623-15.043,12-22
		C349.391,151.823,342.866,170.709,347.012,183z M338.012,242c1.453-0.547,5.169,1.168,5-1c2.942-4.6,6.378-22.007,12-24
		c-0.505-7.815,2.472-10.398-1-19c1.748-3.968,0.442-8.715,2-14c0.312-1.056,2.568-0.934,3-3c0.712-3.41-0.645-9.52-2-13
		c-5.852,3.855-3.99,18.497-11,19c0.649,4.525-0.674,4.536-2,5C342.952,209.263,340.081,223.312,338.012,242z M203.012,177
		c-0.61-0.057-1.184-0.149-1-1c10.271,0.378,17.964-3.025,28,3c0-1.667,0-3.333,0-5c-9.286-1.241-36.146-8.616-43-2
		c-1.104,1.065-1.785,5.254-4,9C190.474,182.353,197.219,175.165,203.012,177z M171.012,193c-2.399-1.823,6.305-0.962,6-4
		c-0.557-5.435,1.18-11.642,4-16c-9.628-0.628-4.672,13.328-11,16c-2.335-6.072-9.836-1.724-18-7
		C158.778,188.764,163.997,190.366,171.012,193z M206.012,185c0.843-0.752,4.578-0.362,5-4
		C207.86,180.261,204.354,184.237,206.012,185z M248.012,274c13.976,3.854,16.528-3.78,11-11c-1.891,0.224-2.206-1.127-4-1
		C251.954,267.612,248.699,268.937,248.012,274z M242.012,273c-5.817-0.004,3.274,2.693,3,0c-2.79-1.035,5.254-3.965,0-5
		C243.152,270.092,242.421,271.758,242.012,273z M234.012,274c1.453-0.547,5.168,1.168,5-1c-1.208-0.211-0.615-1.11,0-2
		C235.871,270.526,234.926,272.247,234.012,274z M303.012,186c2.002-3.307,8.812,0.611,9-8c-4.318-0.012-5.605,1.837-8-1
		c-2.606,3.754-4.484,2.915-9,1c1.418,6.367,8.739,3.85,11,1c-0.003,1.003,0.81,1.19,1,2c-1.184,1.483-3.777,1.556-5,3
		C303.887,184.239,301.444,185.646,303.012,186z"/>
	<path fill-rule="evenodd" clip-rule="evenodd" d="M171.012,279c-1.493,5.736,0.74,13.392,4,26c3.162-1.859,0.188-2.591,3-3
		c2.208,0.125,0.425,4.242,1,6c5.251,0.403,2.505-3.39,4-5c4.55,2.914,2.188,6.248,2,10c-4.85,0.184-6.843-2.49-9-5
		c-0.003,9.646,4.759,25.403,9,33c5.224-4.081-6.124-18.424-1-21c0.869-0.437,3.884,2.804,5,3c5.234,0.921,6.775-1.717,12,1
		c-1.545,0.835,3.149,4.354,3,4c0.82,1.948-0.739,5.1,0,6c6.081,7.407,22.575,12.014,21,22c-7.414,3.459-16.801-8.628-18-10
		c-1.242-1.786-2.908,0.776-5-1c0.181,4.268,2.163,9.396-1,12c0.86,0.807,0.594,2.739,2,3c-5.391,3.36,0.955,13.511-7,15
		c1.146,3.276-0.563,4.724,3,8c9.977-1.695,19.363-6.043,29,1c5.794,19.485-20.089,26.323-36,31c0.615,0.891,1.208,1.788,0,2
		c6.059,1.326,7.531,4.159,13,7c-2.086,9.567-1.202,16.466,12,20c-0.571,6.295,3.908,12.167,0,16c12.138,8.754,11.495,11.057,11,33
		c-3.025,3.141-5.956,12.677-15,15c4.903,16.09,0.446,39.883,0,47c-6.597-0.618-3.45,7.057-11,8c-3.984,8.304-9.915,10.962-12,24
		c-3.511,0.483-3.289,1.157-6,0c-1.143-8.128,12.279-14.111,6-24c4.453-0.214,4.128-5.205,9-5c1.131-2.954,5.107-6.943,7-9
		c1.663-1.807,5.174-1.91,5-5c-0.327-5.791-0.402-13.311-1-19c0.354-1.401,1.761-0.086,2,1c3.741-1.891-1.812-4.276-2-5
		c-0.489-1.88,5.284-8.365-3-4c-0.872-1.035-0.872-3.965,0-5c-0.56-2.259-1.56,1.213-3-1c2.729-6.682,10.323-13.18,15-19
		c-1.383-2.903-0.119-2.594,0-7c4.659,2.589,5.299-8.642,6-7c-1.564-4.085-4.306-7.752-9-11c-5.531,1.025-11.301,7.441-13,9
		c-4.03,3.697-13.292,16.87-23,11c14.127-4.41,18.923-15.779,31-21c-0.954-2.575,6.022-2.757,4-12c-0.56-2.56-3.925-5.919-4-6
		c-14.321-15.521-33.543,28.974-47,21c0.615-0.891,1.208-1.788,0-2c-0.943-1.85,5.723-0.613,2-2c8.749-3.531,11.019-5.236,12-8
		c2.104-5.926,13.32-7.808,19-13c5.556-5.08,9.098-18.988-2-23c-5.235-1.893-13.849,1.687-19,5c-12.856,8.271-20.003,26.801-42,25
		c0.777-0.89,1.075-2.258,1-4c14.48,0.51,28.476-13.203,33-25c15.964-9.791,36.745-14.917,55-24c4.677-9.349-10.813,1.051-15-7
		c-0.11-0.212,0.506-3.385,1-3c-7.765-6.054-33.843,4.677-40,9c-1.454-0.443,0.102-0.878,0-2c-7.444,2.773-8.627,5.102-15,6
		c-0.559,4.769,1.739,6.588,0,8c1.223,1.444,3.816,1.517,5,3c0.168,2.169-3.547,0.453-5,1c1.307-4.307-2.837-3.162-4-5
		c-7.863,5.96-12.458,13.983-17,20c-7.353,9.739-17.417,15.214-25,25c0.644,2.951,6.451,4.049,4,7c6.162,0.049,12.26,10.585,6,9
		c4.838,23.506,10.921,38.557,25,70c1.828,1.24-1.728,3.86-4,2c-2.111-3.798-2.048-10.815-7-14c0.115-9.16-9.413-24.92-9-32
		c-5.406-0.988,0.406,2.988-5,2c4.845,14.788,12.497,31.675,14,42c3.97,5.016,10.37,12.709,14,21c5.468,1.367,7.773,14.586,15,16
		c0.005,5.365,7.376,8.751,6,12c-15.029-6.921-26.86-30.439-34-43c-1,0-2,0-3,0c3.167-3.276-6.167-4.724-3-8
		c-1.924-0.424-3.61,0.686-2,1c-7.468,13.457-31.779,18.104-46,29c-3.302-0.573,1.259-6.47-1-6c2.148-1.176,4.02-2.277,4-4
		c15.842-6.454,26.069-16.626,40-28c-1.606-7.905-6.252-13.336-6-24c-6.387-3.789-1.812-20.988-7-23c1.138-15.993-9.112-24.713-4-34
		c5.894-10.707,24.659-17.037,28-31c0.81,0.19,0.997,1.003,2,1c3.614-7.505,9.875-13.302,15-18c3.251-2.98,3.079-2.236,6-6
		c2.531-3.261,6.472-8.83,8-10c3.131-2.398,1.015-5.059,2-7c0.841-1.657,6.913-5.09,4-8c0.354-1.401,1.761-0.086,2,1
		c0.045-2.687,3.718-7.529,11-6c-0.294-2.039-2.706-1.961-3-4c-18.588,5.991-35.494-9.642-54-1c-0.778,3.957-17.432,10.764-19,13
		c-17.059,7.774-29.045,18.421-45,20c-4.056-6.322,22.502-13.219,22-13c11.603-5.056,20.871-14.092,35-19
		c-1.409-1.181,18.935-9.739,1-11c-0.184-0.851,0.39-0.943,1-1c-4.308-1.226-8.376-5.992-12-5c-11.026,3.019-31.625,15.365-37-1
		c-13.256,2.952-31.941,9.877-43,15c-1.454-0.443,0.102-0.878,0-2c-6.89,4.118-17.589,9.734-22,13c-1.548,2.754-6.002,0.097-7-1
		c-0.286-1.763,4.709-3.097,2-4c0.426-1.952,2.857,1.636,2-3c13.809-2.874,19.881-15.699,36-18c-0.693-0.384,8.675-8.164,6-4
		c4.515-4.335,11.536-7.246,22-12c1.065-0.484,2.847,0.258,4,0c2.106-0.472,2.18-3.104,4-4c5.207-2.562,13.75-5.57,16-7
		c10.719-6.812,24.123-10.701,31-16c0.813-0.627,1.118-1.467,1-3c14.38-2.84,29.178-17.594,46-16
		C170.862,280.184,170.955,279.61,171.012,279z M214.012,507c2.078-7.439,11.27-11.104,6-16c-2.502,2.499-3.882,10.322-7,9
		C212.007,505.438,208.244,506.509,214.012,507z M226.012,390c-0.701-5.146-9.674-8.069-15-3c2.565,0.102,1.607,3.727,3,5
		C219.724,392.188,221.515,394.303,226.012,390z M190.012,328c1.208,0.212,0.615,1.109,0,2c4.489,0.31,7.445,2.207,9-1
		c-0.226-3.794-3.827-3.397-7-4C192.311,326.966,190.662,326.983,190.012,328z M187.012,374c0.102-1.907,3.727,0.797,5,1
		c0.87-1.464,1.497-3.17,4-3c0.906-17.836,2.053-23.951,3-32c0.552-4.688,2.047-8.631-9-7
		C188.172,348.673,184.086,362.229,187.012,374z M183.012,385c2.443-5.707-3.149-10.724-2-16c-12.71,1.496-11.496,16.537-17,23
		C169.926,390.592,178.396,386.796,183.012,385z M185.012,383c2.59,2.09,8.523,1.119,8-3c-1.242-3.468-2.908-1.842-5-3
		C185.575,379.632,187.448,380.368,185.012,383z"/>
	<path fill-rule="evenodd" clip-rule="evenodd" fill="#FFFFFF" d="M306.012,69c1.759-0.241,2.279-1.721,2-4
		c2.358,1.288,1.86-0.131,5,1c5.472-7.395,3.182-8.608,4-22c3.479,0.43-0.636-11.334-2-13c9.527-1.666,21.209,16.623,25,24
		c4.517-0.201,3.309,6.082,8,8c0.485,11.57,0.457,20.923,4,31c-2.517,0.417-3.26,7.71,0,8c-1.682,0.955-3.124,3.319,0,4
		c-3.994,5.629,4.096,17.33-3,26c-2.592-3.729,0.861-3.688,1-8c-0.818-0.337-6.112-1.788-2-4c-0.19-0.81-1.003-0.997-1-2
		c-6.188,2.989-4.12,9.649-7,12c0.161,1.172,1.823,0.843,3,1c1.301,4.406-0.055,4.097-2,7c4.861-2.514-2.861,2.508,2,3
		c-0.914,1.753-1.859,3.474-5,3c0.246,2.984,2.079,10.101-1,9c4.749,6.646,0.073,12.251,4,16c-3.823,4.347,1.299,12.49-2,15
		c3.82,7.967,2.005,18.676,0,29c-0.11,0.568-7.175,23.916-4,28c-2.134,10.562-7.783,22.863-6,28c-0.161,1.172-1.823,0.843-3,1
		c2.994,3.377-1.546,5.521-2,6c-1.122,1.183-1.043,9.388-4,13c-0.442,0.541-1.206-0.636-1-1c-5.603,9.903-10.841,21.488-21,28
		c0.103,1.807-5.44,10.703-12,12c-1.123,9.423-22.025,8.532-33,9c-19.894,0.848-30.419-6.438-38-21c-3.151,3.243-0.422-3.816-5-2
		c-0.592-8.358-11.938-19.006-7-25c-0.162-1.172-1.823-0.843-3-1c0.187-3.608,2.161-8.055-1-10c-2.185-11.946,3.541-20.058-5-25
		c-6.559,10.911,3.485,24.316-1,39c-6.758-8.459-4.29-17.905-5-26c-0.309-3.519-2.92-6.281-3-9c-0.105-3.594,3.367-9.608,3-13
		c-0.215-1.985-3.301-8.8-4-10c-3.625-6.228-8.48-9.7-11-19c-2.607-9.625-2.916-16.168,0-17c0.851,0.184,0.943-0.39,1-1
		c1.125-0.286-0.063,4.709,2,2c13.604,17.69,30.657,20.116,51,8c2.732-5.034,7.269-8.89,6-13c-4.21,8.951-16.354,18.194-35,16
		c2.012-3.942-7.969-0.254-10-5c-0.43,2.918-11.294-5.62-11-13c2.356,0.022,2.944-1.723,6-1c-0.476,1.772,3.566,6.128,0,4
		c-0.534,1.44,3.897,2.44,1,3c4.035,2.049,10.757,6.844,18,5c-3.799-6.022-9.274-5.169-14-11c0.707-4.003,4.693-0.057,6-2
		c0.279-2.279-0.241-3.759-2-4c0.677-3.199,3.323-1.887,4-3c1.743,0.903,3.852,2.237,2,4c5.646-0.679,4.803,3.992,13,0
		c-2.255-2.373,3.572-2.305,3-6c5.056-0.723,7.565,1.101,10,3c-8.408,8.538-20.099,6.262-30,6c10.448,7.015,23.383-0.292,32-3
		c-1.874-5.466-0.803-3.497-5-6c0.615-0.89,1.208-1.789,0-2c7.2-1.187,10.587,10.07,18,12c-0.688,3.419,0.032,6.419-5,9
		c0.027,0.973,1.224,0.776,2,1c0.313-1.338,1.717-2.332,3-5c4.837,9.584-1.515,16.8,4,28c1.344,6.549-6.097,11.77,0,17
		c-3.922,1.356-5.783-1.5-11,1c-0.443-0.89-0.878-1.789-2-2c0.569-6.271,0.063-6.515,1-10c-6.619,8.015-11.053,18.085-2,23
		c4.755,3.657,2.526,10.73,0,15c-7.516-0.441-12.807,0.182-20-2c-1.539,3.24-0.886,13.116,0,16c11.767-10.504,26.568-4.1,35-4
		c8.522,0.101,17.774,1.742,28-3c2.378,1.745-1.111-0.745-2,1c4.063,1.651,13.642-3.958,23,0c1.44-0.56,2.44-1.56,3-3
		c0.382-3.715-4.052-2.614-3-7c2.565,2.654,1.607-1.747,3-3c-0.111-1.889-3.306-0.694-3-3c-2.903,2.165-2.594,1.338-7,2
		c1.746-1.654-0.795-3.444-3-4c-1.265,1.035-0.942,3.965,2,5c-3.817,3.376-12.123-0.817-12-5c-1.615-0.282-1.722,0.945-3,1
		c-0.405,5.072,2.021,7.312,4,10c6.892-0.506,7.704-1.09,13,0c-5.843,2.792-15.858,4.082-22,2c1.812-0.854,2.758-2.576,5-3
		c-0.709-2.348-5.544-5.712-7-4c-2.288-2.479-3.466-7.611-4-9c14.54-4.488,21.187-17.784,17-24c-2.078-0.56-2.119-1.56-1-3
		c-7.255,0.769,1.817,6.208-1,12c-9.559,0.082-12.403,9.662-24,8c-3.755-7.331-8.06-12.346-5-24c-0.697,2.658,2.697-4.724,4-3
		c-0.873-1.763-3.347-3.097,0-4c-0.161-1.172-1.823-0.843-3-1c0.088-11.177-4.179-20.862,0-31c-1.467,1.528,15.918,1.693,8-3
		c2.77-1.681,6.977-0.886,9,0c2.271-0.729,2.991-3.009,4-5c2.58,0.753-0.729,7.396,3,7c4.844-3.159,12.034-7.692,13-9
		c4.381-0.729-0.806,1.987,2,2c-4.118,3.37-8.619,4.168-9,7c6.124,2.811,7.385-4.556,13-7c4.383,2.643,8.014,7.845,13,7
		c-4.992,4.594-10.767-1.001-16,0c8.476,3.212,19.259,7.837,29-3c1.794-0.127,2.109,1.224,4,1c0.81-0.19,0.997-1.003,2-1
		c-6.701-12.738-24.563-14.123-38-7c-1.453-0.443,0.102-0.878,0-2c-3.8,2.867-6.535,6.798-12,8c-2.751-4.845,4.166-4.838,5-9
		c13.709-2.002,38.025-13.482,50-3c3.142-0.191,4.809-1.858,5-5c-1.902-2.347-2.725-1.799-7-3c-1.022-2.782,1.574-4.922-1-8
		c-1.135,0.19-0.556,1.003,0,1c-12.729-3.868-29.909,1.416-40,5c-1.453-0.443,0.102-0.878,0-2c-6.472,5.578-20.692,12.245-20,21
		c0.169,2.168-3.547,0.453-5,1c0.132-2.465,0.151-4.818-1-6c-2.627,0.707-1.974,4.693-4,6c-3.433,1.113-8.08-5.009-9,0
		c-0.951-0.014-7.39-4.507-7-4c-0.968-1.259,0.624-3.877,0-5c-2.705-4.869-14.758-4.709-22-7c-6.636-2.1-8.97-5.046-16-7
		c-7.181-1.996-19.985,7.415-26,12c-1.004-2.822-1.465-2.506-2-4c1.494-0.535,1.178-0.996,4-2c-1.312-4.245-3.441-8.475,2-10
		c-2.2-17.849-4.864-27.529-9-37c5.494-6.595-4.141-14.547-1-20c0.324-0.562,4.768-1.345,5-2c0.151-0.427-2.264-3.865-2-6
		c0.874-7.069,12.226-12.548,4-20c-3.579,3.917-2.637,6.144-8,8c2.212,1.44-1.259,2.44,1,3c-0.805,2.544-5.142,4.565-7,3
		c2.263-7.069,4.899-10.426,6-16c8.218-6.736,12.146,0.729,22-2c0.868-8.292-13.012-3.058-15-9c14.449,1.262,19.31,1.136,30,4
		c-0.013-0.003-1.21,1.956-1,2c10.92,2.283,29.734,7.462,40,18c2.507-3.111-3.438-9.692-1-12c-0.16-2.964-7.296-1.585-4-5
		c-13.365-8.509-17.366-14.89-34-20c1.089,5.051-6.116-5.462-9,1c2.028,1.638,2.868,4.465,7,4c-4.617,3.104-12.118-0.452-17-3
		c2.765-6.673,17.364-9.543,14-16c11.914-6.784,17.298-0.204,28,4c-8.207,2.04-13.794,4.545-21-1c-1.172,0.162-0.843,1.823-1,3
		c7.934,6.025,18.055,5.198,30,15c-2.427-1.352-0.623-1.999-2-3c2.612-2.637,13.813-0.943,10-6c18.303,0.254-3.689-11.25,1-20
		c12.584,5.578,19.149,10.989,27,21c1.23-0.437,2.054-1.28,2-3c-5.405-3.928-8.364-10.303-14-14c4.401-1.376,10.157,4.491,13,8
		c2.575-0.758,3.475-3.192,3-7c2.333,0,4.667,0,7,0c-7.224-11.713-11.642-1.068-26-7c-2.578,0.241,1.373,1.721,0,4
		c-9.796-6.913-14.255-5.753-27-10c16.725-5.009,50.782-4.989,70,3c4.043,2.291,5.208,7.459,11,8c3.045,17.16,7.847,26.623,2,39
		c-4.02-6.022-1.332-9.849-7-14c-1.635-0.729-4.35,1.987-2,2c-7.415-0.076-12.846,13.007-6,19
		C296.468,72.708,303.258,66.348,306.012,69z M238.012,50c2.901,10.407,10.013,8.925,12,17c6.026,0.903,7.209,11.113,10,3
		c2.01,5.572,3.9,0.112,6,0c4.545-0.242,8.532,4.009,16,1c0.835-12.104-11.236-8.034-20-9c-1.241-2.092-2.908-3.758-5-5
		c-0.215,5.521,7.39,6.92,4,10C252.345,54.324,245.195,57.713,238.012,50z M274.012,50c-1.877,1.907,0.594,1.81,0,5
		c7.041,1.887,10.153,7.505,10,12c5.457,0.518,2.806,4.354,8,7c2.374-11.471-9.306-17.29-16-23c0.556,0.003,1.135-0.81,0-1
		C275.8,51.208,274.902,50.615,274.012,50z M315.012,85c3.91,0.875,4.656-5.538,12-8c3.553,4.216,4.497,10.096,10,15
		c2.044-6.322,2.677-6.873,3-12c-5.092-4.904-6.233-8.887-9-17c-4.482,0.726-1.41,4.424-5,2c1.349-2.86,4.37-7.123,1-6
		c1.573-2.092,2.378-3.758,1-5C323.097,66.472,315.158,71.517,315.012,85z M172.012,94c-2.292,2.754-1.838,5.087-1,7
		c0.057-0.61,0.149-1.184,1-1c-0.003,0.555,0.81,1.135,1,0c-2.729,0.286,3.042-4.709,0-2c-1.122-0.102-1.557,1.454-2,0
		C172.623,98.428,174.368,94.272,172.012,94z M326.012,126c6.497-0.496,5.692-14.352,4-22c-1.008,0.782-2.498,0.626-4,3
		C329.735,112.989,322.916,118.464,326.012,126z M329.012,138c-1,0-2,0-3,0c-0.973,7.193,3.646,5.897,2,11
		c2.279,0.279,3.759-0.241,4-2C330.625,141.098,328.168,142.927,329.012,138z M260.012,152c-1.377,0.043-2.196-0.471-3-1
		c-4.526,7.921-0.943,15.81,6,15C262.048,160.164,257.116,160.431,260.012,152z M240.012,165c1.22,0.113,2.367,0.299,2,2
		c0.667,0,1.333,0,2,0c0.61-0.057,1.184-0.149,1-1c-1.988-0.677,0.988-3.323-1-4c-1.666,4.395-0.334-7.395-2-3
		c-0.224,0.776-0.027,1.973-1,2c0.003-0.555-0.81-1.135-1,0C241.117,161.903,240.704,163.237,240.012,165z M319.012,198
		c-13.882,12.985-40.772,7.227-47-1c1.534-0.239,0.146-1.646-1-2c0.955,15.57,38.225,22.581,50,5c-2.709-2.063,2.286-0.875,2-2
		c-3.724-1.386,2.943-0.15,2-2c-0.545-6.537,5.661-6.44,8-14c-1.758-0.575-5.875,1.208-6-1c0.239-1.427,1.646-1.687,2-3
		c-4.303-0.355-1.296-8.439-7-5C328.324,183.28,323.22,189.665,319.012,198z M263.012,190c3.417-0.75,1.271,4.063,5,3
		c-1.398-4.329-0.672-4.602-4-7C262.267,188.039,264.757,187.961,263.012,190z M308.012,198c-0.88-3.213,3.296-1.37,3-4
		c-3.254-3.7-4.665,0.958-9,1c-8.331,0.08-17.737-7.474-22-2C291.977,204.184,297.536,195.409,308.012,198z M207.012,202
		c2.134,2.149,5.447,0.371,6-2C209.246,201.137,208.458,199.043,207.012,202z M262.012,225c1.987,0.013,1.271,2.729,4,2
		c-0.729-2.729,1.987-2.013,2-4C265.589,219.885,263.589,222.246,262.012,225z M234.012,226c0.015-1.651,2.774-0.56,3-2
		c-2.323-2.214-2.677-0.883-5-2C231.732,224.279,232.252,225.759,234.012,226z M297.012,257c1.786-0.004,5.817,2.693,7,0
		c-7.618-9.802-12.288-23.377-24-29c-1.745,2.039,0.745,1.961-1,4c2.26,0.665,5.011,3.005,3,5c1,0,2,0,3,0
		C283.828,244.286,297.658,250.379,297.012,257z M222.012,235c-4.505,0.639-8.385,10.398-9,15c-1.177,0.157-2.838-0.172-3,1
		c1.717,1.382-0.717,4.618,1,6c5.414-6.253,8.209-15.124,13-22c-1.44,0.534-2.44-3.897-3-1
		C221.622,234.057,222.195,234.149,222.012,235z M317.012,258c-1.104-0.903-0.692-2.237,0-4c-9.047,3.734-5.967,19.253-7,31
		c-0.443,5.042-2.673,9.688-2,14c4.739-7.432,7.432-15.337,4-30C316.348,265.848,312.288,256.489,317.012,258z M238.012,307
		c1.535-12.795,34.718-6.498,36-19c-14.902,1.798-20.57,3.102-32,2c-0.102-1.122,1.454-1.557,0-2c-0.211,1.122-1.11,1.557-2,2
		c-0.003-1.003,0.81-1.19,1-2c-1.453,0.547-5.168-1.168-5,1c1.208,0.211,0.615,1.11,0,2c3.142,2.091,6.889,2.03,9,7
		c-5.464,1.582-6.73,4.037-9,5C238.417,303.622,233.966,307.178,238.012,307z"/>
	<path fill-rule="evenodd" clip-rule="evenodd" fill="#FFFFFF" d="M158.012,50c3.778-2.607,3.696-2.919,6-7
		c6.917,2.083,17.515,0.485,22,5c-28.624,0.449-25.327,19.164-35,46C139.336,87.188,159.681,60.352,158.012,50z"/>
	<path fill-rule="evenodd" clip-rule="evenodd" d="M261.012,67c3.39-3.08-4.215-4.479-4-10c2.092,1.242,3.759,2.908,5,5
		c8.764,0.966,20.835-3.104,20,9c-7.468,3.009-11.455-1.242-16-1c-2.1,0.112-3.99,5.572-6,0c-2.791,8.113-3.974-2.097-10-3
		c-1.987-8.075-9.099-6.593-12-17C245.195,57.713,252.345,54.324,261.012,67z"/>
	<path fill-rule="evenodd" clip-rule="evenodd" d="M276.012,50c1.135,0.19,0.556,1.003,0,1c6.694,5.71,18.374,11.529,16,23
		c-5.194-2.646-2.543-6.482-8-7c0.153-4.495-2.959-10.113-10-12c0.594-3.19-1.877-3.093,0-5C274.902,50.615,275.8,51.208,276.012,50
		z"/>
	<path fill-rule="evenodd" clip-rule="evenodd" d="M328.012,54c1.378,1.242,0.573,2.908-1,5c3.37-1.123,0.349,3.14-1,6
		c3.59,2.424,0.518-1.274,5-2c2.767,8.113,3.908,12.096,9,17c-0.323,5.127-0.956,5.678-3,12c-5.503-4.904-6.447-10.784-10-15
		c-7.344,2.462-8.09,8.875-12,8C315.158,71.517,323.097,66.472,328.012,54z"/>
	<path fill-rule="evenodd" clip-rule="evenodd" d="M171.012,98c0.443,1.454,0.878-0.102,2,0c3.042-2.709-2.729,2.286,0,2
		c-0.19,1.135-1.003,0.555-1,0c-0.851-0.184-0.943,0.39-1,1c-0.838-1.913-1.292-4.246,1-7C174.368,94.272,172.623,98.428,171.012,98
		z"/>
	<path fill-rule="evenodd" clip-rule="evenodd" d="M240.012,161c0.19-1.135,1.003-0.555,1,0c0.973-0.027,0.776-1.224,1-2
		c1.666-4.395,0.334,7.395,2,3c1.988,0.677-0.988,3.323,1,4c0.184,0.851-0.39,0.943-1,1c-0.667,0-1.333,0-2,0
		c0.367-1.701-0.78-1.887-2-2C240.704,163.237,241.117,161.903,240.012,161z"/>
	<path fill-rule="evenodd" clip-rule="evenodd" fill="#FFFFFF" d="M344.012,192c1.326-0.464,2.649-0.475,2-5
		c7.01-0.503,5.148-15.145,11-19c1.355,3.48,2.712,9.59,2,13c-0.432,2.066-2.688,1.944-3,3c-1.558,5.285-0.252,10.032-2,14
		c3.472,8.602,0.495,11.185,1,19c-5.622,1.993-9.058,19.4-12,24c0.169,2.168-3.547,0.453-5,1
		C340.081,223.312,342.952,209.263,344.012,192z M349.012,205c2.058-2.352,1.035-7.686-2-8
		C345.547,198.759,347.664,202.998,349.012,205z"/>
	<path fill-rule="evenodd" clip-rule="evenodd" fill="#FFFFFF" d="M183.012,181c2.215-3.746,2.896-7.935,4-9
		c6.854-6.616,33.714,0.759,43,2c0,1.667,0,3.333,0,5c-10.036-6.025-17.729-2.622-28-3c-0.184,0.851,0.39,0.943,1,1
		C197.219,175.165,190.474,182.353,183.012,181z"/>
	<path fill-rule="evenodd" clip-rule="evenodd" fill="#FFFFFF" d="M302.012,184c1.223-1.444,3.816-1.517,5-3
		c-0.19-0.81-1.003-0.997-1-2c-2.261,2.85-9.582,5.367-11-1c4.516,1.915,6.394,2.754,9-1c2.395,2.837,3.682,0.988,8,1
		c-0.188,8.611-6.998,4.693-9,8C301.444,185.646,303.887,184.239,302.012,184z"/>
	<path fill-rule="evenodd" clip-rule="evenodd" d="M322.012,173c5.704-3.439,2.697,4.645,7,5c-0.354,1.313-1.761,1.573-2,3
		c0.125,2.208,4.242,0.425,6,1c-2.339,7.56-8.545,7.463-8,14c0.943,1.85-5.724,0.614-2,2c0.286,1.125-4.709-0.063-2,2
		c-11.775,17.581-49.045,10.57-50-5c1.146,0.354,2.534,1.761,1,2c6.228,8.227,33.118,13.985,47,1
		C323.22,189.665,328.324,183.28,322.012,173z"/>
	<path fill-rule="evenodd" clip-rule="evenodd" fill="#FFFFFF" d="M152.012,182c8.164,5.276,15.665,0.928,18,7
		c6.328-2.672,1.372-16.628,11-16c-2.82,4.358-4.557,10.565-4,16c0.305,3.038-8.399,2.177-6,4
		C163.997,190.366,158.778,188.764,152.012,182z"/>
	<path fill-rule="evenodd" clip-rule="evenodd" fill="#FFFFFF" d="M211.012,181c-0.422,3.638-4.157,3.248-5,4
		C204.354,184.237,207.86,180.261,211.012,181z"/>
	<path fill-rule="evenodd" clip-rule="evenodd" d="M280.012,193c4.263-5.474,13.669,2.08,22,2c4.335-0.042,5.746-4.7,9-1
		c0.296,2.63-3.88,0.787-3,4C297.536,195.409,291.977,204.184,280.012,193z"/>
	<path fill-rule="evenodd" clip-rule="evenodd" d="M268.012,223c-0.013,1.987-2.729,1.271-2,4c-2.729,0.729-2.013-1.987-4-2
		C263.589,222.246,265.589,219.885,268.012,223z"/>
	<path fill-rule="evenodd" clip-rule="evenodd" d="M221.012,234c0.56-2.897,1.56,1.534,3,1c-4.791,6.876-7.586,15.747-13,22
		c-1.717-1.382,0.717-4.618-1-6c0.162-1.172,1.823-0.843,3-1c0.615-4.602,4.495-14.361,9-15
		C222.195,234.149,221.622,234.057,221.012,234z"/>
	<path fill-rule="evenodd" clip-rule="evenodd" d="M312.012,269c3.432,14.663,0.739,22.568-4,30c-0.673-4.312,1.557-8.958,2-14
		c1.033-11.747-2.047-27.266,7-31c-0.692,1.763-1.104,3.097,0,4C312.288,256.489,316.348,265.848,312.012,269z"/>
	<path fill-rule="evenodd" clip-rule="evenodd" d="M482.012,324c-7.472-0.169-14.49-3.106-19-5c-4.049-1.7-11.058-0.731-16-2
		c-3.016-0.773-3.607-3.264-6-4c-11.726-3.606-25.691-0.998-35-6c-0.083-0.045,1.314-1.898,1-2c-9.535-3.072-23.992-5.318-38-12
		c-0.761-0.363-0.58,0.766,0,1c-9.022-3.644-21.116-8.786-30-16c7.33-7.676,17.196,7.915,28,5c2.078,0.56,2.119,1.56,1,3
		c29.586,3.857,44.419,8.945,75,16c1.711,0.044,2.59-0.743,3-2c1.135,0.19,0.556,1.003,0,1c11.356,4.778,26.058,6.562,39,17
		C484.539,320.632,484.229,321.368,482.012,324z"/>
	<path fill-rule="evenodd" clip-rule="evenodd" d="M236.012,303c2.27-0.963,3.536-3.418,9-5c-2.111-4.97-5.858-4.909-9-7
		c0.615-0.89,1.208-1.789,0-2c-0.168-2.168,3.547-0.453,5-1c-0.19,0.81-1.003,0.997-1,2c0.89-0.443,1.789-0.878,2-2
		c1.454,0.443-0.102,0.878,0,2c11.43,1.102,17.098-0.202,32-2c-1.282,12.502-34.465,6.205-36,19
		C233.966,307.178,238.417,303.622,236.012,303z"/>
	<path fill-rule="evenodd" clip-rule="evenodd" d="M349.012,312c1.541-4.748,3.609,2.434,5,0c1.966,3.736,1.392,10.758,7,14
		c-0.991,3.246-1.943,6.919,2,8c-0.834,5.751-0.841,11.084,0,16c-0.737,2.263-3.812,2.188-4,5c-0.891-0.615-1.789-1.209-2,0
		c-6.12-7.081-4.88-14.894-3-20c-3.263-10.973-4.526-21.548-13-31c0.147-2.187,2.52-2.147,5-2
		C347.184,305.596,351.894,307.195,349.012,312z"/>
	<path fill-rule="evenodd" clip-rule="evenodd" d="M310.012,326c0.282,1.787-0.945,2.052-1,1c-1.172,0.161-0.844,1.823-1,3
		c-7.321,4.382-9.807,16.781-19,25c-1.988-0.677,0.988-3.323-1-4c0.56-2.078,1.56-2.119,3-1
		C294.617,340.897,302.891,326.982,310.012,326z"/>
	<path fill-rule="evenodd" clip-rule="evenodd" fill="#FFFFFF" d="M190.012,333c11.047-1.631,9.552,2.312,9,7
		c-0.947,8.049-2.094,14.164-3,32c-2.503-0.17-3.13,1.536-4,3c-1.273-0.203-4.898-2.907-5-1
		C184.086,362.229,188.172,348.673,190.012,333z"/>
	<path fill-rule="evenodd" clip-rule="evenodd" d="M317.012,348c-3.801,8.998-15.622,23.993-26,27c-0.61,0.177-2.95-1.015-3-1
		c-5.828,1.729-14.746,6.319-23,7c-9.672,0.798-23.146,1.674-30,0c-8.886-2.171-22.542-11.981-28-13c-2.214,1.639-3.646-3.324-2-5
		c2.265,2.561,7.62-0.163,5,3c17.262,2.051,34.077,14.372,51,8c5.639,1.943,16.048-2.125,23-4c1.135,0.19,0.556,1.003,0,1
		C295.755,370.127,306.016,357.49,317.012,348z"/>
	<path fill-rule="evenodd" clip-rule="evenodd" d="M136.012,365c0.354-1.567,1.761,0.875,2-1c1.654,2.713,3.693,5.635,4,7
		c-3.582,5.105-9.471,6.582-16,4c0.627-1.12,0.276-7.319,0-8c0.65-1.017,2.299-1.034,2-3c2.397,3.907-0.664,10.888,9,6
		C135.235,367.908,137.798,366.241,136.012,365z"/>
	<path fill-rule="evenodd" clip-rule="evenodd" fill="#FFFFFF" d="M164.012,392c5.504-6.463,4.29-21.504,17-23
		c-1.149,5.276,4.443,10.293,2,16C178.396,386.796,169.926,390.592,164.012,392z"/>
	<path fill-rule="evenodd" clip-rule="evenodd" d="M14.012,384c10.729,6.938,14.253,21.081,24,29c0,1.333,0,2.667,0,4
		c4.732,3.369,0.605,4.168,7,7c-3.945,0.498,3.215,6.277,2,11c2.67-2.517,5.749,11.854,7,13c10.392,9.517,6.789,23.083,14,31
		c-1.848,10.862,5.012,14.136-1,22c-8.302-9.33-9.943-24.406-12-33c-0.162-1.172-1.823-0.844-3-1c0.479-1.272,1.234-8.424-1-6
		c-3.667-17.225-12.687-35.35-23-49c-4.989-6.604-6.787-15.346-14-19c2.212-1.44-1.259-2.44,1-3c-6.517-4.912-10.421-7.979-13-16
		C11.445,374.834,12.037,378.283,14.012,384z"/>
	<path fill-rule="evenodd" clip-rule="evenodd" d="M92.012,385c0.252-0.482,5.297-2.274,6,1c1.717-3.411,2.816-1.64,4-6
		c0.89,0.615,1.789,1.209,2,0c3.151-0.151,0.422,5.578,5,4C114.34,395.17,90.708,394.905,92.012,385z"/>
	<path fill-rule="evenodd" clip-rule="evenodd" d="M44.012,474c2.508,3.085-0.788,9.17-10,8c0.002-4.416-7.185-5.576-5-9
		c-11.015-1.191-9.325-13.814-17-16c2.124-2.616-3.875-3.168-1-7c-7.559-4.878-13.818-24.06-2-12c4.191,0.059,3.091,1.433,8,2
		C25.929,455.221,38.267,470.267,44.012,474z"/>
	<path fill-rule="evenodd" clip-rule="evenodd" d="M124.012,470c4.885,3.268,3.975,6.123,8,10c5.651-0.477,12.782-6.469,14-6
		c5.576,2.147,6.679,8.702,1,11c-5.362,2.169-10.572-3.517-17,0C127.417,477.893,122.841,476.426,124.012,470z"/>
	<path fill-rule="evenodd" clip-rule="evenodd" d="M141.012,487c-0.727,11.557,10.526,23.561,13,37c-3.614-0.719-2.857-5.81-7-6
		c-1.03-8.866-9.433-18.824-8-31C139.902,487.615,140.8,488.209,141.012,487z"/>
	<path fill-rule="evenodd" clip-rule="evenodd" d="M198.012,503c2.999-2.362,3.649,1.175,3,3c-2.679,2.838-6.25,5.031-10,9
		C184.64,510.27,199.271,505.767,198.012,503z"/>
	<path fill-rule="evenodd" clip-rule="evenodd" d="M174.012,508c1.125,0.903-0.063,2.237,2,4c3.32-2.608,3.132-1.323,8-1
		c-2.554,4.288-3.759,3.711-10,4C172.619,512.087,171.527,510.041,174.012,508z"/>
	<path fill-rule="evenodd" clip-rule="evenodd" d="M164.012,520c-0.851-0.184-0.943,0.39-1,1c-4.614-2.063,1.692-5.937-1-8
		c0.226-1.44,2.985-0.349,3-2c3.484,0.294-0.084,2.706,2,3c-2.491,1.719-3.514,4.813-2,6
		C164.822,521.135,164.008,520.555,164.012,520z"/>
	<path fill-rule="evenodd" clip-rule="evenodd" d="M173.012,524c0,1,0,2,0,3c-2.265,2.735-7.526,2.474-11,4
		c-4.984,3.389-2.53,9.032-8,10C156.822,532.395,163.526,522.626,173.012,524z"/>
	<path fill-rule="evenodd" clip-rule="evenodd" d="M191.012,527c2.401,9.046,3.696,28.84-8,29c-1.536-5.442,5.842-4.904,7-10
		C191.227,540.654,181.771,531.799,191.012,527z"/>
</g>
</svg>
